<svg width="52" height="52" viewBox="0 0 52 52" fill="none" xmlns="http://www.w3.org/2000/svg">
<path d="M42.25 42.25H9.75C8.88805 42.25 8.0614 41.9076 7.4519 41.2981C6.84241 40.6886 6.5 39.862 6.5 39V16.25C6.5 15.388 6.84241 14.5614 7.4519 13.9519C8.0614 13.3424 8.88805 13 9.75 13H16.2488L19.4988 8.125H32.4988L35.7488 13H42.25C43.112 13 43.9386 13.3424 44.5481 13.9519C45.1576 14.5614 45.5 15.388 45.5 16.25V39C45.5 39.862 45.1576 40.6886 44.5481 41.2981C43.9386 41.9076 43.112 42.25 42.25 42.25Z" stroke="#27314A" stroke-width="1.5" stroke-linecap="round" stroke-linejoin="round"/>
<path d="M26 34.125C30.0386 34.125 33.3125 30.8511 33.3125 26.8125C33.3125 22.7739 30.0386 19.5 26 19.5C21.9614 19.5 18.6875 22.7739 18.6875 26.8125C18.6875 30.8511 21.9614 34.125 26 34.125Z" stroke="#27314A" stroke-width="1.5" stroke-linecap="round" stroke-linejoin="round"/>
</svg>
