<svg width="18" height="18" viewBox="0 0 18 18" fill="none" xmlns="http://www.w3.org/2000/svg">
<path d="M10.8974 7.10195L7.10244 10.897C6.61494 10.4095 6.31494 9.74195 6.31494 8.99945C6.31494 7.51445 7.51494 6.31445 8.99994 6.31445C9.74244 6.31445 10.4099 6.61445 10.8974 7.10195Z" stroke="#BBBDC3" stroke-width="1.5" stroke-linecap="round" stroke-linejoin="round"/>
<path d="M13.365 4.32687C12.0525 3.33687 10.5525 2.79688 9 2.79688C6.3525 2.79688 3.885 4.35687 2.1675 7.05687C1.4925 8.11437 1.4925 9.89188 2.1675 10.9494C2.76 11.8794 3.45 12.6819 4.2 13.3269" stroke="#BBBDC3" stroke-width="1.5" stroke-linecap="round" stroke-linejoin="round"/>
<path d="M6.31494 14.6473C7.16994 15.0073 8.07744 15.2023 8.99994 15.2023C11.6474 15.2023 14.1149 13.6423 15.8324 10.9423C16.5074 9.88477 16.5074 8.10727 15.8324 7.04977C15.5849 6.65977 15.3149 6.29227 15.0374 5.94727" stroke="#BBBDC3" stroke-width="1.5" stroke-linecap="round" stroke-linejoin="round"/>
<path d="M11.6325 9.52539C11.4375 10.5829 10.575 11.4454 9.51746 11.6404" stroke="#BBBDC3" stroke-width="1.5" stroke-linecap="round" stroke-linejoin="round"/>
<path d="M7.1025 10.8984L1.5 16.5009" stroke="#BBBDC3" stroke-width="1.5" stroke-linecap="round" stroke-linejoin="round"/>
<path d="M16.5 1.5L10.8975 7.1025" stroke="#BBBDC3" stroke-width="1.5" stroke-linecap="round" stroke-linejoin="round"/>
</svg>
