<svg width="66" height="66" viewBox="0 0 66 66" fill="none" xmlns="http://www.w3.org/2000/svg">
<path opacity="0.4" d="M58.4375 25.1616C52.085 15.1791 42.79 9.43164 33 9.43164C28.105 9.43164 23.3475 10.8616 19.0025 13.5291C14.6575 16.2241 10.7525 20.1566 7.5625 25.1616C4.8125 29.4791 4.8125 36.4916 7.5625 40.8091C13.915 50.8191 23.21 56.5391 33 56.5391C37.895 56.5391 42.6525 55.1091 46.9975 52.4416C51.3425 49.7466 55.2475 45.8141 58.4375 40.8091C61.1875 36.5191 61.1875 29.4791 58.4375 25.1616ZM33 44.1091C26.84 44.1091 21.89 39.1316 21.89 32.9991C21.89 26.8666 26.84 21.8891 33 21.8891C39.16 21.8891 44.11 26.8666 44.11 32.9991C44.11 39.1316 39.16 44.1091 33 44.1091Z" fill="#07B3E8"/>
<path d="M32.9996 25.1348C28.6821 25.1348 25.1621 28.6548 25.1621 32.9998C25.1621 37.3173 28.6821 40.8373 32.9996 40.8373C37.3171 40.8373 40.8646 37.3173 40.8646 32.9998C40.8646 28.6823 37.3171 25.1348 32.9996 25.1348Z" fill="#07B3E8"/>
</svg>
