<svg width="96" height="96" viewBox="0 0 96 96" fill="none" xmlns="http://www.w3.org/2000/svg">
<path d="M52.7602 65.16H43.2402V70.84H52.7602V65.16Z" fill="#07B3E8"/>
<path d="M31.8 10.84C31.8 12.44 30.52 13.72 28.96 13.72H25.16C18.32 13.72 12.76 19.28 12.76 26.08V49.6C9.36004 51.32 7.04004 54.84 7.04004 58.92V26.08C7.04004 16.12 15.16 8 25.16 8H28.96C30.52 8 31.8 9.28 31.8 10.84Z" fill="#07B3E8"/>
<path d="M88.9602 26.08V58.92C88.9602 54.84 86.6402 51.32 83.2402 49.6V26.08C83.2402 19.28 77.6802 13.72 70.8402 13.72H67.0402C65.4802 13.72 64.2002 12.44 64.2002 10.84C64.2002 9.28 65.4802 8 67.0402 8H70.8402C80.8402 8 88.9602 16.12 88.9602 26.08Z" fill="#07B3E8"/>
<path opacity="0.4" d="M43.24 58.92V77.52C43.24 83.32 38.52 88 32.76 88H17.52C11.76 88 7.04004 83.32 7.04004 77.52V58.92C7.04004 54.84 9.36004 51.32 12.76 49.6C14.2 48.84 15.8 48.44 17.52 48.44H32.76C38.52 48.44 43.24 53.12 43.24 58.92Z" fill="#07B3E8"/>
<path opacity="0.4" d="M88.9598 58.92V77.52C88.9598 83.32 84.2398 88 78.4798 88H63.2398C57.4798 88 52.7598 83.32 52.7598 77.52V58.92C52.7598 53.12 57.4798 48.44 63.2398 48.44H78.4798C80.1998 48.44 81.7998 48.84 83.2398 49.6C86.6398 51.32 88.9598 54.84 88.9598 58.92Z" fill="#07B3E8"/>
</svg>
