<svg width="74" height="74" viewBox="0 0 74 74" fill="none" xmlns="http://www.w3.org/2000/svg">
<path d="M67.8327 65.5209H6.16602C4.90185 65.5209 3.85352 66.5692 3.85352 67.8334C3.85352 69.0975 4.90185 70.1459 6.16602 70.1459H67.8327C69.0968 70.1459 70.1452 69.0975 70.1452 67.8334C70.1452 66.5692 69.0968 65.5209 67.8327 65.5209Z" fill="#07B3E8"/>
<path opacity="0.4" d="M52.4167 6.16663H21.5833C12.3333 6.16663 9.25 11.6858 9.25 18.5V67.8333H64.75V18.5C64.75 11.6858 61.6667 6.16663 52.4167 6.16663Z" fill="#07B3E8"/>
<path d="M43.3512 46.25H30.617C29.0445 46.25 27.7188 47.545 27.7188 49.1483V67.8333H46.2188V49.1483C46.2496 47.545 44.9546 46.25 43.3512 46.25Z" fill="#07B3E8"/>
<path d="M44.7077 23.8958H39.3118V18.5C39.3118 17.2358 38.2635 16.1875 36.9993 16.1875C35.7352 16.1875 34.6868 17.2358 34.6868 18.5V23.8958H29.291C28.0268 23.8958 26.9785 24.9442 26.9785 26.2083C26.9785 27.4725 28.0268 28.5208 29.291 28.5208H34.6868V33.9167C34.6868 35.1808 35.7352 36.2292 36.9993 36.2292C38.2635 36.2292 39.3118 35.1808 39.3118 33.9167V28.5208H44.7077C45.9718 28.5208 47.0202 27.4725 47.0202 26.2083C47.0202 24.9442 45.9718 23.8958 44.7077 23.8958Z" fill="#07B3E8"/>
</svg>
