<svg width="38" height="38" viewBox="0 0 38 38" fill="none" xmlns="http://www.w3.org/2000/svg">
<rect width="38" height="38" rx="14" fill="#27314A"/>
<path d="M19 9C16.38 9 14.25 11.13 14.25 13.75C14.25 16.32 16.26 18.4 18.88 18.49C18.96 18.48 19.04 18.48 19.1 18.49C19.12 18.49 19.13 18.49 19.15 18.49C19.16 18.49 19.16 18.49 19.17 18.49C21.73 18.4 23.74 16.32 23.75 13.75C23.75 11.13 21.62 9 19 9Z" fill="white"/>
<path d="M24.0809 21.1499C21.2909 19.2899 16.7409 19.2899 13.9309 21.1499C12.6609 21.9999 11.9609 23.1499 11.9609 24.3799C11.9609 25.6099 12.6609 26.7499 13.9209 27.5899C15.3209 28.5299 17.1609 28.9999 19.0009 28.9999C20.8409 28.9999 22.6809 28.5299 24.0809 27.5899C25.3409 26.7399 26.0409 25.5999 26.0409 24.3599C26.0309 23.1299 25.3409 21.9899 24.0809 21.1499Z" fill="white"/>
</svg>
