<svg width="20" height="20" viewBox="0 0 20 20" fill="none" xmlns="http://www.w3.org/2000/svg">
<path d="M17.9667 8.94997L16.8334 7.6333C16.6167 7.3833 16.4417 6.91663 16.4417 6.5833V5.16663C16.4417 4.2833 15.7167 3.5583 14.8334 3.5583H13.4167C13.0917 3.5583 12.6167 3.3833 12.3667 3.16663L11.0501 2.0333C10.4751 1.54163 9.5334 1.54163 8.95007 2.0333L7.64173 3.17497C7.39173 3.3833 6.91673 3.5583 6.59173 3.5583H5.15006C4.26673 3.5583 3.54173 4.2833 3.54173 5.16663V6.59163C3.54173 6.91663 3.36673 7.3833 3.1584 7.6333L2.0334 8.9583C1.55007 9.5333 1.55007 10.4666 2.0334 11.0416L3.1584 12.3666C3.36673 12.6166 3.54173 13.0833 3.54173 13.4083V14.8333C3.54173 15.7166 4.26673 16.4416 5.15006 16.4416H6.59173C6.91673 16.4416 7.39173 16.6166 7.64173 16.8333L8.9584 17.9666C9.5334 18.4583 10.4751 18.4583 11.0584 17.9666L12.3751 16.8333C12.6251 16.6166 13.0917 16.4416 13.4251 16.4416H14.8417C15.7251 16.4416 16.4501 15.7166 16.4501 14.8333V13.4166C16.4501 13.0916 16.6251 12.6166 16.8417 12.3666L17.9751 11.05C18.4584 10.475 18.4584 9.52497 17.9667 8.94997ZM13.9001 9.99997L12.9251 12.9666C12.8001 13.4583 12.2751 13.8583 11.7417 13.8583H10.2001C9.9334 13.8583 9.5584 13.7666 9.39173 13.6L8.16673 12.6416C8.14173 13.175 7.90007 13.4 7.3084 13.4H6.9084C6.29173 13.4 6.04173 13.1583 6.04173 12.575V8.59163C6.04173 8.0083 6.29173 7.76663 6.9084 7.76663H7.31673C7.9334 7.76663 8.1834 8.0083 8.1834 8.59163V8.89163L9.80007 6.49163C9.96673 6.2333 10.3917 6.04997 10.7501 6.19163C11.1417 6.32497 11.3917 6.7583 11.3084 7.14163L11.1084 8.44163C11.0917 8.5583 11.1167 8.66663 11.1917 8.74997C11.2584 8.82497 11.3584 8.87497 11.4667 8.87497H13.0917C13.4084 8.87497 13.6751 8.99997 13.8334 9.22497C13.9751 9.44163 14.0001 9.71663 13.9001 9.99997Z" fill="#D1416B"/>
</svg>
