<svg width="20" height="20" viewBox="0 0 20 20" fill="none" xmlns="http://www.w3.org/2000/svg">
<path d="M17.9658 8.95046L16.8324 7.63379C16.6158 7.38379 16.4408 6.91712 16.4408 6.58379V5.16712C16.4408 4.28379 15.7158 3.55879 14.8324 3.55879H13.4158C13.0908 3.55879 12.6158 3.38379 12.3658 3.16712L11.0491 2.03379C10.4741 1.54212 9.53242 1.54212 8.94909 2.03379L7.64076 3.17546C7.39076 3.38379 6.91576 3.55879 6.59075 3.55879H5.14909C4.26576 3.55879 3.54076 4.28379 3.54076 5.16712V6.59212C3.54076 6.91712 3.36576 7.38379 3.15742 7.63379L2.03242 8.95879C1.54909 9.53379 1.54909 10.4671 2.03242 11.0421L3.15742 12.3671C3.36576 12.6171 3.54076 13.0838 3.54076 13.4088V14.8338C3.54076 15.7171 4.26576 16.4421 5.14909 16.4421H6.59075C6.91576 16.4421 7.39076 16.6171 7.64076 16.8338L8.95742 17.9671C9.53242 18.4588 10.4741 18.4588 11.0574 17.9671L12.3741 16.8338C12.6241 16.6171 13.0908 16.4421 13.4241 16.4421H14.8408C15.7241 16.4421 16.4491 15.7171 16.4491 14.8338V13.4171C16.4491 13.0921 16.6241 12.6171 16.8408 12.3671L17.9741 11.0505C18.4574 10.4755 18.4574 9.52546 17.9658 8.95046ZM13.8991 10.0005L12.9241 12.9671C12.7991 13.4588 12.2741 13.8588 11.7408 13.8588H10.1991C9.93242 13.8588 9.55742 13.7671 9.39076 13.6005L8.16576 12.6421C8.14076 13.1755 7.89909 13.4005 7.30742 13.4005H6.90742C6.29076 13.4005 6.04076 13.1588 6.04076 12.5755V8.59212C6.04076 8.00879 6.29076 7.76712 6.90742 7.76712H7.31576C7.93242 7.76712 8.18242 8.00879 8.18242 8.59212V8.89212L9.79909 6.49212C9.96576 6.23379 10.3908 6.05046 10.7491 6.19212C11.1408 6.32546 11.3908 6.75879 11.3074 7.14212L11.1074 8.44212C11.0908 8.55879 11.1158 8.66712 11.1908 8.75046C11.2574 8.82546 11.3574 8.87546 11.4658 8.87546H13.0908C13.4074 8.87546 13.6741 9.00046 13.8324 9.22546C13.9741 9.44212 13.9991 9.71712 13.8991 10.0005Z" fill="#27314A"/>
</svg>
