<svg width="245" height="80" viewBox="0 0 245 80" fill="none" xmlns="http://www.w3.org/2000/svg">
<path d="M110 60H113.472C113.948 60 114.377 60.028 114.76 60.084C115.152 60.14 115.502 60.2707 115.81 60.476C116.081 60.6533 116.309 60.9053 116.496 61.232C116.683 61.5587 116.776 61.974 116.776 62.478C116.776 62.982 116.659 63.43 116.426 63.822C116.202 64.214 115.852 64.5033 115.376 64.69C116.011 64.802 116.487 65.0727 116.804 65.502C117.121 65.922 117.28 66.468 117.28 67.14C117.252 67.756 117.121 68.2367 116.888 68.582C116.655 68.9273 116.356 69.198 115.992 69.394C115.628 69.59 115.217 69.7253 114.76 69.8C114.312 69.8653 113.859 69.898 113.402 69.898H110V60ZM111.218 61.106V64.34H113.122C113.383 64.34 113.654 64.3213 113.934 64.284C114.214 64.2467 114.466 64.1673 114.69 64.046C114.951 63.9153 115.161 63.738 115.32 63.514C115.488 63.2807 115.577 62.9633 115.586 62.562C115.586 62.2447 115.53 61.9927 115.418 61.806C115.306 61.61 115.152 61.4607 114.956 61.358C114.76 61.2553 114.536 61.19 114.284 61.162C114.032 61.1247 113.766 61.106 113.486 61.106H111.218ZM113.36 68.792C113.659 68.792 113.957 68.778 114.256 68.75C114.564 68.722 114.853 68.652 115.124 68.54C115.404 68.4187 115.628 68.246 115.796 68.022C115.964 67.7887 116.048 67.476 116.048 67.084C116.048 66.748 115.983 66.4727 115.852 66.258C115.731 66.0433 115.563 65.8753 115.348 65.754C115.143 65.6327 114.905 65.5487 114.634 65.502C114.363 65.4553 114.088 65.432 113.808 65.432H111.218V68.792H113.36Z" fill="#FFA2C3"/>
<path d="M122.058 69.982C121.47 69.982 120.961 69.8887 120.532 69.702C120.102 69.5153 119.748 69.254 119.468 68.918C119.188 68.582 118.978 68.1853 118.838 67.728C118.698 67.2707 118.628 66.7713 118.628 66.23C118.628 65.7073 118.702 65.2173 118.852 64.76C119.001 64.2933 119.22 63.892 119.51 63.556C119.799 63.2107 120.163 62.94 120.602 62.744C121.04 62.5387 121.572 62.436 122.198 62.436C122.571 62.436 122.902 62.478 123.192 62.562C123.481 62.6367 123.752 62.7627 124.004 62.94C124.265 63.108 124.489 63.332 124.676 63.612C124.862 63.892 124.998 64.2327 125.082 64.634H123.864C123.724 64.2233 123.5 63.9293 123.192 63.752C122.893 63.5747 122.538 63.4907 122.128 63.5C121.726 63.5 121.372 63.5793 121.064 63.738C120.765 63.8873 120.522 64.088 120.336 64.34C120.158 64.592 120.028 64.886 119.944 65.222C119.86 65.5487 119.818 65.8847 119.818 66.23C119.818 66.594 119.86 66.9393 119.944 67.266C120.037 67.5927 120.172 67.882 120.35 68.134C120.536 68.3767 120.774 68.5727 121.064 68.722C121.353 68.862 121.698 68.932 122.1 68.932C122.296 68.932 122.487 68.9133 122.674 68.876C122.87 68.8387 123.047 68.778 123.206 68.694C123.374 68.6007 123.518 68.4793 123.64 68.33C123.761 68.1807 123.85 67.9987 123.906 67.784H125.138C125.063 68.1667 124.928 68.498 124.732 68.778C124.545 69.0487 124.312 69.2773 124.032 69.464C123.752 69.6413 123.444 69.772 123.108 69.856C122.772 69.94 122.422 69.982 122.058 69.982Z" fill="#FFA2C3"/>
<path d="M127.57 66.65C127.598 66.9767 127.663 67.28 127.766 67.56C127.878 67.8307 128.027 68.0687 128.214 68.274C128.401 68.4793 128.629 68.6427 128.9 68.764C129.18 68.876 129.502 68.932 129.866 68.932C130.043 68.932 130.225 68.918 130.412 68.89C130.608 68.8527 130.79 68.7967 130.958 68.722C131.126 68.638 131.275 68.5307 131.406 68.4C131.537 68.2693 131.635 68.1107 131.7 67.924H132.918C132.834 68.2787 132.689 68.5867 132.484 68.848C132.288 69.1093 132.05 69.324 131.77 69.492C131.499 69.66 131.196 69.786 130.86 69.87C130.524 69.9447 130.183 69.982 129.838 69.982C129.25 69.982 128.737 69.8887 128.298 69.702C127.869 69.5153 127.509 69.2587 127.22 68.932C126.931 68.596 126.716 68.1993 126.576 67.742C126.436 67.2753 126.366 66.7667 126.366 66.216C126.366 65.6653 126.441 65.1613 126.59 64.704C126.749 64.2373 126.973 63.836 127.262 63.5C127.551 63.164 127.906 62.9027 128.326 62.716C128.746 62.5293 129.245 62.436 129.824 62.436C130.412 62.436 130.921 62.5527 131.35 62.786C131.779 63.0193 132.125 63.3273 132.386 63.71C132.647 64.0833 132.829 64.4893 132.932 64.928C133.044 65.3667 133.091 65.7727 133.072 66.146C133.072 66.23 133.067 66.314 133.058 66.398C133.058 66.482 133.053 66.566 133.044 66.65H127.57ZM131.868 65.614C131.849 64.9887 131.653 64.48 131.28 64.088C130.907 63.696 130.407 63.5 129.782 63.5C129.437 63.5 129.133 63.556 128.872 63.668C128.611 63.78 128.391 63.934 128.214 64.13C128.037 64.326 127.897 64.5547 127.794 64.816C127.691 65.068 127.626 65.334 127.598 65.614H131.868Z" fill="#FFA2C3"/>
<path d="M134.671 69.898V62.52H139.767V63.57H135.861V69.898H134.671Z" fill="#FFA2C3"/>
<path d="M141.308 64.144C141.318 63.8733 141.322 63.6027 141.322 63.332C141.322 63.0613 141.322 62.7907 141.322 62.52H146.558V68.862H147.524V72.166H146.376V69.898H140.986V72.166H139.838V68.862C140.212 68.862 140.506 68.694 140.72 68.358C140.851 68.1713 140.954 67.9053 141.028 67.56C141.103 67.2053 141.159 66.832 141.196 66.44C141.243 66.0107 141.271 65.586 141.28 65.166C141.299 64.7367 141.308 64.396 141.308 64.144ZM145.368 63.57H142.456C142.447 63.962 142.438 64.4007 142.428 64.886C142.419 65.3713 142.4 65.824 142.372 66.244C142.363 66.4307 142.349 66.636 142.33 66.86C142.312 67.0747 142.279 67.2987 142.232 67.532C142.195 67.756 142.134 67.9847 142.05 68.218C141.976 68.4513 141.868 68.666 141.728 68.862H145.368V63.57Z" fill="#FFA2C3"/>
<path d="M153.625 68.96C153.467 69.1747 153.285 69.3473 153.079 69.478C152.874 69.6087 152.659 69.7113 152.435 69.786C152.221 69.8607 152.001 69.912 151.777 69.94C151.563 69.968 151.348 69.982 151.133 69.982C150.788 69.982 150.461 69.94 150.153 69.856C149.845 69.772 149.565 69.6367 149.313 69.45C149.071 69.2633 148.875 69.03 148.725 68.75C148.585 68.47 148.515 68.1527 148.515 67.798C148.515 67.378 148.59 67.028 148.739 66.748C148.898 66.4587 149.108 66.2253 149.369 66.048C149.631 65.8707 149.929 65.7493 150.265 65.684C150.611 65.6093 150.975 65.572 151.357 65.572H153.527C153.527 64.9467 153.392 64.452 153.121 64.088C152.851 63.7147 152.393 63.5187 151.749 63.5C151.357 63.5 151.012 63.5653 150.713 63.696C150.415 63.8267 150.209 64.0413 150.097 64.34H148.823C148.889 64.004 149.019 63.7193 149.215 63.486C149.411 63.2433 149.645 63.0473 149.915 62.898C150.186 62.7393 150.48 62.6227 150.797 62.548C151.115 62.4733 151.432 62.436 151.749 62.436C152.3 62.436 152.762 62.5293 153.135 62.716C153.518 62.8933 153.826 63.1313 154.059 63.43C154.293 63.7193 154.456 64.074 154.549 64.494C154.643 64.914 154.689 65.3853 154.689 65.908V69.898H153.695L153.625 68.96ZM152.225 66.566C152.001 66.566 151.74 66.5707 151.441 66.58C151.152 66.58 150.872 66.608 150.601 66.664C150.331 66.72 150.111 66.8367 149.943 67.014C149.785 67.1913 149.705 67.4247 149.705 67.714C149.705 67.9287 149.747 68.1107 149.831 68.26C149.915 68.4093 150.027 68.5353 150.167 68.638C150.317 68.7407 150.485 68.8153 150.671 68.862C150.858 68.9087 151.049 68.932 151.245 68.932C151.945 68.932 152.496 68.764 152.897 68.428C153.308 68.0827 153.518 67.5833 153.527 66.93V66.566H152.225Z" fill="#FFA2C3"/>
<path d="M160.306 69.898V62.52H166.424V69.898H165.234V63.57H161.496V69.898H160.306Z" fill="#FFA2C3"/>
<path d="M171.552 62.436C172.14 62.436 172.649 62.5293 173.078 62.716C173.508 62.9027 173.867 63.164 174.156 63.5C174.455 63.836 174.674 64.2373 174.814 64.704C174.964 65.1613 175.038 65.6653 175.038 66.216C175.038 66.7667 174.964 67.2753 174.814 67.742C174.674 68.1993 174.455 68.596 174.156 68.932C173.867 69.2587 173.503 69.5153 173.064 69.702C172.626 69.8887 172.112 69.982 171.524 69.982C170.936 69.982 170.423 69.8887 169.984 69.702C169.555 69.5153 169.191 69.2587 168.892 68.932C168.603 68.596 168.384 68.1993 168.234 67.742C168.094 67.2753 168.024 66.7667 168.024 66.216C168.024 65.6653 168.094 65.1613 168.234 64.704C168.384 64.2373 168.603 63.836 168.892 63.5C169.191 63.164 169.56 62.9027 169.998 62.716C170.437 62.5293 170.955 62.436 171.552 62.436ZM171.524 68.932C171.926 68.932 172.271 68.862 172.56 68.722C172.859 68.582 173.102 68.3907 173.288 68.148C173.484 67.896 173.624 67.6067 173.708 67.28C173.802 66.9533 173.848 66.5987 173.848 66.216C173.848 65.8427 173.802 65.4927 173.708 65.166C173.624 64.83 173.484 64.5407 173.288 64.298C173.102 64.046 172.859 63.85 172.56 63.71C172.271 63.57 171.926 63.5 171.524 63.5C171.123 63.5 170.778 63.57 170.488 63.71C170.199 63.85 169.956 64.046 169.76 64.298C169.574 64.5407 169.434 64.83 169.34 65.166C169.256 65.4927 169.214 65.8427 169.214 66.216C169.214 66.5987 169.256 66.9533 169.34 67.28C169.434 67.6067 169.574 67.896 169.76 68.148C169.956 68.3907 170.199 68.582 170.488 68.722C170.778 68.862 171.123 68.932 171.524 68.932Z" fill="#FFA2C3"/>
<path d="M176.63 62.52H178.226L180.62 66.216L182.972 62.52H184.54V69.898H183.364V63.836L180.76 68.008H180.424L177.806 63.836V69.898H176.63V62.52Z" fill="#FFA2C3"/>
<path d="M189.668 62.436C190.256 62.436 190.764 62.5293 191.194 62.716C191.623 62.9027 191.982 63.164 192.272 63.5C192.57 63.836 192.79 64.2373 192.93 64.704C193.079 65.1613 193.154 65.6653 193.154 66.216C193.154 66.7667 193.079 67.2753 192.93 67.742C192.79 68.1993 192.57 68.596 192.272 68.932C191.982 69.2587 191.618 69.5153 191.18 69.702C190.741 69.8887 190.228 69.982 189.64 69.982C189.052 69.982 188.538 69.8887 188.1 69.702C187.67 69.5153 187.306 69.2587 187.008 68.932C186.718 68.596 186.499 68.1993 186.35 67.742C186.21 67.2753 186.14 66.7667 186.14 66.216C186.14 65.6653 186.21 65.1613 186.35 64.704C186.499 64.2373 186.718 63.836 187.008 63.5C187.306 63.164 187.675 62.9027 188.114 62.716C188.552 62.5293 189.07 62.436 189.668 62.436ZM189.64 68.932C190.041 68.932 190.386 68.862 190.676 68.722C190.974 68.582 191.217 68.3907 191.404 68.148C191.6 67.896 191.74 67.6067 191.824 67.28C191.917 66.9533 191.964 66.5987 191.964 66.216C191.964 65.8427 191.917 65.4927 191.824 65.166C191.74 64.83 191.6 64.5407 191.404 64.298C191.217 64.046 190.974 63.85 190.676 63.71C190.386 63.57 190.041 63.5 189.64 63.5C189.238 63.5 188.893 63.57 188.604 63.71C188.314 63.85 188.072 64.046 187.876 64.298C187.689 64.5407 187.549 64.83 187.456 65.166C187.372 65.4927 187.33 65.8427 187.33 66.216C187.33 66.5987 187.372 66.9533 187.456 67.28C187.549 67.6067 187.689 67.896 187.876 68.148C188.072 68.3907 188.314 68.582 188.604 68.722C188.893 68.862 189.238 68.932 189.64 68.932Z" fill="#FFA2C3"/>
<path d="M198.403 69.898V66.72H197.171L195.253 69.898H193.867L196.261 66.034L194.077 62.52H195.351L197.297 65.712H198.403V62.52H199.593V65.712H200.699L202.645 62.52H203.919L201.735 66.034L204.129 69.898H202.743L200.825 66.72H199.593V69.898H198.403Z" fill="#FFA2C3"/>
<path d="M206.047 66.65C206.075 66.9767 206.14 67.28 206.243 67.56C206.355 67.8307 206.504 68.0687 206.691 68.274C206.877 68.4793 207.106 68.6427 207.377 68.764C207.657 68.876 207.979 68.932 208.343 68.932C208.52 68.932 208.702 68.918 208.889 68.89C209.085 68.8527 209.267 68.7967 209.435 68.722C209.603 68.638 209.752 68.5307 209.883 68.4C210.013 68.2693 210.111 68.1107 210.177 67.924H211.395C211.311 68.2787 211.166 68.5867 210.961 68.848C210.765 69.1093 210.527 69.324 210.247 69.492C209.976 69.66 209.673 69.786 209.337 69.87C209.001 69.9447 208.66 69.982 208.315 69.982C207.727 69.982 207.213 69.8887 206.775 69.702C206.345 69.5153 205.986 69.2587 205.697 68.932C205.407 68.596 205.193 68.1993 205.053 67.742C204.913 67.2753 204.843 66.7667 204.843 66.216C204.843 65.6653 204.917 65.1613 205.067 64.704C205.225 64.2373 205.449 63.836 205.739 63.5C206.028 63.164 206.383 62.9027 206.803 62.716C207.223 62.5293 207.722 62.436 208.301 62.436C208.889 62.436 209.397 62.5527 209.827 62.786C210.256 63.0193 210.601 63.3273 210.863 63.71C211.124 64.0833 211.306 64.4893 211.409 64.928C211.521 65.3667 211.567 65.7727 211.549 66.146C211.549 66.23 211.544 66.314 211.535 66.398C211.535 66.482 211.53 66.566 211.521 66.65H206.047ZM210.345 65.614C210.326 64.9887 210.13 64.48 209.757 64.088C209.383 63.696 208.884 63.5 208.259 63.5C207.913 63.5 207.61 63.556 207.349 63.668C207.087 63.78 206.868 63.934 206.691 64.13C206.513 64.326 206.373 64.5547 206.271 64.816C206.168 65.068 206.103 65.334 206.075 65.614H210.345Z" fill="#FFA2C3"/>
<path d="M213.148 62.52H214.744L217.138 66.216L219.49 62.52H221.058V69.898H219.882V63.836L217.278 68.008H216.942L214.324 63.836V69.898H213.148V62.52Z" fill="#FFA2C3"/>
<path d="M124.334 18.8219V7H120.95V18.8219H114.393V7H111.009V21.5692H123.304V24.6496H126.436V18.8219H124.334Z" fill="white"/>
<path d="M139.277 16.0121C139.277 12.4114 136.713 10.2052 133.392 10.2052C129.945 10.2052 127.36 12.6196 127.36 15.9705C127.36 19.3006 129.903 21.7357 133.812 21.7357C135.851 21.7357 137.427 21.1113 138.478 19.925L136.734 18.0518C135.956 18.7803 135.094 19.1341 133.896 19.1341C132.173 19.1341 130.975 18.2807 130.66 16.8863H139.214C139.235 16.6157 139.277 16.2619 139.277 16.0121ZM133.413 12.6612C134.884 12.6612 135.956 13.577 136.187 14.9923H130.618C130.849 13.5561 131.921 12.6612 133.413 12.6612Z" fill="white"/>
<path d="M141.79 21.5692H145.048V17.3858H149.966V21.5692H153.245V10.3717H149.966V14.7425H145.048V10.3717H141.79V21.5692Z" fill="white"/>
<path d="M165.883 10.3717H154.975V13.0358H158.8V21.5692H162.058V13.0358H165.883V10.3717Z" fill="white"/>
<path d="M174.293 10.2052C172.78 10.2052 171.561 10.6839 170.741 11.6621V10.3717H167.61V25.607H170.888V20.3829C171.729 21.2986 172.885 21.7357 174.293 21.7357C177.467 21.7357 179.926 19.4879 179.926 15.9705C179.926 12.4531 177.467 10.2052 174.293 10.2052ZM173.726 19.0716C172.086 19.0716 170.846 17.9061 170.846 15.9705C170.846 14.0349 172.086 12.8693 173.726 12.8693C175.365 12.8693 176.605 14.0349 176.605 15.9705C176.605 17.9061 175.365 19.0716 173.726 19.0716Z" fill="white"/>
<path d="M117.966 47.8354C120.53 47.8354 122.652 46.9197 124.04 45.2338L121.854 43.2357C120.866 44.3804 119.626 44.9632 118.155 44.9632C115.401 44.9632 113.447 43.0484 113.447 40.3011C113.447 37.5537 115.401 35.6389 118.155 35.6389C119.626 35.6389 120.866 36.2217 121.854 37.3456L124.04 35.3475C122.652 33.6825 120.53 32.7667 117.987 32.7667C113.405 32.7667 110 35.9095 110 40.3011C110 44.6926 113.405 47.8354 117.966 47.8354Z" fill="white"/>
<path d="M130.913 47.7522C134.507 47.7522 137.113 45.3587 137.113 41.9869C137.113 38.6152 134.507 36.2217 130.913 36.2217C127.319 36.2217 124.692 38.6152 124.692 41.9869C124.692 45.3587 127.319 47.7522 130.913 47.7522ZM130.913 45.0881C129.274 45.0881 128.013 43.9226 128.013 41.9869C128.013 40.0513 129.274 38.8858 130.913 38.8858C132.552 38.8858 133.792 40.0513 133.792 41.9869C133.792 43.9226 132.552 45.0881 130.913 45.0881Z" fill="white"/>
<path d="M150.259 44.9216V36.3882H140.402L140.255 40.2594C140.129 42.6946 139.856 44.88 138.3 44.9216H137.838V50H140.885V47.5857H148.83V50H151.877V44.9216H150.259ZM143.218 40.4884L143.281 39.0523H146.98V44.9216H142.209C143.008 44.0891 143.155 42.3824 143.218 40.4884Z" fill="white"/>
<path d="M164.933 42.0286C164.933 38.4279 162.369 36.2217 159.048 36.2217C155.601 36.2217 153.016 38.636 153.016 41.9869C153.016 45.317 155.559 47.7522 159.468 47.7522C161.507 47.7522 163.083 47.1278 164.134 45.9414L162.39 44.0682C161.612 44.7967 160.75 45.1505 159.552 45.1505C157.829 45.1505 156.631 44.2972 156.316 42.9027H164.87C164.891 42.6321 164.933 42.2783 164.933 42.0286ZM159.069 38.6776C160.54 38.6776 161.612 39.5934 161.843 41.0087H156.274C156.505 39.5726 157.577 38.6776 159.069 38.6776Z" fill="white"/>
<path d="M173.121 35.181C175.58 35.181 176.841 34.1196 176.862 31.955H174.676C174.676 32.9124 174.109 33.4952 173.1 33.4952C172.07 33.4952 171.565 32.9124 171.544 31.955H169.401C169.422 34.1196 170.662 35.181 173.121 35.181ZM167.446 47.5857H170.473L175.958 40.9255V47.5857H179.216V36.3882H176.21L170.704 43.0484V36.3882H167.446V47.5857Z" fill="white"/>
<path d="M187.748 47.7522C190.123 47.7522 191.994 46.7115 192.813 44.9216L190.27 43.5479C189.661 44.6302 188.757 45.0881 187.727 45.0881C186.067 45.0881 184.764 43.9434 184.764 41.9869C184.764 40.0305 186.067 38.8858 187.727 38.8858C188.757 38.8858 189.661 39.3645 190.27 40.4259L192.813 39.0731C191.994 37.2415 190.123 36.2217 187.748 36.2217C184.07 36.2217 181.443 38.6152 181.443 41.9869C181.443 45.3587 184.07 47.7522 187.748 47.7522Z" fill="white"/>
<path d="M204.264 36.3882H193.356V39.0523H197.182V47.5857H200.439V39.0523H204.264V36.3882Z" fill="white"/>
<path d="M214.65 41.7372C215.701 41.2585 216.311 40.4051 216.311 39.2812C216.311 37.4497 214.629 36.3882 211.792 36.3882H206.012V47.5857H212.044C215.155 47.5857 216.647 46.3785 216.647 44.4013C216.647 43.0692 215.974 42.1743 214.65 41.7372ZM209.018 38.5944H211.498C212.633 38.5944 213.221 38.969 213.221 39.7807C213.221 40.5716 212.633 40.9879 211.498 40.9879H209.018V38.5944ZM211.771 45.3795H209.018V42.9027H211.834C213.032 42.9027 213.578 43.2982 213.578 44.1515C213.578 44.984 212.969 45.3795 211.771 45.3795Z" fill="white"/>
<path d="M219.086 47.5857H222.113L227.598 40.9255V47.5857H230.856V36.3882H227.851L222.344 43.0484V36.3882H219.086V47.5857Z" fill="white"/>
<path d="M245 42.0286C245 38.4279 242.436 36.2217 239.115 36.2217C235.668 36.2217 233.083 38.636 233.083 41.9869C233.083 45.317 235.626 47.7522 239.535 47.7522C241.574 47.7522 243.15 47.1278 244.201 45.9414L242.457 44.0682C241.679 44.7967 240.818 45.1505 239.62 45.1505C237.896 45.1505 236.698 44.2972 236.383 42.9027H244.937C244.958 42.6321 245 42.2783 245 42.0286ZM239.136 38.6776C240.607 38.6776 241.679 39.5934 241.91 41.0087H236.341C236.572 39.5726 237.644 38.6776 239.136 38.6776Z" fill="white"/>
<g clip-path="url(#clip0_1_4692)">
<path fill-rule="evenodd" clip-rule="evenodd" d="M39.4261 74.1863L38.8835 74.1935V74.3585H39.4261V74.1863Z" fill="#48D4FF"/>
<path fill-rule="evenodd" clip-rule="evenodd" d="M36.9736 59.9533C37.4077 59.9533 38.0443 60.1184 38.5724 59.9677L38.9413 59.8672C39.3681 59.8097 39.1439 59.9318 39.4622 59.7739L39.5852 59.7093C39.5852 59.7093 39.6141 59.6949 39.6213 59.6949C39.6286 59.6949 39.6503 59.6805 39.6575 59.6734C39.6647 59.6734 39.6864 59.659 39.6937 59.6518C39.7009 59.6518 39.7226 59.6375 39.7298 59.6303C39.7371 59.6303 39.7588 59.6088 39.766 59.6088L40.475 59.2355C40.7137 59.1063 40.7137 59.0705 40.9307 58.9197C42.2763 57.9867 42.0086 58.1589 43.195 57.0034C43.9618 56.2641 43.4265 56.3861 43.9112 56.2497C43.9112 55.1229 42.9997 55.6755 42.2763 55.9411C41.2562 56.3143 39.2886 57.2115 38.2396 56.7163C38.4783 55.7114 38.2613 54.7783 37.9213 53.874C37.7983 53.551 37.6175 53.4146 37.5451 53.0916C38.4639 53.0916 38.3554 53.2854 39.2886 52.9696C39.7588 52.8117 39.9758 53.0342 40.4967 51.6274L40.8294 50.3355C40.9018 49.8546 40.475 49.2302 40.135 48.8928C38.6592 47.4358 36.6119 48.4765 36.1996 50.1345C36.1417 50.357 36.12 50.8092 36.1489 51.1465C36.1996 51.6418 36.3443 51.7566 36.3732 52.0796C35.7728 51.6777 35.4834 51.5341 34.5936 51.8571L33.4217 52.4672C33.2842 52.5533 33.2264 52.6107 33.06 52.7256C32.9153 52.8261 32.8863 52.8476 32.7489 52.9624C32.5319 53.1419 32.6042 53.0486 32.4595 53.2926C32.2063 53.7017 32.2063 53.6012 31.8953 53.8883C31.548 54.2185 31.2442 55.0224 31.0561 55.4746L30.7667 56.2425L30.4991 56.8239V56.8526L30.3327 57.2402C29.9131 58.3599 29.7684 61.8194 30.2025 63.054C30.311 63.3698 30.3689 63.5923 30.4484 63.8865C30.5714 64.3531 30.6438 64.3315 30.8536 64.6402C30.7233 65.1785 30.4267 65.322 30.188 66.98C30.0723 67.7911 30.2893 69.1046 30.4846 69.7075C30.6004 70.0735 30.8246 70.3678 31.0416 70.6908C31.1646 70.8774 31.2297 70.9635 31.3455 71.1573C31.4395 71.3152 31.5336 71.5018 31.6565 71.6167C31.7723 71.7315 31.9387 71.8463 32.0834 71.9684C32.8068 72.6072 34.051 72.8871 34.9842 72.9445C35.686 72.9876 37.0098 72.2196 37.5234 71.631C38.0515 71.0138 38.5869 69.93 38.869 69.1117C39.0932 68.4658 39.0426 66.7001 38.8617 66.3269C39.1294 66.3987 39.1511 66.4704 39.303 67.0518C39.8311 69.1404 39.3609 70.3032 38.8907 72.1335L38.5796 73.1239C38.4422 73.5187 38.4783 73.4541 38.4783 73.9565C38.7171 74.1144 38.5724 74.1216 38.869 74.1719H39.4115C39.7009 74.1288 40.352 73.4254 40.5618 73.167L40.6269 73.0737C40.6269 73.0737 40.6486 73.045 40.6558 73.0235L41.3069 72.2842C41.372 72.2268 41.4009 72.1909 41.466 72.1335L41.6469 71.9325C41.6469 71.9325 41.7699 71.7315 41.7916 71.6956C42.5222 70.5185 42.3992 70.9492 42.9056 69.5639L43.4699 68.0423C43.5784 67.748 43.8461 66.1618 43.8171 65.645C43.7665 64.6832 43.4048 63.8507 42.8044 63.1114C42.2835 62.4726 41.589 61.884 40.8222 61.5323C40.2435 61.2668 38.5073 60.8146 38.0154 60.7715L36.7711 60.6926V60.0753L36.8 59.8672C37.1111 59.8169 36.8507 59.8385 36.9592 59.9246L36.9736 59.9533ZM37.5668 66.2623C37.7115 66.6929 37.8707 67.3174 37.8707 67.8916C37.8707 68.5878 37.386 69.9228 37.0604 70.3176L36.6843 70.7195C36.2502 71.2937 36.2647 71.2937 35.4906 71.5377C35.0638 71.6741 35.6787 71.6669 34.4562 71.6669C34.1306 71.6669 34.0293 71.5808 33.7472 71.5234C32.6187 71.308 32.38 70.5831 31.8953 69.7362C31.577 69.1835 31.4974 69.0041 31.4251 68.3509C31.3889 68.0423 31.3165 67.8772 31.3672 67.5255C31.4323 66.9872 31.8085 65.2503 32.228 64.7478C32.5246 64.389 32.8212 64.1521 33.2408 63.9009C33.7255 63.6138 33.9425 63.4918 34.6949 63.4918C35.3025 63.4918 35.8885 63.6999 36.3153 64.1162C37.4439 65.2144 37.2196 65.1785 37.5741 66.2551L37.5668 66.2623Z" fill="#48D4FF"/>
<path fill-rule="evenodd" clip-rule="evenodd" d="M60.2024 55.8981C60.2024 55.8981 60.4484 56.0345 60.499 56.0632C60.7884 56.2355 60.622 56.2426 61.0126 56.2426C61.3744 56.2426 62.1122 55.9125 62.2714 55.7187C62.5752 55.3455 62.7416 53.3788 61.1212 52.6611C59.942 52.1371 59.2186 52.8549 59.2186 53.465C59.2186 54.276 59.1535 54.8215 59.7394 55.4101C59.8697 55.5464 60.0722 55.7976 60.188 55.891L60.2024 55.8981Z" fill="#48D4FF"/>
<path fill-rule="evenodd" clip-rule="evenodd" d="M65.5557 61.9988C65.4472 61.7835 65.5702 61.9342 65.3676 61.805C65.5196 61.4461 65.3893 61.5179 65.1 60.7571C65.0349 60.5848 65.0493 60.5633 64.977 60.4126L64.9191 60.3193C64.9191 60.3193 64.8395 60.1757 64.8395 60.1686C64.8106 60.104 64.7383 59.9676 64.7093 59.9102C64.1306 58.9771 63.8123 58.5177 62.9804 57.6923C62.691 57.4052 61.794 56.6731 61.4033 56.4865C61.3816 56.4793 61.3238 56.4506 61.2948 56.4363C60.6582 56.1492 60.1952 56.3573 59.7612 56.5439C58.8714 56.9315 59.291 57.0751 58.5748 57.8431C58.2492 58.1947 58.2203 57.9794 58.1407 57.8646C58.0829 57.7713 58.1118 57.8646 58.0829 57.6923C58.0684 57.599 58.0684 57.5703 58.0612 57.477C58.0539 57.3119 58.0322 57.111 58.025 56.9818C57.9454 55.819 58.7195 56.0918 58.271 55.0367C58.271 55.0367 58.1914 54.8859 58.1914 54.8788C58.0829 54.7137 58.148 54.7998 58.0467 54.6993C57.8224 54.5486 57.9888 54.6419 57.8297 54.6993L57.7212 54.9505C57.6199 55.051 57.6199 55.0797 57.439 55.0797C57.3594 55.3884 57.2292 55.3022 56.8965 55.2807C56.6867 55.6826 56.7373 56.1276 56.7373 56.6947C56.7373 57.4914 56.636 58.7905 57.4029 59.1924L57.9599 59.4077C58.1697 59.5082 58.3433 59.58 58.5169 59.702C58.5097 60.147 58.2999 60.7643 58.2058 61.1662L57.6995 63.7501C57.6343 64.0013 57.6271 63.8578 57.5909 64.109C57.5403 64.4391 57.5909 64.5899 57.5186 64.8841C57.4246 65.2574 57.4246 65.2574 57.4246 65.7167C57.4246 66.3268 57.2292 66.6929 57.1931 67.2599L56.5131 72.7506C56.3756 73.5617 56.1875 73.6981 56.3901 74.1287C56.6071 74.5881 57.0773 74.7532 57.3884 74.2436L57.9961 73.0736C58.1263 72.7794 58.1407 72.7148 58.2131 72.3631L59.7467 67.6403C59.848 67.2455 59.7539 67.224 60.0578 67.023C60.2748 67.468 60.2169 68.9251 60.2097 69.6428C60.2097 70.4682 60.3906 71.674 60.434 72.2698C60.4774 72.8009 60.4918 72.9803 60.9403 73.1669C61.7433 73.5043 61.8953 72.1621 61.917 71.5735L62.1846 69.6859C62.3438 69.1188 62.6187 65.8172 62.6114 65.1784C62.6114 64.6186 62.691 64.4104 62.691 63.8721C62.691 62.8529 62.5608 60.3408 62.691 59.7882C63.0093 59.8743 63.1251 60.147 63.2987 60.4198L63.6459 61.0729C63.6459 61.0729 63.6676 61.1016 63.6748 61.116C63.7689 61.238 63.6966 61.159 63.7761 61.2165C63.834 61.2739 63.8485 61.2811 63.9136 61.36C63.8557 61.2739 63.834 61.2739 63.7761 61.2165L64.0221 62.5443C64.1668 63.0826 64.5357 63.1113 64.8613 63.3266C64.9481 63.2692 64.9264 63.2764 65.0059 63.2405C65.1 63.1903 65.1361 63.1903 65.2157 63.14C65.7004 62.8601 65.5991 62.1424 65.5196 61.9845L65.5557 61.9988ZM64.4923 62.9749C64.3115 62.817 64.2246 62.6448 64.1812 62.451C64.2246 62.6376 64.3042 62.817 64.4923 62.9749C64.514 62.9965 64.5502 63.018 64.5936 63.0395C64.5502 63.018 64.514 62.9893 64.4923 62.9749Z" fill="#48D4FF"/>
<path fill-rule="evenodd" clip-rule="evenodd" d="M36.7928 60.1041C37.046 60.0538 36.8652 60.1974 36.9737 59.9462C36.8652 59.8672 37.1256 59.8385 36.8145 59.8888L36.7928 60.0969V60.1041Z" fill="#48D4FF"/>
<path d="M57.8369 54.7065C57.3088 53.1562 56.5999 52.4456 55.9633 50.8666L53.9377 47.2492C53.7424 46.9621 53.5543 46.7108 53.3879 46.4094C52.7947 45.3471 52.8381 45.6773 52.2305 44.7801C51.9845 44.4141 50.4075 42.8924 50.053 42.6197C49.5394 42.2321 49.5611 42.469 48.9679 42.3111C48.5772 42.2034 48.1504 42.0957 47.7959 42.2752C47.2678 42.5407 47.0219 44.9021 46.718 45.3687C46.3708 45.8926 46.3853 46.2874 46.0308 46.8472C45.9151 47.0266 45.8355 47.0554 45.7197 47.2276C45.481 47.5721 45.5895 47.73 45.2133 48.1894C44.9674 48.4837 44.7865 49.022 44.1572 49.912C43.6942 50.5651 43.8172 50.68 43.072 51.6059C41.9435 52.9983 41.929 53.2782 40.4388 54.6994C39.1945 55.8908 39.3175 55.5176 39.5056 56.3143C40.2797 56.3143 40.3954 56.1994 40.9018 55.9267L41.3792 55.6253C41.3792 55.6253 41.4082 55.5965 41.4154 55.5894C41.4299 55.575 41.4444 55.5607 41.4516 55.5535C41.6541 55.3812 41.7844 55.3453 42.0159 55.1946C42.4065 54.9362 42.6525 54.685 43.0069 54.4051L44.584 52.9624C44.584 52.9624 44.6057 52.9337 44.6201 52.9193L44.8806 52.6322C46.7325 50.7661 45.7125 51.8212 47.0074 50.113C47.2823 49.7469 47.6585 49.6321 47.7381 50.1417C47.7525 50.2422 47.7381 50.558 47.7381 50.68C47.7308 51.1896 47.8104 51.4193 47.8176 51.8212C47.6946 51.9073 47.4415 53.8094 47.5066 53.9888C47.3474 54.1108 47.3908 54.0103 47.2895 54.5486C47.2389 54.8429 47.2027 54.8573 47.1449 55.1013C46.9351 56.0774 47.21 55.776 46.6602 57.5488L45.9006 59.6446C45.6619 60.1686 45.6836 60.6854 45.3291 61.238C45.0036 61.7476 44.7865 61.8984 44.7865 62.9391C44.9963 62.9965 45.3219 63.1831 46.0019 63.1329C46.6457 63.0898 46.6312 62.9247 47.3474 63.0898C47.55 63.9368 47.3763 64.2669 47.2895 64.8052C47.2244 65.1856 47.2678 65.3292 47.181 65.6952C47.1376 65.8818 47.0074 66.3484 46.9785 66.4991C46.9206 66.858 46.9857 67.0231 46.8989 67.3389C46.3202 69.284 46.6023 69.4562 45.9729 71.3511C45.7993 71.8822 45.7414 72.4133 45.5244 72.9086C45.3219 73.3679 45.4521 73.2746 45.3219 73.6335C44.8589 74.9254 45.1772 73.7842 44.8878 75.2054C44.7938 75.6647 44.7648 75.593 44.8661 76.0308C45.4376 76.0308 45.4304 76.1241 45.9512 75.3346C46.1972 74.9613 46.4287 74.5809 46.6529 74.179C47.0074 73.5258 47.0942 73.2962 47.5355 72.7435C47.9623 72.2052 48.3096 71.186 48.5917 70.5544L49.3947 68.5734C49.6913 67.8772 49.9734 67.2815 50.1687 66.5637C50.2989 66.0756 50.4798 65.7383 50.6896 65.3148C50.7619 65.1713 50.9355 64.7693 51.1598 64.999C51.4058 65.243 51.1743 67.1953 51.1092 67.5901C51.0079 68.193 51.1453 68.7672 51.0007 69.3342C50.9211 69.6572 50.8994 70.9204 50.6896 71.7961L50.2338 74.1144C50.0747 74.7029 50.0602 75.1695 50.3785 75.6504C50.856 75.6145 50.9428 75.5068 51.167 75.2054C51.3985 74.8896 51.4564 74.7388 51.5938 74.3154C51.7168 73.935 51.7096 73.7125 51.8832 73.3679C52.4692 72.1621 52.2377 72.0329 52.5054 71.4444C52.6428 71.1429 52.7368 70.8056 52.8092 70.4395C52.8743 70.1094 52.9322 69.7936 53.0479 69.4419C53.1926 69.0184 53.2288 68.8174 53.3083 68.394C53.3807 68.0064 53.4675 67.6906 53.5398 67.3891C53.6339 66.9872 53.699 66.6785 53.7713 66.3125C53.8509 65.9106 53.9377 65.7239 54.0535 65.3579C54.1186 65.1641 54.133 65.078 54.1981 64.8842L54.5815 63.341C54.6611 63.0037 54.6467 62.5802 55.0084 62.4438C55.6811 62.1855 55.8041 63.097 56.8965 63.097C56.9616 62.8673 57.3305 62.4726 56.9833 61.6974C56.7952 61.2667 56.8675 61.6902 56.7301 61.0227C56.6433 60.6136 56.5348 60.7428 56.4624 60.3624C56.3756 59.903 56.5926 60.348 56.3033 59.7595C56.1948 59.5441 56.1658 59.3073 56.079 59.0489C55.6811 57.8503 55.4207 56.6947 55.0735 55.5032C54.9939 55.2377 54.936 55.0798 54.8637 54.7855C54.7479 54.319 54.6105 53.8596 54.4586 53.3356C54.3067 52.8045 54.1041 52.4887 54.1041 51.8427C54.4875 51.8714 54.7118 52.1657 54.9577 52.5389C55.182 52.8835 55.3628 53.0916 55.6305 53.4074L56.6288 54.7281C56.7735 54.9362 56.7807 55.1013 56.8965 55.2879C57.2365 55.3094 57.3667 55.3956 57.4463 55.0869C57.4246 55.0941 57.3378 55.1372 57.3161 55.1444C57.2944 55.1444 57.2726 55.1587 57.2509 55.1659C57.2726 55.1659 57.2944 55.1515 57.3161 55.1444C57.3378 55.1372 57.4246 55.1013 57.4463 55.0869C57.6271 55.0869 57.6271 55.0511 57.7284 54.9577L57.8369 54.7065C57.7573 54.6706 57.685 54.6132 57.6199 54.5415C57.685 54.6061 57.7573 54.6706 57.8369 54.7065Z" fill="white"/>
<path d="M48.9028 41.4571C49.7781 41.4571 50.1832 41.2417 50.5883 40.7465C50.7837 40.5096 51.2322 39.1818 51.2322 38.9952C51.2322 38.3492 50.7547 37.4018 50.4798 36.964C50.2845 36.6553 50.0603 36.4903 49.8143 36.2391C48.7364 35.1481 46.0091 36.2678 46.4215 38.6004C46.6602 39.9498 47.4921 41.4642 48.8956 41.4642L48.9028 41.4571Z" fill="white"/>
<path d="M29.8191 54.1397C29.537 53.2784 28.5532 51.5774 28.1914 50.6658C28.1191 50.4864 28.0974 50.3787 28.0251 50.2136L26.7591 46.9264C26.6216 46.1655 26.3323 45.6488 26.1008 44.9597C25.9489 44.5004 25.9272 44.5147 25.4714 44.3497C24.2995 43.9334 24.1186 43.4525 22.3607 44.0195C21.9267 44.163 21.6301 44.4071 21.1888 44.7085C21.0224 44.8234 20.9211 44.8808 20.7692 44.9813C20.1543 45.4047 19.2356 46.2158 18.8232 46.8259C18.599 47.1632 18.4471 47.235 18.1939 47.5149C17.7381 48.0245 16.0743 51.1252 15.9585 51.7711C15.8645 52.2807 15.727 52.3238 15.6475 52.7688C15.2496 54.9364 14.7938 54.9508 14.7938 57.0897H15.2568C15.8572 55.9628 16.3275 54.9221 17.087 53.8239C17.2462 53.5942 17.3041 53.5799 17.4632 53.3502C17.5862 53.1708 17.673 53.02 17.7888 52.8191L19.5901 50.3715L20.5088 49.5892C20.7982 49.338 20.6535 49.3093 21.1526 49.3093C21.1526 49.7686 21.0948 49.8476 20.9645 50.2065L20.3135 53.7234C20.2628 54.0895 20.2628 54.3694 20.2122 54.6996C19.8939 56.8743 19.9952 60.5923 20.5594 62.767C20.7403 63.4632 20.8054 64.3317 20.885 64.6834C20.9573 65.0208 21.0224 65.1643 21.1092 65.5375C21.4565 67.1166 21.6156 67.1094 21.8688 68.0209C21.9411 68.2865 22.0641 68.5521 22.1582 68.8176C22.2522 69.1047 22.2884 69.3775 22.4982 69.5641C22.6863 69.7363 22.9901 69.923 23.142 69.6287C23.4314 69.0545 23.1275 61.755 23.3012 60.9942C23.4024 60.5348 23.4097 60.5061 23.4097 59.9463C23.5399 59.9893 23.5905 59.9965 23.6918 60.2836C23.8582 60.7645 23.8365 60.9655 23.9233 61.2813L24.2561 62.1856C24.625 63.1905 24.4297 62.8029 24.7046 63.6714C24.8203 64.0446 24.9361 64.1595 25.0446 64.5686C25.2037 65.1715 25.9416 66.6859 26.2093 67.2673C26.5131 67.942 26.231 67.5831 26.7808 68.5521L27.4391 69.7507C27.5187 69.8799 27.5982 70.0019 27.6706 70.1311L29.3127 72.9662C29.5515 73.3251 29.5298 73.5045 30.0868 73.5045C30.0868 72.8514 30.0868 72.7078 29.9204 72.2054L29.2404 69.8727C29.1102 69.4421 29.0957 69.0401 28.9655 68.6023C28.7485 67.8774 27.714 64.3676 27.6778 63.8724L27.3016 62.0134C27.2293 61.7765 27.1136 61.6761 27.0774 61.4679C27.0267 61.1952 27.0919 61.1234 27.005 60.8506C26.6216 59.6448 26.911 59.9247 26.7084 58.8338C26.6578 58.5754 26.6216 58.4821 26.5999 58.2452C26.5131 57.0681 26.0646 55.9054 26.0646 55.3671V55.2594C26.0646 55.2594 26.0646 55.1015 26.0574 55.08C26.0429 54.7713 26.0501 54.6421 26.0863 54.3622C26.1369 54.0249 26.0863 53.5942 26.477 53.8096C26.9182 54.0536 27.2582 54.8646 28.0178 55.446C28.5676 55.8695 29.0668 56.1925 29.5298 56.6446C29.7034 56.8169 29.8698 56.9102 30.0868 57.0179L30.34 57.2547L30.4991 56.8672V56.8384C29.6527 56.6088 30.2387 56.7308 29.6455 56.3073C29.6238 56.2929 29.6238 56.293 29.6093 56.2858C29.6166 56.2858 29.6238 56.2929 29.6455 56.3073C30.2387 56.7236 29.6455 56.6088 30.5064 56.8313L30.774 56.2499L31.0634 55.4819L30.8753 55.647C30.4196 55.3383 29.9855 54.6996 29.8047 54.1397H29.8191Z" fill="white"/>
<path d="M24.8709 43.4094C25.8403 44.0913 27.2148 43.5673 27.8369 42.8208C28.0395 42.5768 28.3216 41.3208 28.3216 40.8327C28.3216 40.4595 28.1914 40.359 28.1263 40.0145C28.0395 39.5336 28.6906 39.067 27.9599 38.5646C27.5476 38.2775 27.0267 38.2919 26.448 38.2919C26.0573 38.2919 25.6956 38.4928 25.4135 38.6507C24.6467 39.067 23.8871 40.3518 23.8871 41.2992C23.8871 41.7586 24.0535 42.4763 24.3211 42.8711L24.8637 43.4094H24.8709Z" fill="white"/>
<path d="M78.6495 54.0176C78.6206 53.3143 78.4325 52.6468 78.3023 51.9721C78.1721 51.2543 77.9912 50.8093 77.7597 50.1203C77.644 49.7829 77.5933 49.5604 77.4703 49.2518C77.3546 48.9647 77.2389 48.6704 77.0942 48.3905L75.141 45.0099C74.8516 44.5936 74.6201 44.3998 74.2584 44.0338C73.9618 43.7395 73.3614 42.9859 72.8984 42.9859C72.6741 42.4619 71.6179 42.1318 71.0971 41.9308C70.6558 41.7585 70.0481 41.4356 69.4839 41.615C69.1005 41.7298 69.3754 41.7514 69.0136 41.8447C68.746 41.3422 68.8762 41.1197 68.1021 40.3589C67.2123 39.4833 67.48 39.5264 66.4528 39.5335C65.9608 39.5335 64.9264 39.4546 64.6442 40.2154C64.5212 40.5455 64.7238 40.8255 64.7455 41.2274C64.7961 42.182 64.4272 41.7872 64.7744 43.2802C64.8323 43.5386 65.1796 44.2276 65.4762 44.4357C65.8306 44.6869 66.3225 45.0386 66.7566 45.0028L67.7911 44.7946C69.4188 44.3496 68.746 42.9141 69.2524 42.5481C69.2885 42.9572 69.4477 43.1079 69.4115 43.6247L69.2162 44.364C68.9341 44.9956 68.5796 45.175 67.8924 45.3616C67.5234 45.4621 67.603 45.3832 67.4655 45.6846C67.7838 45.5985 67.7043 45.5769 67.8345 45.5339C67.7115 45.5698 67.7838 45.5985 67.4655 45.6846L67.2557 45.8784C66.9953 46.3593 66.6915 48.0316 66.4817 48.6561L65.4979 51.4553C65.1 52.4458 64.3187 54.2114 63.5736 54.9364C63.2625 55.2378 62.8502 55.7761 62.8574 56.2211C62.8574 56.4077 63.1106 56.7307 63.3566 56.7307C63.588 56.7307 64.5647 55.9197 64.7527 55.7259C65.1796 55.3024 65.5557 54.922 65.903 54.3981L67.3353 52.1946C67.4728 51.9434 67.574 51.5917 67.8634 51.484C68.1311 52.0438 67.8128 52.8118 67.7838 53.4076C67.7477 54.2114 67.6681 54.2473 67.6319 54.721C67.6102 54.9651 67.6464 55.2378 67.6319 55.489L66.12 63.779C66.0838 63.9082 66.0911 63.9656 66.0549 64.102C66.0115 64.2958 65.9247 64.3891 65.874 64.6188C65.8162 64.87 65.8596 65.0853 65.8234 65.3437L64.5502 69.9373C64.3983 70.5976 64.3476 70.655 64.6732 71.1359C65.3387 71.1359 65.4472 70.8273 65.6859 70.3679C65.7583 70.2315 65.8379 70.131 65.9319 69.9947C66.2719 69.4635 66.4383 68.9898 66.7349 68.4013L67.6898 66.65C67.726 66.5782 67.7621 66.4849 67.7766 66.4347L68.6519 64.2958C69.3898 62.3435 70.1277 60.3625 70.5328 58.3026C70.5979 57.9509 70.5328 58.0442 70.7354 57.8863C70.8728 58.1734 70.8005 58.6399 70.8077 59.049C70.8222 59.5802 70.9741 59.573 70.9669 60.1974C70.9669 60.8219 71.0392 61.4966 70.9596 62.121C70.9307 62.3579 70.8511 62.444 70.8222 62.6808C70.6992 63.6211 70.7932 66.7002 70.8945 67.8343C71.3937 67.8773 71.5456 67.9993 71.806 67.5041C72.1533 66.8438 72.3124 66.1117 72.5801 65.4226L74.4103 58.683C74.6635 57.4557 74.5478 57.2044 74.7503 56.1709C74.8805 55.5034 74.7937 54.0894 74.7865 53.3501C74.7865 52.7401 74.6563 52.0654 74.5188 51.4553C74.4248 51.0246 74.1065 49.9983 74.2367 49.7327C74.5116 49.8045 74.3741 49.7758 74.5767 49.9337L75.481 50.8883C76.1537 51.8213 75.9946 51.7209 76.4431 52.3955C77.2027 53.5511 77.2895 54.355 78.1214 55.5895C79.1631 55.5895 78.7146 55.2737 78.664 54.0464L78.6495 54.0176Z" fill="white"/>
<path d="M64.9771 60.4128H65.0566L64.9915 60.3267L64.9771 60.4128Z" fill="#D1416B"/>
<path fill-rule="evenodd" clip-rule="evenodd" d="M40.6703 73.0522V73.1312L40.7571 73.0666L40.6703 73.0522Z" fill="#48D4FF"/>
<path fill-rule="evenodd" clip-rule="evenodd" d="M58.1407 57.8719H58.2203L58.1552 57.7786L58.1407 57.8719Z" fill="#48D4FF"/>
<path fill-rule="evenodd" clip-rule="evenodd" d="M87.779 9.30199C79.467 0.825408 74.7576 0 63.1034 0C53.6773 0 40.7499 8.63449 39.0643 14.9076C44.9674 11.8069 50.5738 7.95263 59.5948 7.95263C85.3556 7.95263 94.4995 39.2033 75.4086 63.3985C70.352 69.808 62.1268 76.9208 53.0841 79.0095V80.0071C59.1897 79.8708 68.5507 74.3226 72.732 70.6765C84.4079 60.4916 95.1578 46.7683 95.1578 30.3176C95.1578 22.5516 91.6782 13.2855 87.779 9.30917V9.30199Z" fill="#FF88B3"/>
<path fill-rule="evenodd" clip-rule="evenodd" d="M27.0412 23.3555C39.8095 23.3555 40.9597 27.3389 47.5789 30.8057C46.0598 24.3244 35.2303 16.3933 25.5437 16.3933C11.0104 16.4005 0.520858 27.0518 0 40.4665V42.5911C0.397878 52.8548 6.57583 64.4464 21.0369 74.0355C24.2561 76.1744 28.2131 78.4999 32.5536 79.4976C30.9115 77.0572 28.8208 76.8419 26.3901 75.1767L17.4487 67.1523C8.75331 56.4794 5.92476 40.768 14.7215 29.5065C16.9279 26.6858 22.1654 23.3483 27.0412 23.3483V23.3555Z" fill="#FF88B3"/>
</g>
<defs>
<clipPath id="clip0_1_4692">
<rect width="95.1579" height="80" fill="white"/>
</clipPath>
</defs>
</svg>
