<svg width="74" height="74" viewBox="0 0 74 74" fill="none" xmlns="http://www.w3.org/2000/svg">
<path opacity="0.4" d="M67.8337 37C67.8337 52.54 56.3019 65.3975 41.3477 67.525C39.9294 67.7409 38.4803 67.8334 37.0003 67.8334C28.4903 67.8334 20.782 64.38 15.2011 58.7992C9.6203 53.2184 6.16699 45.51 6.16699 37C6.16699 19.98 19.9803 6.16669 37.0003 6.16669C45.5103 6.16669 53.2187 9.62002 58.7995 15.2009C64.3804 20.7817 67.8337 28.49 67.8337 37Z" fill="#07B3E8"/>
<path d="M45.7255 31.5425L38.0787 39.1892L58.213 59.3234C57.103 60.4025 55.9004 61.3892 54.6362 62.2834L34.8104 42.4575L27.1947 50.0734L42.9813 65.8909C43.3205 66.23 43.5364 66.6617 43.6289 67.0934C43.6289 67.0934 43.6289 67.0934 43.6289 67.1242C42.8889 67.2784 42.1179 67.4325 41.3471 67.525C40.3604 67.6792 39.3738 67.7717 38.3563 67.8025L23.9263 53.3417L16.8963 60.3717C16.3104 59.8784 15.7555 59.3542 15.2005 58.7992C14.6455 58.2442 14.1213 57.6892 13.6279 57.1034L57.103 13.6284C57.6889 14.1217 58.2438 14.6459 58.7988 15.2009C59.3538 15.7559 59.878 16.3109 60.3714 16.8967L48.9939 28.2742L66.538 45.8184C66.0447 47.4525 65.4279 48.9942 64.6879 50.505L45.7255 31.5425Z" fill="#07B3E8"/>
</svg>
