<svg width="74" height="74" viewBox="0 0 74 74" fill="none" xmlns="http://www.w3.org/2000/svg">
<path opacity="0.4" d="M67.8327 37C67.8327 41.0391 67.0618 44.924 65.6127 48.4699C63.6085 47.0824 61.1727 46.25 58.5827 46.25C55.6844 46.25 53.0019 47.2675 50.8744 48.9633C48.0377 51.2141 46.2494 54.6983 46.2494 58.5833C46.2494 60.8958 46.8968 63.085 48.0376 64.935C48.161 65.1508 48.3152 65.3667 48.5002 65.5825C44.9544 67.0317 41.0694 67.8333 36.9994 67.8333C19.9794 67.8333 6.16602 54.02 6.16602 37C6.16602 19.98 19.9794 6.16663 36.9994 6.16663C54.0194 6.16663 67.8327 19.98 67.8327 37Z" fill="#07B3E8"/>
<path d="M28.9219 37.0001V32.7142C28.9219 27.4109 32.6835 25.2217 37.2777 27.8733L40.9777 30.0008L44.6777 32.1284C49.2718 34.78 49.2718 39.1275 44.6777 41.7792L40.9777 43.9067L37.2777 46.0342C32.6835 48.6859 28.9219 46.5275 28.9219 41.1934V37.0001Z" fill="#07B3E8"/>
<path d="M58.5833 46.25C55.685 46.25 53.0025 47.2675 50.875 48.9633C48.0383 51.2142 46.25 54.6983 46.25 58.5833C46.25 60.8958 46.8975 63.085 48.0383 64.935C50.1658 68.5117 54.0817 70.9167 58.5833 70.9167C61.6975 70.9167 64.5342 69.7758 66.6925 67.8333C67.6483 67.0317 68.4809 66.045 69.1284 64.935C70.2692 63.085 70.9167 60.8958 70.9167 58.5833C70.9167 51.7692 65.3975 46.25 58.5833 46.25ZM63.2083 60.8341H60.8958V63.2392C60.8958 64.5034 59.8475 65.5517 58.5833 65.5517C57.3192 65.5517 56.2708 64.5034 56.2708 63.2392V60.8341H53.9583C52.6942 60.8341 51.6458 59.7858 51.6458 58.5216C51.6458 57.2574 52.6942 56.2091 53.9583 56.2091H56.2708V54.0201C56.2708 52.7559 57.3192 51.7076 58.5833 51.7076C59.8475 51.7076 60.8958 52.7559 60.8958 54.0201V56.2091H63.2083C64.4725 56.2091 65.5208 57.2574 65.5208 58.5216C65.5208 59.7858 64.4725 60.8341 63.2083 60.8341Z" fill="#07B3E8"/>
</svg>
