<svg width="74" height="74" viewBox="0 0 74 74" fill="none" xmlns="http://www.w3.org/2000/svg">
<path opacity="0.4" d="M50.8443 67.8334H23.1559C12.3334 67.8334 9.99009 61.6359 10.8843 54.0508L13.6592 30.9259C14.3684 24.9442 15.4167 20.0417 25.9001 20.0417H48.1001C58.5834 20.0417 59.6318 24.9442 60.3409 30.9259L62.6534 50.1967L63.1159 54.0508C63.1468 54.2975 63.1776 54.5442 63.2084 54.7908C63.8559 62.0367 61.3276 67.8334 50.8443 67.8334Z" fill="#07B3E8"/>
<path d="M49.3337 26.9792C48.0695 26.9792 47.0212 25.9309 47.0212 24.6667V13.875C47.0212 10.545 44.9553 8.47919 41.6253 8.47919H32.3753C29.0453 8.47919 26.9795 10.545 26.9795 13.875V24.6667C26.9795 25.9309 25.9312 26.9792 24.667 26.9792C23.4028 26.9792 22.3545 25.9309 22.3545 24.6667V13.875C22.3545 7.98585 26.4862 3.85419 32.3753 3.85419H41.6253C47.5145 3.85419 51.6462 7.98585 51.6462 13.875V24.6667C51.6462 25.9309 50.5978 26.9792 49.3337 26.9792Z" fill="#07B3E8"/>
<path d="M63.2087 54.7908C63.1162 54.8216 63.0237 54.8217 62.9312 54.8217H24.667C23.4028 54.8217 22.3545 53.7733 22.3545 52.5092C22.3545 51.2142 23.4028 50.1967 24.667 50.1967H62.6537L63.1162 54.0508C63.147 54.2975 63.1778 54.5441 63.2087 54.7908Z" fill="#07B3E8"/>
</svg>
