<svg width="20" height="20" viewBox="0 0 20 20" fill="none" xmlns="http://www.w3.org/2000/svg">
<path d="M9.5487 11.4421C10.842 11.4421 11.8904 10.3937 11.8904 9.10045C11.8904 7.80719 10.842 6.75879 9.5487 6.75879C8.25543 6.75879 7.20703 7.80719 7.20703 9.10045C7.20703 10.3937 8.25543 11.4421 9.5487 11.4421Z" stroke="#D1416B" stroke-width="1.5" stroke-linecap="round" stroke-linejoin="round"/>
<path d="M13.8746 16.8336C13.8746 14.892 11.9413 13.3086 9.54961 13.3086C7.15794 13.3086 5.22461 14.8836 5.22461 16.8336" stroke="#D1416B" stroke-width="1.5" stroke-linecap="round" stroke-linejoin="round"/>
<path d="M17.4993 10.4167C17.4993 14.7917 13.9577 18.3333 9.58268 18.3333C5.20768 18.3333 1.66602 14.7917 1.66602 10.4167C1.66602 6.04167 5.20768 2.5 9.58268 2.5C10.6743 2.5 11.716 2.71666 12.666 3.11666C12.5577 3.44999 12.4993 3.8 12.4993 4.16667C12.4993 4.79167 12.6744 5.38333 12.9827 5.88333C13.1494 6.16666 13.366 6.42498 13.616 6.64164C14.1993 7.17498 14.9743 7.5 15.8327 7.5C16.1993 7.5 16.5493 7.44165 16.8743 7.32498C17.2743 8.27498 17.4993 9.325 17.4993 10.4167Z" stroke="#D1416B" stroke-width="1.5" stroke-linecap="round" stroke-linejoin="round"/>
<path d="M19.1667 4.16634C19.1667 4.43301 19.1333 4.69133 19.0667 4.94133C18.9917 5.27467 18.8583 5.59967 18.6833 5.88301C18.2833 6.55801 17.6417 7.08299 16.875 7.32466C16.55 7.44132 16.2 7.49967 15.8333 7.49967C14.975 7.49967 14.2 7.17465 13.6167 6.64132C13.3667 6.42465 13.15 6.16634 12.9833 5.88301C12.675 5.38301 12.5 4.79134 12.5 4.16634C12.5 3.79967 12.5583 3.44967 12.6667 3.11633C12.825 2.633 13.0917 2.19969 13.4417 1.84136C14.05 1.21636 14.9 0.833008 15.8333 0.833008C16.8167 0.833008 17.7083 1.25802 18.3083 1.94136C18.8417 2.53302 19.1667 3.31634 19.1667 4.16634Z" stroke="#D1416B" stroke-width="1.5" stroke-miterlimit="10" stroke-linecap="round" stroke-linejoin="round"/>
<path d="M17.0751 4.15039H14.5918" stroke="#D1416B" stroke-width="1.5" stroke-miterlimit="10" stroke-linecap="round" stroke-linejoin="round"/>
<path d="M15.834 2.93359V5.42525" stroke="#D1416B" stroke-width="1.5" stroke-miterlimit="10" stroke-linecap="round" stroke-linejoin="round"/>
</svg>
