<svg width="74" height="74" viewBox="0 0 74 74" fill="none" xmlns="http://www.w3.org/2000/svg">
<path d="M43.5678 34.965C44.7703 29.9084 40.3611 25.499 35.3045 26.7015C32.9303 27.2874 30.9878 29.23 30.402 31.6041C29.1995 36.6608 33.6086 41.0699 38.6653 39.8674C41.0703 39.2816 43.0128 37.3392 43.5678 34.965Z" fill="#07B3E8"/>
<path opacity="0.4" d="M18.5616 55.4074C18.0066 55.4074 17.4208 55.1917 16.9891 54.7909C11.0074 49.2409 7.58496 41.4091 7.58496 33.2691C7.58496 17.0508 20.7816 3.85419 36.9999 3.85419C53.2183 3.85419 66.4149 17.0508 66.4149 33.2691C66.4149 41.4708 63.1158 49.0558 57.1341 54.6983C56.2091 55.5617 54.7291 55.5309 53.8658 54.6059C53.0024 53.6809 53.0333 52.2009 53.9583 51.3376C59.0149 46.5893 61.7899 40.2066 61.7899 33.3C61.7899 19.6408 50.6591 8.51005 36.9999 8.51005C23.3408 8.51005 12.21 19.6408 12.21 33.3C12.21 40.2683 15.0158 46.6817 20.1341 51.43C21.0591 52.2933 21.1208 53.7733 20.2575 54.6983C19.795 55.1608 19.1783 55.4074 18.5616 55.4074Z" fill="#07B3E8"/>
<path opacity="0.4" d="M49.3335 47.175C48.7785 47.175 48.1927 46.9591 47.761 46.5583C46.836 45.6949 46.7744 44.2149 47.6685 43.2899C50.2277 40.5766 51.646 37 51.646 33.3C51.646 25.2216 45.0785 18.685 37.031 18.685C28.9835 18.685 22.416 25.2525 22.416 33.3C22.416 37.0308 23.8343 40.5766 26.3935 43.2899C27.2568 44.2149 27.226 45.6949 26.301 46.5583C25.376 47.4524 23.896 47.3909 23.0327 46.4659C19.6718 42.8892 17.791 38.2025 17.791 33.3C17.791 22.6933 26.4243 14.06 37.031 14.06C47.6377 14.06 56.271 22.6933 56.271 33.3C56.271 38.2025 54.421 42.8892 51.0293 46.4659C50.5668 46.9284 49.9502 47.175 49.3335 47.175Z" fill="#07B3E8"/>
<path d="M31.7586 51.3682L27.3186 56.8875C23.8036 61.2967 26.9177 67.8024 32.5602 67.8024H41.4094C47.0519 67.8024 50.1969 61.2658 46.6511 56.8875L42.2111 51.3682C39.5594 48.0074 34.4411 48.0074 31.7586 51.3682Z" fill="#07B3E8"/>
</svg>
