<svg width="74" height="74" viewBox="0 0 74 74" fill="none" xmlns="http://www.w3.org/2000/svg">
<path opacity="0.4" d="M30.3089 17.1742L19.6097 23.68L14.738 15.6634C12.9497 12.7343 13.8747 8.84914 16.8347 7.0608C19.7639 5.27247 23.6489 6.19745 25.4372 9.15745L30.3089 17.1742Z" fill="#07B3E8"/>
<path opacity="0.4" d="M59.4164 54.3901L59.3855 54.4209L55.3772 56.8567L51.3689 59.2924L47.3605 61.7284L43.3522 64.1642L39.3438 66.5999H39.313C35.2739 69.0666 30.2788 67.5866 28.213 63.3625L21.7997 50.2892C19.5489 45.7258 20.258 40.1758 23.7114 36.3833C24.513 35.52 25.438 34.7183 26.5172 34.0708L36.4147 28.0583C37.5247 27.4108 38.6347 26.9176 39.7755 26.6401C44.7088 25.2834 49.9505 27.1951 52.9722 31.2959L61.6364 43.0125C64.4422 46.8667 63.4555 51.9542 59.4164 54.3901Z" fill="#07B3E8"/>
<path d="M39.7754 26.7017C38.6346 26.9792 37.5246 27.4418 36.4146 28.1201L26.5171 34.1326C25.4071 34.7801 24.513 35.5818 23.7113 36.4451C23.6805 36.4451 23.6804 36.4143 23.6804 36.4143L18.5929 27.9968C17.6988 26.5168 18.1613 24.5743 19.6104 23.711L30.3096 17.2052C31.7896 16.311 33.7013 16.7734 34.5955 18.2225L39.7138 26.6402C39.7446 26.671 39.7754 26.6709 39.7754 26.7017Z" fill="#07B3E8"/>
<path d="M51.3683 59.2924L47.36 61.7284L42.2108 53.2492C41.5633 52.1392 41.9025 50.7208 42.9816 50.0116C44.1225 49.3641 45.5408 49.7033 46.2191 50.7824L51.3683 59.2924Z" fill="#07B3E8"/>
<path d="M43.3521 64.195L39.3438 66.6308L34.1946 58.1516C33.5163 57.0416 33.8554 55.6233 34.9654 54.9142C36.0754 54.2667 37.4938 54.6058 38.203 55.685L43.3521 64.195Z" fill="#07B3E8"/>
<path d="M59.3859 54.4209L55.3776 56.8566L50.2284 48.3775C49.5809 47.2675 49.92 45.8492 50.9992 45.14C52.14 44.4925 53.5584 44.8317 54.2367 45.9108L59.3859 54.4209Z" fill="#07B3E8"/>
</svg>
