<svg width="74" height="74" viewBox="0 0 74 74" fill="none" xmlns="http://www.w3.org/2000/svg">
<path d="M48.0688 5.39581C38.9113 5.39581 31.4805 12.8267 31.4805 21.9842C31.4805 31.1417 38.9113 38.5725 48.0688 38.5725C57.2263 38.5725 64.6572 31.1417 64.6572 21.9842C64.6572 12.8267 57.2263 5.39581 48.0688 5.39581Z" fill="#07B3E8"/>
<path opacity="0.4" d="M19.6102 40.1758C13.9677 40.1758 9.34277 44.77 9.34277 50.4433C9.34277 56.1167 13.9369 60.7109 19.6102 60.7109C25.2527 60.7109 29.8778 56.1167 29.8778 50.4433C29.8778 44.77 25.2527 40.1758 19.6102 40.1758Z" fill="#07B3E8"/>
<path opacity="0.4" d="M51.2452 51.245C46.466 51.245 42.5811 55.13 42.5811 59.9092C42.5811 64.6883 46.466 68.5734 51.2452 68.5734C56.0244 68.5734 59.9094 64.6883 59.9094 59.9092C59.9094 55.13 56.0244 51.245 51.2452 51.245Z" fill="#07B3E8"/>
</svg>
