<svg width="74" height="74" viewBox="0 0 74 74" fill="none" xmlns="http://www.w3.org/2000/svg">
<path d="M51.6457 10.9767V6.16669C51.6457 4.90252 50.5974 3.85419 49.3332 3.85419C48.069 3.85419 47.0207 4.90252 47.0207 6.16669V10.7917H26.9791V6.16669C26.9791 4.90252 25.9307 3.85419 24.6666 3.85419C23.4024 3.85419 22.3541 4.90252 22.3541 6.16669V10.9767C14.0291 11.7475 9.98989 16.7117 9.37323 24.0808C9.31156 24.975 10.0516 25.715 10.9149 25.715H63.0849C63.979 25.715 64.7191 24.9442 64.6265 24.0808C64.0099 16.7117 59.9707 11.7475 51.6457 10.9767Z" fill="#07B3E8"/>
<path opacity="0.4" d="M64.75 33.4233V38.7883C64.75 40.6691 63.085 42.1183 61.235 41.81C60.3717 41.6867 59.4775 41.5942 58.5833 41.5942C49.2408 41.5942 41.625 49.21 41.625 58.5525C41.625 59.9708 42.18 61.9442 42.7658 63.7326C43.4442 65.7367 41.9642 67.8025 39.8367 67.8025H24.6667C13.875 67.8025 9.25 61.6358 9.25 52.3858V33.3925C9.25 31.6966 10.6375 30.3091 12.3333 30.3091H61.6667C63.3625 30.34 64.75 31.7275 64.75 33.4233Z" fill="#07B3E8"/>
<path d="M58.5833 46.25C51.7692 46.25 46.25 51.7692 46.25 58.5833C46.25 60.8958 46.8975 63.085 48.0383 64.935C50.1658 68.5117 54.0817 70.9167 58.5833 70.9167C63.085 70.9167 67.0008 68.5117 69.1283 64.935C70.2692 63.085 70.9167 60.8958 70.9167 58.5833C70.9167 51.7692 65.3975 46.25 58.5833 46.25ZM64.9658 57.2575L58.3983 63.3317C57.9667 63.7325 57.3808 63.9483 56.8258 63.9483C56.24 63.9483 55.6542 63.7325 55.1917 63.27L52.1392 60.2175C51.245 59.3233 51.245 57.8433 52.1392 56.9492C53.0333 56.055 54.5133 56.055 55.4075 56.9492L56.8875 58.4292L61.8208 53.8658C62.7458 53.0025 64.2258 53.0642 65.0892 53.9892C65.9525 54.9142 65.8908 56.3634 64.9658 57.2575Z" fill="#07B3E8"/>
<path d="M26.2083 46.25C25.4067 46.25 24.605 45.9108 24.0192 45.3558C23.4642 44.77 23.125 43.9684 23.125 43.1667C23.125 42.365 23.4642 41.5634 24.0192 40.9776C24.7283 40.2684 25.8075 39.9292 26.825 40.145C27.01 40.1758 27.195 40.2375 27.38 40.33C27.565 40.3917 27.75 40.4842 27.935 40.6076C28.0892 40.7309 28.2433 40.8542 28.3975 40.9776C28.9525 41.5634 29.2917 42.365 29.2917 43.1667C29.2917 43.9684 28.9525 44.77 28.3975 45.3558C28.2433 45.4792 28.0892 45.6025 27.935 45.7258C27.75 45.8492 27.565 45.9417 27.38 46.0034C27.195 46.0959 27.01 46.1576 26.825 46.1884C26.6092 46.2192 26.3933 46.25 26.2083 46.25Z" fill="#07B3E8"/>
<path d="M36.9998 46.25C36.1982 46.25 35.3965 45.9108 34.8107 45.3558C34.2557 44.77 33.9165 43.9683 33.9165 43.1667C33.9165 42.365 34.2557 41.5633 34.8107 40.9775C35.9823 39.8367 38.0482 39.8367 39.189 40.9775C39.744 41.5633 40.0832 42.365 40.0832 43.1667C40.0832 43.9683 39.744 44.77 39.189 45.3558C38.6032 45.9108 37.8015 46.25 36.9998 46.25Z" fill="#07B3E8"/>
<path d="M26.2083 57.0417C25.4067 57.0417 24.605 56.7025 24.0192 56.1475C23.4642 55.5617 23.125 54.76 23.125 53.9583C23.125 53.1567 23.4642 52.355 24.0192 51.7692C24.3275 51.4917 24.6358 51.2758 25.0367 51.1216C26.1775 50.6283 27.5342 50.9059 28.3975 51.7692C28.9525 52.355 29.2917 53.1567 29.2917 53.9583C29.2917 54.76 28.9525 55.5617 28.3975 56.1475C27.8117 56.7025 27.01 57.0417 26.2083 57.0417Z" fill="#07B3E8"/>
</svg>
