<svg width="74" height="74" viewBox="0 0 74 74" fill="none" xmlns="http://www.w3.org/2000/svg">
<path opacity="0.4" d="M68.3886 42.1183C67.9261 37.0308 66.5694 31.6041 56.6719 31.6041H17.3286C7.43106 31.6041 6.10522 37.0308 5.61189 42.1183L3.88522 60.8958C3.66939 63.2391 4.44022 65.5825 6.04356 67.34C7.67772 69.1283 9.99022 70.1458 12.4569 70.1458H18.2536C23.2486 70.1458 24.2044 67.2783 24.8211 65.3975L25.4377 63.5475C26.1469 61.42 26.3319 60.8958 29.1069 60.8958H44.8936C47.6686 60.8958 47.7611 61.2041 48.5627 63.5475L49.1794 65.3975C49.7961 67.2783 50.7519 70.1458 55.7469 70.1458H61.5436C63.9794 70.1458 66.3227 69.1283 67.9569 67.34C69.5602 65.5825 70.3311 63.2391 70.1152 60.8958L68.3886 42.1183Z" fill="#07B3E8"/>
<path d="M64.75 22.3542H61.6667C61.6358 22.3542 61.6358 22.3542 61.605 22.3542L60.4333 16.7733C59.3233 11.3775 57.0108 6.41333 47.8225 6.41333H39.3125H34.6875H26.1775C16.9892 6.41333 14.6767 11.3775 13.5667 16.7733L12.395 22.3542C12.3642 22.3542 12.3642 22.3542 12.3333 22.3542H9.25C7.98583 22.3542 6.9375 23.4025 6.9375 24.6667C6.9375 25.9308 7.98583 26.9792 9.25 26.9792H11.4392L10.1442 33.1458C11.8092 32.19 14.1217 31.6042 17.3283 31.6042H56.6717C59.8783 31.6042 62.1908 32.19 63.8558 33.1458L62.5608 26.9792H64.75C66.0142 26.9792 67.0625 25.9308 67.0625 24.6667C67.0625 23.4025 66.0142 22.3542 64.75 22.3542Z" fill="#07B3E8"/>
<path d="M27.75 48.5625H18.5C17.2358 48.5625 16.1875 47.5142 16.1875 46.25C16.1875 44.9858 17.2358 43.9375 18.5 43.9375H27.75C29.0142 43.9375 30.0625 44.9858 30.0625 46.25C30.0625 47.5142 29.0142 48.5625 27.75 48.5625Z" fill="#07B3E8"/>
<path d="M55.5 48.5625H46.25C44.9858 48.5625 43.9375 47.5142 43.9375 46.25C43.9375 44.9858 44.9858 43.9375 46.25 43.9375H55.5C56.7642 43.9375 57.8125 44.9858 57.8125 46.25C57.8125 47.5142 56.7642 48.5625 55.5 48.5625Z" fill="#07B3E8"/>
</svg>
