<svg width="20" height="20" viewBox="0 0 20 20" fill="none" xmlns="http://www.w3.org/2000/svg">
<path d="M10.0003 1.66602C5.40866 1.66602 1.66699 5.40768 1.66699 9.99935C1.66699 14.591 5.40866 18.3327 10.0003 18.3327C14.592 18.3327 18.3337 14.591 18.3337 9.99935C18.3337 5.40768 14.592 1.66602 10.0003 1.66602ZM13.6253 12.9743C13.5087 13.1743 13.3003 13.2827 13.0837 13.2827C12.9753 13.2827 12.867 13.2577 12.767 13.191L10.1837 11.6493C9.54199 11.266 9.06699 10.4243 9.06699 9.68268V6.26602C9.06699 5.92435 9.35033 5.64102 9.69199 5.64102C10.0337 5.64102 10.317 5.92435 10.317 6.26602V9.68268C10.317 9.98268 10.567 10.4243 10.8253 10.5743L13.4087 12.116C13.7087 12.291 13.8087 12.6743 13.6253 12.9743Z" fill="white"/>
</svg>
