<svg width="74" height="74" viewBox="0 0 74 74" fill="none" xmlns="http://www.w3.org/2000/svg">
<path opacity="0.4" d="M52.7248 6.16669H39.7748C29.1373 6.16669 24.8206 10.3909 24.6973 20.8125H34.2248C47.1748 20.8125 53.1873 26.825 53.1873 39.775V49.3025C63.6089 49.1792 67.8331 44.8625 67.8331 34.225V21.275C67.8331 10.4834 63.5164 6.16669 52.7248 6.16669Z" fill="#07B3E8"/>
<path d="M34.2248 24.6667H21.2748C10.4832 24.6667 6.1665 28.9834 6.1665 39.775V52.725C6.1665 63.5167 10.4832 67.8334 21.2748 67.8334H34.2248C45.0165 67.8334 49.3332 63.5167 49.3332 52.725V39.775C49.3332 28.9834 45.0165 24.6667 34.2248 24.6667ZM37.894 42.0875L26.4548 53.5267C26.0232 53.9584 25.4682 54.1742 24.8823 54.1742C24.2965 54.1742 23.7415 53.9584 23.3098 53.5267L17.5748 47.7917C16.7115 46.9284 16.7115 45.5409 17.5748 44.6775C18.4382 43.8142 19.8257 43.8142 20.689 44.6775L24.8515 48.84L34.749 38.9425C35.6123 38.0792 36.9998 38.0792 37.8632 38.9425C38.7265 39.8059 38.7573 41.2242 37.894 42.0875Z" fill="#07B3E8"/>
</svg>
