<svg width="96" height="96" viewBox="0 0 96 96" fill="none" xmlns="http://www.w3.org/2000/svg">
<path d="M88.0003 22.84V61.16C88.0003 72.2 79.0403 81.16 68.0003 81.16H28.0003C26.1603 81.16 24.4003 80.92 22.6803 80.44C20.2003 79.76 19.4003 76.6 21.2403 74.76L63.7603 32.24C64.6403 31.36 65.9603 31.16 67.2003 31.4C68.4803 31.64 69.8803 31.28 70.8803 30.32L81.1603 20C84.9203 16.24 88.0003 17.48 88.0003 22.84Z" fill="#07B3E8"/>
<path opacity="0.4" d="M58.56 29.44L16.68 71.32C14.76 73.24 11.56 72.76 10.28 70.36C8.8 67.64 8 64.48 8 61.16V22.84C8 17.48 11.08 16.24 14.84 20L25.16 30.36C26.72 31.88 29.28 31.88 30.84 30.36L45.16 16C46.72 14.44 49.28 14.44 50.84 16L58.6 23.76C60.12 25.32 60.12 27.88 58.56 29.44Z" fill="#07B3E8"/>
</svg>
