<svg width="74" height="74" viewBox="0 0 74 74" fill="none" xmlns="http://www.w3.org/2000/svg">
<path d="M67.8327 17.6058V47.1442C67.8327 55.6542 60.926 62.5608 52.416 62.5608H21.5827C20.1643 62.5608 18.8077 62.3758 17.4818 62.0058C15.5702 61.4817 14.9535 59.0458 16.3718 57.6275L49.1477 24.8517C49.826 24.1733 50.8435 24.0192 51.7993 24.2042C52.786 24.3892 53.8652 24.1117 54.636 23.3717L62.5602 15.4167C65.4585 12.5183 67.8327 13.4742 67.8327 17.6058Z" fill="#07B3E8"/>
<path opacity="0.4" d="M45.1394 22.6934L12.8568 54.9759C11.3768 56.4559 8.91018 56.0859 7.92352 54.2359C6.78268 52.1392 6.16602 49.7034 6.16602 47.1442V17.6059C6.16602 13.4742 8.54018 12.5184 11.4385 15.4167L19.3935 23.4026C20.596 24.5742 22.5693 24.5742 23.7718 23.4026L34.8102 12.3334C36.0127 11.1309 37.986 11.1309 39.1885 12.3334L45.1702 18.3151C46.3418 19.5176 46.3419 21.4909 45.1394 22.6934Z" fill="#07B3E8"/>
</svg>
