<svg width="90" height="90" viewBox="0 0 90 90" fill="none" xmlns="http://www.w3.org/2000/svg">
<path opacity="0.4" d="M67.65 50.8125C66.075 52.35 65.175 54.5625 65.4 56.925C65.7375 60.975 69.45 63.9375 73.5 63.9375H80.625V68.4C80.625 76.1625 74.2875 82.5 66.525 82.5H23.475C15.7125 82.5 9.375 76.1625 9.375 68.4V43.1625C9.375 35.4 15.7125 29.0625 23.475 29.0625H66.525C74.2875 29.0625 80.625 35.4 80.625 43.1625V48.5625H73.05C70.95 48.5625 69.0375 49.3875 67.65 50.8125Z" fill="#07B3E8"/>
<path d="M55.6875 14.8125V29.0624H23.475C15.7125 29.0624 9.375 35.4 9.375 43.1625V29.4C9.375 24.9375 12.1125 20.9624 16.275 19.3874L46.05 8.13736C50.7 6.41236 55.6875 9.82497 55.6875 14.8125Z" fill="#07B3E8"/>
<path d="M84.5999 52.3873V60.1126C84.5999 62.1751 82.9499 63.8624 80.8499 63.9374H73.4999C69.4499 63.9374 65.7374 60.9749 65.3999 56.9249C65.1749 54.5624 66.0749 52.3499 67.6499 50.8124C69.0374 49.3874 70.9499 48.5625 73.0499 48.5625H80.8499C82.9499 48.6375 84.5999 50.3248 84.5999 52.3873Z" fill="#07B3E8"/>
<path d="M52.5 47.8125H26.25C24.7125 47.8125 23.4375 46.5375 23.4375 45C23.4375 43.4625 24.7125 42.1875 26.25 42.1875H52.5C54.0375 42.1875 55.3125 43.4625 55.3125 45C55.3125 46.5375 54.0375 47.8125 52.5 47.8125Z" fill="#07B3E8"/>
</svg>
