<svg width="18" height="18" viewBox="0 0 18 18" fill="none" xmlns="http://www.w3.org/2000/svg">
<path d="M11.6849 8.99945C11.6849 10.4845 10.4849 11.6845 8.99994 11.6845C7.51494 11.6845 6.31494 10.4845 6.31494 8.99945C6.31494 7.51445 7.51494 6.31445 8.99994 6.31445C10.4849 6.31445 11.6849 7.51445 11.6849 8.99945Z" stroke="#BBBDC3" stroke-width="1.5" stroke-linecap="round" stroke-linejoin="round"/>
<path d="M8.99988 15.2016C11.6474 15.2016 14.1149 13.6416 15.8324 10.9416C16.5074 9.88406 16.5074 8.10656 15.8324 7.04906C14.1149 4.34906 11.6474 2.78906 8.99988 2.78906C6.35238 2.78906 3.88488 4.34906 2.16738 7.04906C1.49238 8.10656 1.49238 9.88406 2.16738 10.9416C3.88488 13.6416 6.35238 15.2016 8.99988 15.2016Z" stroke="#BBBDC3" stroke-width="1.5" stroke-linecap="round" stroke-linejoin="round"/>
</svg>
