<svg width="74" height="74" viewBox="0 0 74 74" fill="none" xmlns="http://www.w3.org/2000/svg">
<path d="M40.6694 50.2275H33.3311V54.6058H40.6694V50.2275Z" fill="#07B3E8"/>
<path d="M24.5126 8.35585C24.5126 9.58919 23.5259 10.5759 22.3234 10.5759H19.3943C14.1218 10.5759 9.83593 14.8617 9.83593 20.1034V38.2334C7.21509 39.5592 5.42676 42.2725 5.42676 45.4175V20.1034C5.42676 12.4259 11.6859 6.16669 19.3943 6.16669H22.3234C23.5259 6.16669 24.5126 7.15335 24.5126 8.35585Z" fill="#07B3E8"/>
<path d="M68.5731 20.1034V45.4175C68.5731 42.2725 66.7848 39.5592 64.164 38.2334V20.1034C64.164 14.8617 59.8781 10.5759 54.6056 10.5759H51.6765C50.474 10.5759 49.4873 9.58919 49.4873 8.35585C49.4873 7.15335 50.474 6.16669 51.6765 6.16669H54.6056C62.314 6.16669 68.5731 12.4259 68.5731 20.1034Z" fill="#07B3E8"/>
<path opacity="0.4" d="M33.3309 45.4175V59.755C33.3309 64.2258 29.6926 67.8333 25.2526 67.8333H13.5051C9.06509 67.8333 5.42676 64.2258 5.42676 59.755V45.4175C5.42676 42.2725 7.21509 39.5592 9.83592 38.2333C10.9459 37.6475 12.1793 37.3392 13.5051 37.3392H25.2526C29.6926 37.3392 33.3309 40.9467 33.3309 45.4175Z" fill="#07B3E8"/>
<path opacity="0.4" d="M68.5731 45.4175V59.755C68.5731 64.2258 64.9348 67.8333 60.4948 67.8333H48.7473C44.3073 67.8333 40.6689 64.2258 40.6689 59.755V45.4175C40.6689 40.9467 44.3073 37.3392 48.7473 37.3392H60.4948C61.8206 37.3392 63.0539 37.6475 64.1639 38.2333C66.7848 39.5592 68.5731 42.2725 68.5731 45.4175Z" fill="#07B3E8"/>
</svg>
