<svg width="84" height="17" viewBox="0 0 84 17" fill="none" xmlns="http://www.w3.org/2000/svg">
<mask id="mask0_102_8283" style="mask-type:alpha" maskUnits="userSpaceOnUse" x="0" y="0" width="84" height="17">
<rect width="84" height="16.6887" fill="#D9D9D9"/>
</mask>
<g mask="url(#mask0_102_8283)">
<path fill-rule="evenodd" clip-rule="evenodd" d="M6.7371 3.69007H0.1321C0.0440333 3.69007 0 3.7341 0 3.82217V12.9811C0 13.0692 0.0440333 13.1132 0.1321 13.1132H2.3778C2.46586 13.1132 2.50989 13.0692 2.50989 12.9811V5.89173H5.9885C6.03256 5.89173 6.07656 5.8477 6.12062 5.80367C6.3848 5.1872 6.64904 4.5267 6.91322 3.8662V3.7341C6.82516 3.7341 6.78111 3.69007 6.7371 3.69007ZM25.3191 10.9115C25.3191 10.8675 25.2751 10.8235 25.2311 10.8235H25.0989C24.5706 10.9996 23.5578 11.2198 22.8093 11.2198C21.268 11.2198 20.5195 10.8235 20.5195 8.40162C20.5195 6.5082 20.7397 5.5835 22.8093 5.5835C23.3817 5.5835 23.9541 5.67156 24.6146 5.89173C24.6586 5.89173 24.7467 5.89173 24.7467 5.80367C25.0109 5.3193 25.3191 4.74687 25.6714 3.9983V3.8662C25.6714 3.82217 25.6274 3.77814 25.5833 3.77814C24.7026 3.51394 23.6018 3.38184 22.6331 3.38184C19.3747 3.38184 17.9215 4.87896 17.9215 8.35759C17.9215 11.8803 19.3747 13.4214 22.6331 13.4214C23.4257 13.4214 25.0549 13.2453 25.8475 12.9371C25.9356 12.893 25.9356 12.849 25.9356 12.8049C26.0237 12.7609 25.3191 10.9115 25.3191 10.9115ZM11.889 3.42587C8.67455 3.42587 7.39759 4.7909 7.39759 8.40162C7.39759 12.0564 8.6305 13.4214 11.889 13.4214C15.1474 13.4214 16.4244 12.0123 16.4244 8.40162C16.4244 4.83493 15.1474 3.42587 11.889 3.42587ZM11.889 11.3078C10.3918 11.3078 9.95152 10.9115 9.95152 8.44566C9.95152 5.80367 10.4359 5.5835 11.889 5.5835C13.3421 5.5835 13.8705 5.80367 13.8705 8.44566C13.8705 10.9115 13.3861 11.3078 11.889 11.3078Z" fill="#0065B1"/>
<path fill-rule="evenodd" clip-rule="evenodd" d="M73.9755 3.68991H67.3707C67.2828 3.68991 67.2388 3.73395 67.2388 3.82201V12.9809C67.2388 13.069 67.2828 13.113 67.3707 13.113H69.6164C69.7043 13.113 69.7483 13.069 69.7483 12.9809V5.89157H73.2273C73.2712 5.89157 73.3591 5.84754 73.3591 5.80351C73.6234 5.18704 73.8876 4.52655 74.1519 3.86605V3.73395C74.0195 3.73395 74.0195 3.68991 73.9755 3.68991ZM65.6094 3.73395H63.3198C63.2758 3.73395 63.1874 3.77798 63.1874 3.82201C62.8352 5.23108 62.131 7.60887 61.1179 10.0747L58.8283 3.77798C58.8283 3.73395 58.7404 3.68991 58.6959 3.68991H56.4062C56.3622 3.68991 56.3183 3.73395 56.2743 3.73395C56.2304 3.77798 56.2304 3.82201 56.2743 3.86605L59.7089 13.2011C59.3567 13.9056 59.0046 14.478 58.7404 15.0945C58.5201 15.4908 58.2998 15.9311 58.0355 16.3715C57.9916 16.4155 58.0355 16.4596 58.0355 16.5036C58.0795 16.5476 58.1234 16.5917 58.1679 16.5917H60.6334C60.6774 16.5917 60.7219 16.5476 60.7658 16.5036C61.1619 15.711 61.7343 14.5661 62.2188 13.4213C63.6719 9.98666 64.8607 6.81628 65.6973 3.86605C65.6973 3.82201 65.6973 3.77798 65.6534 3.73395H65.6094ZM44.3413 10.9114C44.3413 10.8673 44.2973 10.8233 44.2532 10.8233H44.1211C43.5927 10.9994 42.5799 11.2196 41.8314 11.2196C40.2902 11.2196 39.5416 10.8233 39.5416 8.40147C39.5416 6.50804 39.7618 5.58334 41.8314 5.58334C42.4038 5.58334 42.9762 5.67141 43.6368 5.89157C43.7248 5.89157 43.7688 5.89157 43.7688 5.80351C44.0331 5.31915 44.3413 4.74671 44.6936 3.99815V3.86605C44.6936 3.82201 44.6495 3.77798 44.6055 3.77798C43.6808 3.46975 42.5799 3.33765 41.6553 3.33765C38.4408 3.33765 36.9878 4.83478 36.9878 8.31341C36.9878 11.8361 38.4408 13.3772 41.6993 13.3772C42.4919 13.3772 44.1211 13.2011 44.9137 12.8928C45.0018 12.8488 45.0018 12.8048 45.0018 12.7608C45.0018 12.7167 44.3413 10.9114 44.3413 10.9114ZM36.1951 3.73395H33.9054C33.8173 3.73395 33.7733 3.77798 33.7733 3.82201C33.421 5.23108 32.7165 7.60887 31.7038 10.0747L29.4581 3.73395C29.4581 3.68991 29.37 3.64588 29.326 3.64588H27.0362C26.9922 3.64588 26.9481 3.68991 26.9041 3.68991C26.8601 3.73395 26.8601 3.77798 26.9041 3.82201L30.3827 13.1571C30.0305 13.8616 29.6782 14.478 29.414 15.0505C29.1938 15.4468 28.9737 15.8871 28.7095 16.3274C28.6655 16.3715 28.7095 16.4155 28.7095 16.4596C28.7535 16.5036 28.7975 16.5476 28.8416 16.5476H31.3075C31.3515 16.5476 31.3955 16.5036 31.4395 16.4596C31.8358 15.667 32.4083 14.5221 32.8926 13.3772C34.3458 9.94266 35.5346 6.77224 36.3713 3.82201C36.3713 3.77798 36.3713 3.73395 36.3272 3.68991C36.2832 3.73395 36.2392 3.73395 36.1951 3.73395ZM83.5309 3.68991H81.2852C81.1973 3.68991 81.1533 3.73395 81.1533 3.82201V10.9114C80.6688 11.0435 80.1843 11.0875 79.6119 11.0875C78.1149 11.0875 77.8067 10.6471 77.8067 8.66567V3.82201C77.8067 3.73395 77.7627 3.68991 77.6743 3.68991H75.4285C75.3406 3.68991 75.2967 3.73395 75.2967 3.82201V8.92988C75.2967 12.1002 76.3537 13.3772 79.1273 13.3772C80.6688 13.3772 82.474 12.9809 83.487 12.5847C83.5309 12.5847 83.5749 12.4965 83.5749 12.4525V3.82201C83.6628 3.73395 83.6188 3.68991 83.5309 3.68991ZM54.601 3.68991H47.7759C47.6878 3.68991 47.6438 3.73395 47.6438 3.82201C47.4677 6.90434 46.8952 10.2508 46.0586 12.9369V13.025C46.1026 13.069 46.1466 13.069 46.1907 13.069H48.5685C48.6125 13.069 48.7006 13.025 48.7006 12.9809C49.3611 10.9114 49.8895 8.13727 50.0656 5.84754H52.3113V12.9809C52.3113 13.069 52.3554 13.113 52.4434 13.113H54.6891C54.7772 13.113 54.8212 13.069 54.8212 12.9809V3.82201C54.7331 3.73395 54.6891 3.68991 54.601 3.68991Z" fill="#EE3F58"/>
</g>
</svg>
