<svg width="414" height="371" viewBox="0 0 414 371" fill="none" xmlns="http://www.w3.org/2000/svg">
<g clip-path="url(#clip0_52_5062)">
<path d="M370.978 231.632C370.998 231.572 370.978 231.512 370.918 231.492C370.868 231.472 370.808 231.492 370.778 231.542C367.633 238.783 365.419 246.384 363.576 254.056C361.793 261.747 360.501 269.548 359.599 277.398L359.039 283.302C358.948 284.29 358.848 285.269 358.778 286.258L358.618 289.215C358.528 291.192 358.408 293.16 358.357 295.138L358.408 301.071L358.478 304.038C358.518 305.026 358.588 306.015 358.658 306.994C358.808 308.962 358.928 310.94 359.109 312.907C359.489 316.833 360.08 320.748 360.691 324.644C360.691 324.694 360.741 324.734 360.791 324.734C360.852 324.734 360.892 324.684 360.892 324.634C360.882 322.656 360.801 320.688 360.751 318.721C360.691 316.753 360.521 314.795 360.551 312.837C360.551 310.87 360.511 308.912 360.491 306.954L360.441 304.018L360.491 301.081L360.521 295.208L360.681 289.335L360.741 286.398C360.781 285.419 360.852 284.44 360.902 283.461L361.262 277.588C361.953 269.777 363.025 261.996 364.598 254.305C366.16 246.624 368.103 238.973 370.978 231.651V231.632Z" fill="#27314A"/>
<path d="M371.819 262.356C371.829 262.306 371.809 262.246 371.759 262.226C371.709 262.206 371.649 262.226 371.629 262.286C369.936 267.17 368.584 272.164 367.432 277.209C366.34 282.263 365.479 287.387 364.958 292.541C364.437 297.685 363.856 302.829 363.786 308.003C363.706 313.167 363.786 318.341 364.337 323.505C364.337 323.555 364.377 323.595 364.427 323.595C364.487 323.595 364.537 323.555 364.537 323.505C365.138 318.361 365.499 313.227 365.86 308.093C366.22 302.959 366.27 297.815 366.611 292.681C366.921 287.567 367.562 282.473 368.444 277.408C369.305 272.344 370.387 267.3 371.809 262.356H371.819Z" fill="#27314A"/>
<path d="M388.897 273.163C388.897 273.163 388.807 273.103 388.757 273.133C384.48 275.83 380.664 279.236 377.338 283.062C375.696 285.01 374.173 287.037 372.871 289.255L371.949 290.983L371.228 292.781C370.968 293.38 370.787 293.989 370.597 294.599C370.417 295.208 370.207 295.817 370.036 296.436C368.754 301.371 367.903 306.405 367.672 311.459C367.462 316.513 367.562 321.577 368.243 326.591C368.243 326.641 368.293 326.681 368.343 326.681C368.404 326.681 368.454 326.641 368.454 326.581L369.756 311.599C370.277 306.645 370.597 301.67 371.659 296.826C371.799 296.227 371.969 295.637 372.12 295.038C372.27 294.439 372.42 293.839 372.651 293.27L373.262 291.542L374.043 289.904C375.195 287.736 376.617 285.669 378.14 283.711C381.195 279.786 384.78 276.21 388.867 273.303C388.867 273.303 388.927 273.203 388.897 273.163Z" fill="#27314A"/>
<path d="M380.634 292.411C378.311 293.909 376.748 296.267 375.436 298.634C374.184 301.061 373.202 303.628 372.521 306.265C372.321 306.914 372.151 307.583 372.01 308.243L371.54 310.23C371.299 311.569 371.109 312.917 371.039 314.276C371.019 315.634 370.979 316.993 371.079 318.351C371.189 319.709 371.349 321.058 371.61 322.396C371.61 322.436 371.65 322.466 371.69 322.476C371.75 322.486 371.8 322.446 371.81 322.396C372.141 321.058 372.351 319.739 372.531 318.411C372.742 317.092 372.952 315.784 373.102 314.475C373.292 313.167 373.473 311.868 373.573 310.55C373.753 309.252 373.853 307.923 374.134 306.645C374.595 304.048 375.346 301.51 376.357 299.093C377.369 296.686 378.691 294.289 380.715 292.601H380.735C380.735 292.601 380.785 292.501 380.755 292.451C380.725 292.401 380.665 292.391 380.614 292.421L380.634 292.411Z" fill="#27314A"/>
<path d="M356.675 307.414C356.114 300.761 355.012 294.179 353.971 287.597C352.929 281.014 351.777 274.452 350.575 267.91C349.323 261.367 348.021 254.835 346.608 248.332C346.598 248.282 346.538 248.242 346.488 248.252C346.428 248.262 346.398 248.312 346.408 248.372C347.55 254.925 348.582 261.497 349.553 268.079C350.555 274.652 351.497 281.234 352.328 287.836C353.139 294.439 353.78 301.051 354.612 307.633L357.056 327.431C357.056 327.431 357.106 327.52 357.156 327.52C357.216 327.52 357.266 327.48 357.266 327.421C357.346 325.752 357.346 324.084 357.386 322.416C357.396 320.748 357.316 319.08 357.286 317.412C357.226 314.066 356.935 310.75 356.685 307.424L356.675 307.414Z" fill="#27314A"/>
<path d="M352.678 307.324C352.317 304.687 351.836 302.07 351.336 299.463L350.404 295.577C350.094 294.279 349.803 292.99 349.422 291.712C348.09 286.558 346.387 281.494 344.324 276.589L343.523 274.761L342.631 272.974C342.07 271.765 341.379 270.616 340.738 269.458C339.346 267.19 337.894 264.933 335.92 263.095C335.88 263.055 335.82 263.055 335.78 263.095C335.74 263.135 335.74 263.205 335.78 263.245H335.79C337.613 265.143 338.945 267.47 340.197 269.767C340.778 270.946 341.389 272.115 341.89 273.333L342.671 275.141L343.362 276.989C345.206 281.913 346.688 286.967 347.81 292.111C348.421 294.668 348.821 297.275 349.312 299.852L349.933 303.748C350.164 305.046 350.434 306.335 350.624 307.633C351.045 310.23 351.516 312.827 351.977 315.424C352.377 318.031 352.858 320.638 353.409 323.245C353.409 323.295 353.459 323.335 353.509 323.335C353.569 323.335 353.609 323.285 353.609 323.235C353.619 320.578 353.559 317.921 353.419 315.265C353.269 312.608 352.948 309.971 352.668 307.324H352.678Z" fill="#27314A"/>
<path d="M347.158 307.663C345.926 304.177 344.493 300.761 342.931 297.415C341.328 294.089 339.605 290.813 337.622 287.707C337.592 287.667 337.532 287.647 337.482 287.677C337.432 287.707 337.412 287.766 337.442 287.816C339.175 291.053 340.647 294.419 341.979 297.825C343.332 301.221 344.554 304.677 345.575 308.183C346.617 311.689 347.368 315.255 348.3 318.771C349.281 322.286 350.073 325.842 351.164 329.398C351.174 329.438 351.214 329.478 351.265 329.478C351.325 329.478 351.375 329.428 351.375 329.378C351.425 325.663 351.064 321.947 350.333 318.311C349.682 314.655 348.39 311.149 347.158 307.663Z" fill="#27314A"/>
<path d="M346.928 319.28C346.297 317.092 345.215 315.055 343.993 313.137C342.792 311.209 341.399 309.391 339.716 307.843C338.855 307.094 337.974 306.385 337.002 305.796C336.04 305.196 335.029 304.697 333.917 304.407C333.867 304.397 333.817 304.417 333.797 304.467C333.777 304.517 333.797 304.577 333.847 304.607H333.857C335.85 305.496 337.543 306.964 338.965 308.572C340.408 310.18 341.57 312.028 342.531 313.956C343.543 315.864 344.064 317.981 344.945 319.949C345.336 320.958 345.716 321.977 346.167 322.986C346.548 324.014 346.968 325.043 347.509 326.062C347.509 326.062 347.559 326.122 347.599 326.122C347.66 326.122 347.71 326.082 347.71 326.022C347.76 324.883 347.69 323.755 347.579 322.626C347.419 321.507 347.179 320.399 346.908 319.3L346.928 319.28Z" fill="#27314A"/>
<path d="M347.351 257.851C347.351 257.851 336.423 255.334 333.899 243.598C331.374 231.861 339.498 236.895 332.216 218.457C324.934 200.018 326.617 195.823 329.131 190.519C331.655 185.215 333.057 186.883 335.291 193.875C337.534 200.857 345.658 211.754 348.743 232.151C351.828 252.547 347.341 257.851 347.341 257.851H347.351Z" fill="white"/>
<path d="M368.914 238.014C368.914 238.014 361.632 235.497 361.352 221.813C361.072 208.119 366.671 210.916 367.512 193.875C368.353 176.835 369.475 164.819 372.55 164.539C375.635 164.26 383.759 172.92 386.563 191.918C389.368 210.916 382.917 223.491 377.318 229.074C371.719 234.658 368.914 238.014 368.914 238.014Z" fill="white"/>
<path d="M343.424 274.342C343.424 274.342 341.742 264.284 338.386 259.539C335.021 254.785 327.739 250.6 322.981 241.38C318.213 232.161 312.894 227.686 313.175 240.821C313.455 253.956 319.335 260.658 326.627 265.133C333.909 269.607 343.434 274.352 343.434 274.352L343.424 274.342Z" fill="white"/>
<path d="M340.338 291.662C340.338 291.662 333.617 278.807 323.811 269.308C314.005 259.809 306.162 255.054 308.957 259.809C311.761 264.563 315.117 264.284 319.885 272.664C324.653 281.044 323.25 287.197 329.971 291.942C336.692 296.696 340.338 291.662 340.338 291.662Z" fill="white"/>
<path d="M339.498 308.143C339.217 307.304 338.937 301.161 329.411 296.127C319.885 291.103 310.921 293.05 312.043 295.567C313.164 298.084 319.044 302.27 324.934 304.787C330.813 307.304 339.508 308.143 339.508 308.143H339.498Z" fill="white"/>
<path d="M368.354 274.901C368.354 274.901 364.148 269.598 366.391 258.42C368.635 247.243 373.673 250.04 379.282 244.167C384.882 238.304 383.77 237.465 389.369 231.312C394.968 225.169 400.016 221.813 402.26 224.33C404.504 226.847 401.138 234.668 397.773 239.143C394.407 243.618 389.088 245.845 386.564 251.439C384.04 257.022 385.162 265.972 378.721 270.157C372.281 274.352 368.354 274.901 368.354 274.901Z" fill="white"/>
<path d="M382.367 277.968C382.367 277.968 392.454 266.511 399.736 258.131C407.018 249.751 409.823 243.318 410.103 248.912C410.383 254.495 412.627 258.97 406.737 266.231C400.858 273.493 382.357 277.968 382.357 277.968H382.367Z" fill="white"/>
<path d="M377.049 296.416C377.049 296.416 376.769 291.942 392.735 281.604C408.701 271.266 415.432 269.308 413.749 273.503C412.067 277.698 405.065 281.883 397.503 289.425C389.94 296.966 377.049 296.406 377.049 296.406V296.416Z" fill="white"/>
<path d="M348.012 256.662C348.012 256.662 344.265 236.616 340.339 222.372C336.413 208.129 333.898 199.459 333.898 199.459" stroke="#27314A" stroke-linecap="round" stroke-linejoin="round"/>
<path d="M368.273 238.234C368.273 238.234 375.085 216.509 377.328 203.374C379.572 190.24 377.048 180.461 375.926 174.598" stroke="#27314A" stroke-linecap="round" stroke-linejoin="round"/>
<path d="M342.542 273.923C342.542 273.923 338.385 266.521 332.215 259.26C326.055 251.998 321.287 248.082 318.482 241.101" stroke="#27314A" stroke-linecap="round" stroke-linejoin="round"/>
<path d="M368.354 274.901C368.354 274.901 370.597 261.487 375.916 254.505C381.235 247.523 391.882 236.626 396.089 229.644" stroke="#27314A" stroke-linecap="round" stroke-linejoin="round"/>
<path d="M338.846 307.843C338.846 307.843 329.421 301.72 322.689 298.374" stroke="#27314A" stroke-linecap="round" stroke-linejoin="round"/>
<path d="M366.26 367.095H353.93C351.747 367.095 349.773 365.786 348.932 363.778C344.905 354.15 334.138 326.362 340.618 318.481C346.788 310.97 373.392 310.97 379.562 318.481C386.043 326.362 375.285 354.15 371.249 363.778C370.407 365.786 368.434 367.095 366.25 367.095H366.26Z" fill="#27314A"/>
<path d="M206.818 176.795H166.111V228.415H206.818V176.795Z" fill="#27314A" stroke="#27314A" stroke-linecap="round" stroke-linejoin="round"/>
<path d="M237.46 113.798L232.963 127.582L240.355 129.82L237.46 113.798Z" fill="#E14D78" stroke="#27314A" stroke-linecap="round" stroke-linejoin="round"/>
<path d="M241.196 202.805C241.196 202.805 240.465 244.397 241.928 256.093C243.39 267.79 261.75 309.132 263.213 315.115C264.675 321.098 269.333 335.281 269.333 335.281C269.333 335.281 266.638 340.765 267.129 343.502C267.62 346.239 267.62 348.486 267.62 348.486C267.62 348.486 268.842 349.485 262.722 352.971C256.602 356.457 245.103 358.444 244.862 361.191C244.622 363.928 247.307 365.676 250.241 366.175C253.176 366.675 262.722 365.426 264.435 365.177C266.147 364.927 282.054 362.19 284.988 362.19C287.923 362.19 289.886 363.439 290.858 356.956C291.84 350.484 288.905 337.279 288.905 337.279C288.905 337.279 287.683 317.112 283.276 301.171C278.868 285.229 270.064 252.108 270.555 250.37C271.045 248.622 272.268 203.804 272.268 203.804L241.196 202.805Z" fill="#E14D78" stroke="#27314A" stroke-linecap="round" stroke-linejoin="round"/>
<path d="M284.999 362.18C287.723 362.18 289.596 363.239 290.638 358.245C286.701 357.466 282.635 356.567 280.501 355.807C275.563 354.049 267.62 348.476 267.62 348.476C267.62 348.476 268.842 349.475 262.722 352.961C256.602 356.447 245.103 358.434 244.863 361.181C244.622 363.928 247.307 365.666 250.241 366.165C253.176 366.665 262.722 365.416 264.435 365.167C266.148 364.917 282.054 362.18 284.989 362.18H284.999Z" fill="white" stroke="#27314A" stroke-linecap="round" stroke-linejoin="round"/>
<path d="M260.276 204.293C260.276 204.293 261.007 247.873 263.702 260.079C266.396 272.284 268.84 308.393 269.081 313.367C269.321 318.341 269.321 334.532 269.321 335.281C269.321 336.03 268.339 351.473 268.339 351.473C268.339 351.473 261.979 355.957 259.285 357.945C256.59 359.933 248.517 361.181 248.277 363.179C248.036 365.177 252.684 369.651 256.841 370.401C260.997 371.15 284.486 367.414 287.18 367.414C289.875 367.414 294.032 366.915 295.254 366.415C296.476 365.916 296.726 363.179 296.726 359.943C296.726 356.706 296.235 353.72 296.726 350.973C297.217 348.236 299.17 321.837 297.948 308.642C296.726 295.448 293.3 282.243 293.541 267.8C293.781 253.356 296.476 239.412 297.457 230.942C298.439 222.472 301.865 201.806 301.865 201.806L260.266 204.293H260.276Z" fill="#E14D78" stroke="#27314A" stroke-linecap="round" stroke-linejoin="round"/>
<path d="M243.439 207.619L259.536 211.445L286.35 206.531L243.439 207.619Z" fill="#27314A" stroke="#27314A" stroke-linecap="round" stroke-linejoin="round"/>
<path d="M289.896 295.098C290.718 296.616 291.519 297.955 292.29 299.053" stroke="#27314A" stroke-linecap="round" stroke-linejoin="round"/>
<path d="M270.363 244.557C270.363 244.557 279.458 273.313 287.481 290.304" stroke="#27314A" stroke-linecap="round" stroke-linejoin="round"/>
<path d="M268.361 351.473C268.361 351.473 262.001 355.957 259.306 357.945C256.612 359.933 248.538 361.181 248.298 363.179C248.058 365.177 252.705 369.651 256.862 370.401C261.019 371.15 284.507 367.414 287.202 367.414C289.896 367.414 294.053 366.915 295.275 366.415C296.497 365.916 296.748 363.179 296.748 359.943C296.748 359.943 284.437 359.114 277.887 357.166C271.336 355.218 268.361 351.473 268.361 351.473Z" fill="white" stroke="#27314A" stroke-linecap="round" stroke-linejoin="round"/>
<path d="M264.405 367.614C258.275 368.203 253.036 367.084 249.721 366.046C251.373 367.943 254.208 369.921 256.852 370.391C261.009 371.14 284.498 367.404 287.192 367.404C289.887 367.404 294.044 366.905 295.266 366.405C296.117 366.056 296.488 364.617 296.638 362.68C287.713 364.228 271.787 366.905 264.395 367.604L264.405 367.614Z" fill="white" stroke="#27314A" stroke-linecap="round" stroke-linejoin="round"/>
<path d="M184.473 170.083H161.044V174.877H161.144V281.644H67.5605V284.221H161.144V306.055H164.38V284.221V281.644V174.877H184.473V170.083Z" fill="white"/>
<path d="M188.98 168.764H168.557V176.366H188.98V168.764Z" fill="#27314A" stroke="#27314A" stroke-linecap="round" stroke-linejoin="round"/>
<path d="M152.27 247.533C122.702 247.533 98.7324 274.352 98.7324 307.424C98.7324 340.495 122.702 367.314 152.27 367.314C181.839 367.314 205.808 340.495 205.808 307.424C205.808 274.352 181.839 247.533 152.27 247.533ZM152.27 360.952C125.847 360.952 104.432 336.989 104.432 307.434C104.432 277.878 125.847 253.916 152.27 253.916C178.694 253.916 200.109 277.878 200.109 307.434C200.109 336.989 178.694 360.952 152.27 360.952Z" fill="white"/>
<path d="M199.318 330.497H193.468C196.904 323.675 198.867 315.804 198.867 307.424C198.867 281.404 180.016 260.308 156.748 260.308C146.731 260.308 137.536 264.234 130.304 270.766H113.467V272.854H128.151C119.837 281.464 114.639 293.759 114.639 307.434C114.639 323.085 121.47 336.949 131.977 345.52H116.031V347.607H134.291V347.277C140.792 351.872 148.494 354.549 156.758 354.549C171.743 354.549 184.894 345.779 192.356 332.594H199.318V330.507V330.497ZM195.932 307.424C195.932 318.381 192.326 328.399 186.387 336.08L169.99 311.549C170.521 310.23 170.821 308.782 170.821 307.244C170.821 303.578 169.148 300.362 166.624 298.524L171.512 266.831C185.836 273.353 195.932 289.065 195.932 307.434V307.424ZM156.758 263.594C160.304 263.594 163.739 264.134 167.005 265.123C166.324 268.199 162.227 286.648 159.863 297.096C155.927 298.025 152.932 301.87 152.661 306.555C142.885 310.031 123.173 316.263 118.675 317.682C117.974 314.396 117.584 310.96 117.584 307.424C117.584 283.222 135.122 263.594 156.758 263.594ZM120.378 323.695L155.496 314.785C157.119 316.523 159.302 317.602 161.716 317.602C162.798 317.602 163.83 317.372 164.791 316.983L182.51 340.435C175.619 347.168 166.624 351.253 156.758 351.253C140.261 351.253 126.158 339.846 120.378 323.695Z" fill="white"/>
<path d="M237.119 127.053L232.501 139.438C232.501 139.438 194.178 158.197 190.633 160.314C187.087 162.442 171.822 167.396 171.822 167.396C171.822 167.396 169.338 178.363 170.76 179.072C172.182 179.782 175.017 179.782 175.017 179.782L178.563 176.955C178.563 176.955 183.881 177.664 184.953 177.304C186.015 176.955 188.97 168.764 188.97 168.764L240.665 156.069L242.438 122.448L237.119 127.053Z" fill="#FFCCB2" stroke="#27314A" stroke-linecap="round" stroke-linejoin="round"/>
<path d="M13.0509 348.626L9.61523 346.578L45.0635 286.688C46.7062 283.941 49.7311 282.233 52.9464 282.233H68.9827V286.228H52.9464C51.1334 286.228 49.4306 287.187 48.5091 288.745L13.0609 348.636L13.0509 348.626Z" fill="white" stroke="#27314A" stroke-linecap="round" stroke-linejoin="round"/>
<path d="M69.3242 272.714H162.047V237.195C162.047 237.195 102.489 232.301 69.6347 259.549L69.3242 272.714Z" fill="#27314A" stroke="#27314A" stroke-linecap="round" stroke-linejoin="round"/>
<path d="M165.492 216.349H144.678V219.346H165.492V216.349Z" stroke="#27314A" stroke-linecap="round" stroke-linejoin="round"/>
<path d="M144.678 221.343H80.4022C78.4691 221.343 76.8965 219.775 76.8965 217.848C76.8965 215.92 78.4691 214.352 80.4022 214.352H144.678C146.611 214.352 148.184 215.92 148.184 217.848C148.184 219.775 146.611 221.343 144.678 221.343Z" fill="#27314A"/>
<path d="M70.6963 320.958H67.6914V221.204C67.6914 218.537 69.875 216.359 72.5494 216.359H80.4023V219.356H72.5494C71.5277 219.356 70.6963 220.185 70.6963 221.204V320.958Z" fill="white" stroke="#27314A" stroke-linecap="round" stroke-linejoin="round"/>
<path d="M66.6798 320.039V341.704C66.6798 341.704 65.1272 346.788 65.3075 348.776C65.6281 352.332 73.0803 341.704 73.0803 341.704V320.039H66.6798Z" fill="#27314A" stroke="#27314A" stroke-linecap="round" stroke-linejoin="round"/>
<path d="M67.461 324.094C55.6517 324.094 46.0859 333.643 46.0859 345.41C46.0859 357.176 55.6617 366.725 67.461 366.725C79.2604 366.725 88.8362 357.176 88.8362 345.41C88.8362 333.643 79.2604 324.094 67.461 324.094ZM82.1251 343.772C77.9483 343.012 67.5412 340.306 61.942 331.765C63.6448 331.076 65.5078 330.687 67.461 330.687C75.0535 330.687 81.3038 336.41 82.1251 343.772ZM57.074 334.962C58.316 336.989 61.5413 343.012 60.2893 349.245C59.4679 353.35 57.9354 354.889 56.6934 355.448C54.2293 352.821 52.7068 349.295 52.7068 345.41C52.7068 341.324 54.3796 337.629 57.074 334.962ZM67.4711 360.123C66.0287 360.123 64.6464 359.903 63.3343 359.523C65.608 355.678 70.8266 349.835 81.2637 350.624C79.1502 356.167 73.7814 360.123 67.4811 360.123H67.4711Z" fill="#27314A" stroke="#27314A" stroke-linecap="round" stroke-linejoin="round"/>
<path d="M146.249 148.118C146.249 148.118 134.259 148.917 127.068 155.889C119.876 162.861 89.1152 211.864 89.1152 211.864L119.475 213.652L113.886 238.154L180.005 249.111C180.005 249.111 182.198 253.097 185.594 233.369C188.989 213.652 196.381 184.966 196.381 175.397C196.381 165.828 192.585 155.28 187.988 151.494C183.39 147.709 169.006 144.922 169.006 144.922L146.229 148.108L146.249 148.118Z" fill="white" stroke="#27314A" stroke-linecap="round" stroke-linejoin="round"/>
<path d="M127.949 176.685L129.512 170.632" stroke="#27314A" stroke-linecap="round" stroke-linejoin="round"/>
<path d="M120.588 205.082L126.758 181.26" stroke="#27314A" stroke-linecap="round" stroke-linejoin="round"/>
<path d="M114.577 202.485C114.577 202.485 107.315 199.139 101.375 199.139C95.4353 199.139 91.3085 203.244 88.3336 208.039C85.3587 212.833 93.8226 215.79 97.9394 216.02C102.056 216.249 104.931 215.88 110.42 215.88C115.909 215.88 120.346 227.217 120.346 227.217C120.346 227.217 121.258 232.011 123.551 235.197C125.835 238.394 124.924 239.532 126.296 239.992C127.668 240.451 130.413 239.303 130.643 237.255C130.873 235.197 133.237 231.372 131.104 224.71C124.834 205.172 114.577 202.495 114.577 202.495V202.485Z" fill="#FFCCB2" stroke="#27314A" stroke-linecap="round" stroke-linejoin="round"/>
<path d="M123.682 228.066L126.887 238.094" stroke="#27314A" stroke-linecap="round" stroke-linejoin="round"/>
<path d="M126.467 227.426C126.467 227.426 129.462 234.039 129.241 238.304L126.467 227.426Z" fill="#FFCCB2"/>
<path d="M126.467 227.426C126.467 227.426 129.462 234.039 129.241 238.304" stroke="#27314A" stroke-linecap="round" stroke-linejoin="round"/>
<path d="M129.461 226.368C129.461 226.368 131.154 229.394 131.154 234.508L129.461 226.368Z" fill="#FFCCB2"/>
<path d="M129.461 226.368C129.461 226.368 131.154 229.394 131.154 234.508" stroke="#27314A" stroke-linecap="round" stroke-linejoin="round"/>
<path d="M148.253 143.144C148.253 143.144 143.055 146.53 140.861 151.115C138.668 155.7 137.466 159.485 139.068 159.885C140.671 160.284 150.056 156.698 150.056 156.698C150.056 156.698 155.255 155.3 156.647 155.899C158.05 156.499 162.437 161.872 166.233 163.271C170.029 164.669 175.027 154.701 176.42 147.729C177.822 140.757 171.221 139.558 171.221 139.558C171.221 139.558 152.24 140.357 148.243 143.144H148.253Z" fill="white" stroke="#27314A" stroke-linecap="round" stroke-linejoin="round"/>
<path d="M174.625 90.5551C174.625 90.5551 167.834 85.9704 155.043 87.9681C142.262 89.9558 136.462 98.7256 136.062 103.111C135.661 107.495 135.26 109.683 135.06 116.655C134.86 123.627 135.26 132.596 137.855 135.783C140.449 138.969 144.646 141.955 145.848 143.554C147.05 145.152 149.043 155.31 150.045 156.698C151.046 158.097 153.641 159.285 155.043 156.898C157.246 153.133 161.013 150.356 164.538 147.909C165.36 147.339 173.503 142.715 173.022 141.556C173.022 141.556 172.021 139.169 173.022 133.785C174.024 128.411 175.016 127.812 175.016 127.812C175.016 127.812 183.61 127.612 183.61 119.841C183.61 112.07 181.416 111.271 181.416 111.271C181.416 111.271 183.209 96.9277 174.625 90.5551Z" fill="#FFCCB2" stroke="#27314A" stroke-linecap="round" stroke-linejoin="round"/>
<path d="M175.017 93.3418C175.017 93.3418 168.025 96.9276 167.825 100.513C167.625 104.099 172.022 106.886 172.423 107.685C172.823 108.484 171.221 113.059 172.823 113.858C174.426 114.657 176.189 113.259 176.219 112.26C176.289 109.982 180.826 109.613 181.417 111.261C181.417 111.261 183.611 111.061 183.02 102.891C182.429 94.7202 178.823 90.3453 175.027 93.3318L175.017 93.3418Z" fill="#27314A" stroke="#27314A" stroke-linecap="round" stroke-linejoin="round"/>
<path d="M174.626 90.555C174.626 90.555 172.633 92.3529 168.837 94.5404C165.04 96.7279 161.244 96.9276 155.855 95.1397C150.466 93.3518 144.066 92.7525 141.672 94.7402C139.278 96.7279 136.083 98.7256 136.083 100.913C136.083 103.1 132.487 96.5281 135.081 92.5427C137.675 88.5573 141.672 88.3576 141.672 88.3576C141.672 88.3576 144.667 81.3856 148.663 80.7863C152.66 80.187 175.037 82.3845 174.636 90.545L174.626 90.555Z" fill="#27314A" stroke="#27314A" stroke-linecap="round" stroke-linejoin="round"/>
<path d="M145.658 107.286L146.449 112.07L144.256 125.415L149.845 126.413" stroke="#27314A" stroke-linecap="round" stroke-linejoin="round"/>
<path d="M145.057 129.4C145.057 129.4 150.846 132.586 156.646 128.601" stroke="#27314A" stroke-linecap="round" stroke-linejoin="round"/>
<path d="M144.256 139.558C144.256 139.558 147.05 143.144 149.454 144.143C151.848 145.142 154.653 145.142 156.045 144.542C157.448 143.943 160.442 139.958 160.442 139.958" stroke="#27314A" stroke-linecap="round" stroke-linejoin="round"/>
<path d="M151.447 105.887C151.447 105.887 156.646 104.489 161.033 107.286" stroke="#27314A" stroke-linecap="round" stroke-linejoin="round"/>
<path d="M143.455 105.887C143.455 105.887 141.852 104.089 137.465 105.887" stroke="#27314A" stroke-linecap="round" stroke-linejoin="round"/>
<path d="M157.838 114.357C157.838 115.626 157.348 116.645 156.737 116.645C156.126 116.645 155.635 115.616 155.635 114.357C155.635 113.099 156.126 112.07 156.737 112.07C157.348 112.07 157.838 113.099 157.838 114.357Z" fill="#27314A"/>
<path d="M142.563 114.357C142.563 115.626 142.072 116.645 141.461 116.645C140.85 116.645 140.359 115.616 140.359 114.357C140.359 113.099 140.85 112.07 141.461 112.07C142.072 112.07 142.563 113.099 142.563 114.357Z" fill="#27314A"/>
<path d="M154.443 117.444C154.443 117.444 156.437 120.031 159.832 120.83" stroke="#27314A" stroke-linecap="round" stroke-linejoin="round"/>
<path d="M144.456 116.445C144.456 116.445 140.86 118.832 138.867 119.432" stroke="#27314A" stroke-linecap="round" stroke-linejoin="round"/>
<path d="M165.831 197.521C165.831 197.521 146.45 199.908 131.275 205.492C116.09 211.065 103.579 221.224 102.938 222.492C102.037 224.29 98.1303 230.882 97.5293 232.381C96.9283 233.879 101.436 233.879 103.539 233.879C105.643 233.879 110.45 229.384 111.352 228.485C112.253 227.586 108.948 232.68 111.953 232.68C114.958 232.68 115.258 228.485 116.46 227.586C117.662 226.687 118.534 225.638 120.367 222.492C122.2 219.346 125.405 220.434 123.802 217.388C123.462 216.749 122.691 216.249 121.699 215.88C143.575 215.62 182.138 215.141 183.42 214.851C185.213 214.451 186.616 210.466 186.616 210.466C186.616 210.466 177.03 196.522 165.841 197.521H165.831Z" fill="#FFCCB2" stroke="#27314A" stroke-linecap="round" stroke-linejoin="round"/>
<path d="M119.476 221.104C119.476 221.104 116.881 222.512 114.758 223.93C112.634 225.339 108.037 225.928 107.446 226.637C106.855 227.347 101.316 231.462 100.484 232.281" stroke="#27314A" stroke-miterlimit="10"/>
<path d="M178.022 163.66L165.832 197.521C165.832 197.521 172.223 198.32 177.421 203.494C182.62 208.668 187.207 213.852 187.207 213.852C187.207 213.852 195 195.324 196.002 179.792C197.003 164.25 189.21 153.692 185.214 152.104" fill="white"/>
<path d="M178.022 163.66L165.832 197.521C165.832 197.521 172.223 198.32 177.421 203.494C182.62 208.668 187.207 213.852 187.207 213.852C187.207 213.852 195 195.324 196.002 179.792C197.003 164.25 189.21 153.692 185.214 152.104" stroke="#27314A" stroke-linecap="round" stroke-linejoin="round"/>
<path d="M228.484 170.083H209.072C206.859 170.083 205.056 171.881 205.056 174.088V174.877H205.156V281.644H111.572V284.231H205.156V306.065H208.391V174.877H228.484V170.083Z" fill="white" stroke="#27314A" stroke-linecap="round" stroke-linejoin="round"/>
<path d="M232.992 168.764H212.568V176.366H232.992V168.764Z" fill="#27314A" stroke="#27314A" stroke-linecap="round" stroke-linejoin="round"/>
<path d="M34.42 350.46L1.74414 340.542L0.484071 344.67L33.1599 354.588L34.42 350.46Z" fill="#27314A" stroke="#27314A" stroke-linecap="round" stroke-linejoin="round"/>
<path d="M62.9931 234.778C62.9931 234.778 50.9834 228.186 41.3676 233.579C36.2091 236.476 35.3577 259.339 34.7567 269.518C34.1558 279.706 30.8503 327.321 30.8503 327.321C30.8503 327.321 29.0474 327.62 27.8454 328.22C26.6434 328.819 25.4414 333.014 25.4414 333.014C25.4414 333.014 21.535 333.913 14.3332 333.314C7.12135 332.714 3.81592 335.112 7.12135 339.606C10.4268 344.101 7.42184 343.202 20.6335 347.397C33.8452 351.593 41.0571 352.791 41.0571 352.791C41.0571 352.791 44.9635 355.188 46.7665 353.39C48.5694 351.593 48.2689 348.596 47.9684 345.3C47.6679 342.004 49.1704 333.923 49.1704 333.024C49.1704 332.125 53.6778 326.132 54.2788 315.355C54.8798 304.567 55.1803 303.079 55.4808 300.682C55.7813 298.284 60.5892 266.241 60.5892 266.241C60.5892 266.241 98.7919 271.735 105.343 272.235C111.893 272.734 114.958 271.635 114.958 271.635L62.9931 234.798V234.778Z" fill="#E14D78" stroke="#27314A" stroke-linecap="round" stroke-linejoin="round"/>
<path d="M46.8965 269.458C47.7479 278.927 49.6009 294.099 53.277 303.858" stroke="#27314A" stroke-miterlimit="10"/>
<path d="M46.2656 260.868C46.2656 260.868 46.3458 262.496 46.5461 265.163" stroke="#27314A" stroke-miterlimit="10"/>
<path d="M14.3332 333.314C7.12135 332.714 3.81592 335.112 7.12135 339.606C10.4268 344.101 7.42184 343.202 20.6335 347.397C33.8452 351.593 41.0571 352.791 41.0571 352.791C41.0571 352.791 44.9635 355.188 46.7665 353.39C48.4192 351.742 48.299 349.095 48.0386 346.129C45.6446 345.579 41.618 344.421 38.6932 342.333C34.2759 339.187 25.4414 333.024 25.4414 333.024C25.4414 333.024 21.535 333.923 14.3332 333.324V333.314Z" fill="white" stroke="#27314A" stroke-linecap="round" stroke-linejoin="round"/>
<path d="M180.016 249.121C180.016 249.121 135.373 239.273 101.136 234.478C66.9002 229.684 59.9888 230.882 58.4864 236.276C56.9839 241.67 53.378 324.334 53.378 324.334C53.378 324.334 46.4666 324.634 46.1661 326.432C45.8656 328.229 44.0627 335.421 44.0627 335.421C44.0627 335.421 32.6539 337.519 26.6441 336.62C20.6342 335.721 18.2303 334.522 18.5307 338.418C18.8312 342.313 23.9396 345.01 35.6489 350.394C47.3581 355.788 60.6299 361.191 63.3043 359.543C65.9787 357.895 63.705 348.985 65.2976 348.796C66.8802 348.606 69.5846 339.616 71.0871 336.919C72.5895 334.223 72.5895 328.829 72.5895 327.93C72.5895 327.031 76.1955 303.968 78.5994 297.076C81.0034 290.184 87.0132 262.636 87.0132 262.636C87.0132 262.636 105.393 268.728 108.639 270.726L111.884 272.724C111.884 272.724 159.092 276.42 169.308 268.329C179.525 260.238 180.006 249.131 180.006 249.131L180.016 249.121Z" fill="#E14D78" stroke="#27314A" stroke-linecap="round" stroke-linejoin="round"/>
<path d="M82.375 253.916C84.4484 256.373 86.5418 259.519 87.0126 262.626" stroke="#27314A" stroke-miterlimit="10"/>
<path d="M77.7871 249.321C77.7871 249.321 78.7988 250.15 80.161 251.518" stroke="#27314A" stroke-miterlimit="10"/>
<path d="M80.2129 243.947C80.2129 243.947 83.4482 246.634 85.6017 253.886" stroke="#27314A" stroke-miterlimit="10"/>
<path d="M26.6538 336.61C20.644 335.711 18.24 334.512 18.5405 338.408C18.841 342.303 23.9494 345 35.6586 350.384C47.3679 355.778 60.6397 361.181 63.3141 359.533C65.9884 357.885 63.7147 348.975 65.3073 348.786C65.3073 348.786 58.6865 350.094 52.6966 345.42C46.7068 340.745 44.0624 335.421 44.0624 335.421C44.0624 335.421 32.6537 337.519 26.6438 336.62L26.6538 336.61Z" fill="white" stroke="#27314A" stroke-linecap="round" stroke-linejoin="round"/>
<path d="M111.893 272.714H204.615V237.195C204.615 237.195 145.057 232.301 112.203 259.549L111.893 272.714Z" fill="#20A6D9" stroke="#27314A" stroke-linecap="round" stroke-linejoin="round"/>
<path d="M196.292 247.533C166.723 247.533 142.754 274.352 142.754 307.424C142.754 340.495 166.723 367.314 196.292 367.314C225.86 367.314 249.83 340.495 249.83 307.424C249.83 274.352 225.86 247.533 196.292 247.533ZM196.292 360.952C169.868 360.952 148.453 336.989 148.453 307.434C148.453 277.878 169.868 253.916 196.292 253.916C222.715 253.916 244.13 277.878 244.13 307.434C244.13 336.989 222.715 360.952 196.292 360.952Z" fill="#27314A" stroke="#27314A" stroke-linecap="round" stroke-linejoin="round"/>
<path d="M243.339 330.497H237.49C240.925 323.675 242.889 315.804 242.889 307.424C242.889 281.404 224.038 260.308 200.769 260.308C190.753 260.308 181.558 264.234 174.326 270.766H157.488V272.854H172.172C163.859 281.464 158.66 293.759 158.66 307.434C158.66 323.085 165.491 336.949 175.999 345.52H160.052V347.607H178.312V347.277C184.813 351.872 192.516 354.549 200.779 354.549C215.764 354.549 228.916 345.779 236.378 332.594H243.339V330.507V330.497ZM239.954 307.424C239.954 318.381 236.348 328.399 230.408 336.08L214.011 311.549C214.542 310.23 214.842 308.782 214.842 307.244C214.842 303.578 213.17 300.362 210.646 298.524L215.534 266.831C229.857 273.353 239.954 289.065 239.954 307.434V307.424ZM200.779 263.594C204.325 263.594 207.761 264.134 211.026 265.123C210.345 268.199 206.248 286.648 203.884 297.096C199.948 298.025 196.953 301.87 196.683 306.555C186.907 310.031 167.194 316.263 162.697 317.682C161.996 314.396 161.605 310.96 161.605 307.424C161.605 283.222 179.144 263.594 200.779 263.594ZM164.4 323.695L199.517 314.785C201.14 316.523 203.324 317.602 205.738 317.602C206.819 317.602 207.851 317.372 208.813 316.983L226.532 340.435C219.64 347.168 210.646 351.253 200.779 351.253C184.282 351.253 170.179 339.846 164.4 323.695Z" fill="#27314A"/>
<path d="M48.9103 359.194L45.4746 357.146L87.6639 286.688C89.3066 283.941 92.3316 282.233 95.5469 282.233H111.583V286.228H95.5469C93.7339 286.228 92.0311 287.187 91.1096 288.745L48.9203 359.204L48.9103 359.194Z" fill="white" stroke="#27314A" stroke-linecap="round" stroke-linejoin="round"/>
<path d="M260.488 63.5264C260.488 63.5264 239.634 95.8988 238.131 102.112C236.629 108.324 235.337 131.268 236.839 139.418C238.342 147.569 231.25 207.589 231.25 207.589C231.25 207.589 252.315 208.878 277.476 208.019C302.627 207.16 309.719 205.871 309.719 205.871C309.719 205.871 312.944 195.154 307.355 172.64C301.766 150.126 294.674 141.336 293.162 127.622C291.659 113.898 300.474 102.321 294.454 78.529C288.434 54.7366 279.409 55.3758 279.409 55.3758C279.409 55.3758 268.01 56.0151 260.488 63.5264Z" fill="#E14D78" stroke="#27314A" stroke-linecap="round" stroke-linejoin="round"/>
<path d="M235.977 13.2946C235.977 13.2946 232.552 21.0156 233.814 26.0098C235.086 31.004 237.059 35.1892 236.538 37.926C236.018 40.6629 231.961 44.3586 233.824 45.9367C235.697 47.5149 237.891 47.4949 237.891 47.4949C237.891 47.4949 244.902 57.8629 246.345 59.531C247.797 61.1991 256.822 57.1238 256.822 57.1238L260.918 72.5259L279.409 55.3758L273.499 40.2833C273.499 40.2833 280.471 32.6921 276.444 20.8358C272.417 8.97958 259.656 5.72335 252.655 5.87318C245.653 6.023 239.123 10.4479 235.977 13.2946Z" fill="#FFCCB3" stroke="#27314A" stroke-linecap="round" stroke-linejoin="round"/>
<path d="M228.865 13.9039C228.865 13.9039 240.274 21.1654 255.339 26.9987C255.339 26.9987 263.963 34.6198 264.925 32.8819C265.876 31.1539 265.315 24.2619 269.422 26.0298C273.529 27.7978 274.24 32.2526 273.298 35.0793C272.357 37.906 271.656 39.8038 271.656 39.8038C271.656 39.8038 273.969 43.4796 275.021 43.2598C276.073 43.0401 280.891 34.5899 280.45 23.0732C280.009 11.5566 272.968 2.07756 262.581 0.739116C252.194 -0.599333 239.543 4.01532 233.854 8.27039C228.154 12.5255 227.693 12.4056 228.885 13.9039H228.865Z" fill="#27314A" stroke="#27314A" stroke-linecap="round" stroke-linejoin="round"/>
<path d="M280.359 30.0951C280.359 30.0951 279.848 24.5116 286.7 26.7989C293.551 29.0962 296.997 37.1369 295.775 41.7715C294.553 46.4062 284.977 51.0308 281.241 47.8745C277.505 44.7181 277.044 40.4231 277.244 39.2944C277.444 38.1557 280.369 30.1051 280.369 30.1051L280.359 30.0951Z" fill="#27314A" stroke="#27314A" stroke-linecap="round" stroke-linejoin="round"/>
<path d="M241.947 49.0631C241.947 49.0631 246.234 47.5149 248.097 43.8391" stroke="#27314A" stroke-linecap="round" stroke-linejoin="round"/>
<path d="M256.822 57.1238L263.323 53.5779L258.335 61.5986L256.822 57.1238Z" fill="#27314A" stroke="#27314A" stroke-linecap="round" stroke-linejoin="round"/>
<path d="M243.469 35.379C243.76 36.7674 243.479 38.0059 242.838 38.1358C242.197 38.2656 241.446 37.2468 241.156 35.8584C240.865 34.47 241.146 33.2315 241.787 33.1016C242.428 32.9718 243.179 33.9906 243.469 35.379Z" fill="#27314A"/>
<path d="M237.951 31.0539C237.951 31.0539 239.484 27.8876 243.17 29.7455" stroke="#27314A" stroke-linecap="round" stroke-linejoin="round"/>
<path d="M248.667 120.56H237.238V143.434H248.667V120.56Z" fill="white" stroke="#27314A" stroke-linecap="round" stroke-linejoin="round"/>
<path d="M279.407 55.3857L240.283 120.77L281.982 56.4545L279.407 55.3857Z" fill="#27314A" stroke="#27314A" stroke-linecap="round" stroke-linejoin="round"/>
<path d="M258.764 63.9558L240.283 120.77L260.036 69.9988L258.764 63.9558Z" fill="#27314A" stroke="#27314A" stroke-linecap="round" stroke-linejoin="round"/>
<path d="M221.143 165.858C221.143 165.858 213.831 178.723 214.482 179.362C215.123 180.001 218.569 180.001 218.569 180.001L221.574 178.933C221.574 178.933 225.44 180.431 228.235 180.001C231.03 179.572 235.327 173.789 235.978 172.071C236.619 170.353 245.283 167.376 253.987 164.3C266.909 159.735 289.235 143.164 290.307 142.745C291.379 142.315 294.604 138.46 294.604 138.46L296.357 118.603L276.144 115.816L274.391 130.319C274.391 130.319 263.052 144.423 251.874 152.353C240.695 160.284 233.814 163.93 233.173 164.36C232.532 164.789 224.359 164.999 221.133 165.858H221.143Z" fill="#FFCCB2" stroke="#27314A" stroke-linecap="round" stroke-linejoin="round"/>
<path d="M280.049 64.4254C280.049 64.4254 275.751 71.1875 275.1 78.9086C274.459 86.6296 271.014 125.015 271.014 125.015L298.529 128.151C298.529 128.151 302.395 99.4248 298.96 84.4621C295.524 69.4995 288.643 59.1215 283.695 60.0804" fill="#E14D78"/>
<path d="M280.049 64.4254C280.049 64.4254 275.751 71.1875 275.1 78.9086C274.459 86.6296 271.014 125.015 271.014 125.015L298.529 128.151C298.529 128.151 302.395 99.4248 298.96 84.4621C295.524 69.4995 288.643 59.1215 283.695 60.0804" stroke="#27314A" stroke-linecap="round" stroke-linejoin="round"/>
<path d="M59.7149 359.079L27.0391 349.161L25.779 353.289L58.4548 363.207L59.7149 359.079Z" fill="#27314A" stroke="#27314A" stroke-linecap="round" stroke-linejoin="round"/>
<path d="M205.156 216.349H186.465V219.346H205.156V216.349Z" fill="white" stroke="#27314A" stroke-linecap="round" stroke-linejoin="round"/>
<path d="M186.465 221.343H122.189C120.256 221.343 118.684 219.775 118.684 217.848C118.684 215.92 120.256 214.352 122.189 214.352H186.465C188.398 214.352 189.971 215.92 189.971 217.848C189.971 219.775 188.398 221.343 186.465 221.343Z" fill="#27314A"/>
<path d="M112.483 320.958H109.479V221.204C109.479 218.537 111.662 216.359 114.336 216.359H122.189V219.356H114.336C113.315 219.356 112.483 220.185 112.483 221.204V320.958Z" fill="white" stroke="#27314A" stroke-linecap="round" stroke-linejoin="round"/>
<path d="M108.467 320.039V341.704C108.467 341.704 106.914 346.788 107.095 348.776C107.415 352.332 114.867 341.704 114.867 341.704V320.039H108.467Z" fill="#27314A" stroke="#27314A" stroke-linecap="round" stroke-linejoin="round"/>
<path d="M109.248 324.094C97.4388 324.094 87.873 333.643 87.873 345.41C87.873 357.176 97.4488 366.725 109.248 366.725C121.048 366.725 130.623 357.176 130.623 345.41C130.623 333.643 121.048 324.094 109.248 324.094ZM123.912 343.772C119.735 343.012 109.328 340.306 103.729 331.765C105.432 331.076 107.295 330.687 109.248 330.687C116.841 330.687 123.091 336.41 123.912 343.772ZM98.8611 334.962C100.103 336.989 103.328 343.012 102.076 349.245C101.255 353.35 99.7225 354.889 98.4805 355.448C96.0164 352.821 94.4939 349.295 94.4939 345.41C94.4939 341.324 96.1667 337.629 98.8611 334.962ZM109.258 360.123C107.816 360.123 106.434 359.903 105.121 359.523C107.395 355.678 112.614 349.835 123.051 350.624C120.937 356.167 115.569 360.123 109.268 360.123H109.258Z" fill="#27314A" stroke="#27314A" stroke-linecap="round" stroke-linejoin="round"/>
</g>
<defs>
<clipPath id="clip0_52_5062">
<rect width="414" height="371" fill="white"/>
</clipPath>
</defs>
</svg>
