<svg width="703" height="515" viewBox="0 0 703 515" fill="none" xmlns="http://www.w3.org/2000/svg">
<g opacity="0.8" filter="url(#filter0_f_1_5786)">
<path d="M368.306 203.027C376.893 203.843 386.753 198.028 387.398 188.613C388.606 170.992 390.39 153.338 394.521 136.127C394.756 135.168 394.991 134.209 395.235 133.246C395.277 133.077 395.54 132.137 395.69 131.588C395.919 130.835 396.233 129.772 396.289 129.587C396.573 128.648 396.878 127.711 397.183 126.774C398.549 122.59 400.101 118.462 401.856 114.432C402.724 112.421 403.655 110.435 404.634 108.47C405.068 107.601 405.512 106.729 405.971 105.87C406.03 105.765 406.261 105.315 406.49 104.886C406.822 104.333 407.673 102.847 407.807 102.629C408.328 101.796 408.852 100.972 409.392 100.161C410.749 98.1009 412.184 96.1098 413.664 94.1513C418.749 87.4013 417.977 77.9003 412.03 72.0211C405.773 65.8333 397.02 65.8973 389.864 70.5787C385.846 73.2073 381.779 75.744 377.663 78.2098C377.328 78.4085 376.721 78.76 376.43 78.9408C375.559 79.4414 374.676 79.937 373.798 80.4203C371.439 81.7261 369.062 83.0095 366.67 84.2581C357.899 88.8436 348.9 92.975 339.748 96.7334C331.561 100.095 326.697 110.517 330.538 118.785C334.406 127.092 343.832 131.549 352.605 127.957C356.159 126.493 359.671 124.956 363.175 123.371C357.734 143.028 355.315 163.703 353.927 183.974C353.324 192.774 358.808 202.12 368.336 203.025L368.306 203.027Z" fill="#B3E4FF"/>
<path d="M615.6 275.14C614.41 275.457 613.211 275.778 612.021 276.096C610.895 276.397 610.298 276.552 610.217 276.575C608.099 277.133 605.987 277.678 603.865 278.227C599.082 279.466 594.3 280.685 589.498 281.881C579.911 284.287 570.313 286.616 560.695 288.873C542.063 293.248 523.358 297.349 504.605 301.186C495.637 303.023 486.594 305.245 477.517 306.396C477.015 306.461 475.295 306.479 474.319 306.526C474.417 305.827 474.532 305.12 474.681 304.419C474.698 304.362 474.713 304.325 474.73 304.267C475.426 302.429 476.217 300.673 476.999 298.87C477.462 298.02 477.672 297.619 477.652 297.617C478.031 296.984 478.414 296.36 478.809 295.741C481.152 292.078 483.756 288.581 486.589 285.294C486.912 284.918 489.902 281.79 489.708 281.911C491.08 280.605 492.492 279.344 493.938 278.119C500.65 272.383 503.06 261.603 496.952 254.42C491.256 247.718 480.429 245.288 473.228 251.439C460.627 262.196 448.072 276.617 443.08 292.722C440.246 301.831 439.129 311.705 442.792 320.797C446.875 330.933 455.671 337.242 466.066 339.636C473.483 341.339 481.352 340.138 488.722 338.716C497.515 337.022 506.297 335.252 515.058 333.43C532.288 329.845 549.476 326.033 566.605 322.003C587.313 317.117 607.926 311.875 628.485 306.382C637.07 304.084 641.203 291.863 637.695 284.33C633.421 275.135 624.828 272.699 615.628 275.158L615.6 275.14ZM474.315 308.465C474.283 308.387 474.254 308.318 474.229 308.257C474.258 308.327 474.29 308.405 474.318 308.474L474.315 308.465Z" fill="#B3E4FF"/>
<path d="M136.246 331.099C119.941 356.204 104.026 381.564 88.5138 407.164C83.9472 414.704 83.6533 425.243 91.6977 430.837C98.5567 435.6 110.502 435.713 115.403 427.628C130.924 402.025 146.834 376.677 163.136 351.564C167.941 344.158 167.836 333.368 159.952 327.891C152.908 323.001 141.393 323.168 136.246 331.099Z" fill="#B3E4FF"/>
<path d="M162.077 185.435C162.317 185.377 162.672 185.302 163.226 185.165C164.628 184.821 166.035 184.485 167.452 184.175C170.561 183.484 173.681 182.868 176.816 182.338C178.573 182.041 180.341 181.769 182.107 181.518C182.155 182.3 182.203 183.082 182.247 183.855C182.714 192.69 192.497 200.013 201.074 198.56C210.632 196.948 216.319 189.189 215.82 179.738C215.163 167.258 214.513 151.59 199.939 147.609C190.199 144.956 178.242 147.678 168.466 149.574C148.501 153.453 129.124 160.042 111.176 169.634C103.397 173.791 97.8438 182.833 101.966 191.685C105.507 199.296 115.68 205.321 124.033 200.857C135.834 194.548 148.125 189.679 160.92 185.81C161.571 185.613 161.921 185.499 162.089 185.44L162.077 185.435Z" fill="#B3E4FF"/>
<path d="M267.554 285.039C258.983 287.371 254.825 299.531 258.344 307.09C262.603 316.25 271.229 318.765 280.411 316.262C277.075 317.169 283.393 315.683 284.017 315.568C286.173 315.178 288.334 314.876 290.516 314.647C291.306 314.565 292.097 314.513 292.889 314.461C289.67 317.724 286.372 320.918 283.225 324.182C276.433 331.229 269.641 338.276 262.849 345.323C253.74 354.764 262.466 370.698 273.949 372.279C281.825 373.367 289.576 372.376 296.946 369.372C304.81 366.164 309.574 356.412 306.552 348.334C309.864 344.902 313.175 341.469 316.486 338.036C324.925 329.286 335.809 320.382 335.927 307.146C336.241 273.289 288.766 279.256 267.562 285.035L267.554 285.039Z" fill="#B3E4FF"/>
</g>
<g clip-path="url(#clip0_1_5786)">
<path d="M484.979 297.632C484.999 297.572 484.979 297.512 484.919 297.492C484.869 297.472 484.809 297.492 484.779 297.542C481.634 304.783 479.42 312.384 477.577 320.056C475.794 327.747 474.502 335.548 473.601 343.398L473.04 349.302C472.95 350.29 472.849 351.269 472.779 352.258L472.619 355.215C472.529 357.192 472.409 359.16 472.359 361.138L472.409 367.071L472.479 370.038C472.519 371.026 472.589 372.015 472.659 372.994C472.809 374.962 472.93 376.94 473.11 378.907C473.491 382.833 474.081 386.748 474.692 390.644C474.692 390.694 474.743 390.734 474.793 390.734C474.853 390.734 474.893 390.684 474.893 390.634C474.883 388.656 474.803 386.688 474.753 384.721C474.692 382.753 474.522 380.795 474.552 378.837C474.552 376.87 474.512 374.912 474.492 372.954L474.442 370.018L474.492 367.081L474.522 361.208L474.682 355.335L474.743 352.398C474.783 351.419 474.853 350.44 474.903 349.461L475.263 343.588C475.955 335.777 477.026 327.996 478.599 320.305C480.161 312.624 482.105 304.973 484.979 297.651V297.632Z" fill="#27314A"/>
<path d="M485.821 328.356C485.831 328.306 485.811 328.246 485.76 328.226C485.71 328.206 485.65 328.226 485.63 328.286C483.937 333.17 482.585 338.164 481.433 343.209C480.342 348.263 479.48 353.387 478.959 358.541C478.438 363.685 477.858 368.829 477.787 374.003C477.707 379.167 477.787 384.341 478.338 389.505C478.338 389.555 478.378 389.595 478.428 389.595C478.489 389.595 478.539 389.555 478.539 389.505C479.14 384.361 479.5 379.227 479.861 374.093C480.221 368.959 480.271 363.815 480.612 358.681C480.923 353.567 481.564 348.473 482.445 343.408C483.306 338.344 484.388 333.3 485.811 328.356H485.821Z" fill="#27314A"/>
<path d="M502.899 339.163C502.899 339.163 502.809 339.103 502.758 339.133C498.481 341.83 494.665 345.236 491.34 349.062C489.697 351.01 488.175 353.037 486.872 355.255L485.951 356.983L485.23 358.781C484.969 359.38 484.789 359.989 484.599 360.599C484.418 361.208 484.208 361.817 484.038 362.436C482.756 367.371 481.904 372.405 481.674 377.459C481.464 382.513 481.564 387.577 482.245 392.591C482.245 392.641 482.295 392.681 482.345 392.681C482.405 392.681 482.455 392.641 482.455 392.581L483.757 377.599C484.278 372.645 484.599 367.67 485.66 362.826C485.801 362.227 485.971 361.637 486.121 361.038C486.271 360.439 486.422 359.839 486.652 359.27L487.263 357.542L488.044 355.904C489.196 353.736 490.619 351.669 492.141 349.711C495.196 345.786 498.782 342.21 502.869 339.303C502.869 339.303 502.929 339.203 502.899 339.163Z" fill="#27314A"/>
<path d="M494.635 358.411C492.311 359.909 490.749 362.267 489.437 364.634C488.185 367.061 487.203 369.628 486.522 372.265C486.322 372.914 486.151 373.583 486.011 374.243L485.54 376.23C485.3 377.569 485.11 378.917 485.039 380.276C485.019 381.634 484.979 382.993 485.08 384.351C485.19 385.709 485.35 387.058 485.61 388.396C485.61 388.436 485.65 388.466 485.691 388.476C485.751 388.486 485.801 388.446 485.811 388.396C486.141 387.058 486.352 385.739 486.532 384.411C486.742 383.092 486.953 381.784 487.103 380.475C487.293 379.167 487.473 377.868 487.574 376.55C487.754 375.252 487.854 373.923 488.135 372.645C488.595 370.048 489.347 367.51 490.358 365.093C491.37 362.686 492.692 360.289 494.715 358.601H494.735C494.735 358.601 494.785 358.501 494.755 358.451C494.725 358.401 494.665 358.391 494.615 358.421L494.635 358.411Z" fill="#27314A"/>
<path d="M470.676 373.414C470.115 366.761 469.013 360.179 467.971 353.597C466.93 347.014 465.778 340.452 464.576 333.91C463.324 327.367 462.022 320.835 460.609 314.332C460.599 314.282 460.539 314.242 460.489 314.252C460.429 314.262 460.399 314.312 460.409 314.372C461.551 320.925 462.582 327.497 463.554 334.079C464.556 340.652 465.497 347.234 466.329 353.836C467.14 360.439 467.781 367.051 468.612 373.633L471.056 393.431C471.056 393.431 471.106 393.52 471.157 393.52C471.217 393.52 471.267 393.48 471.267 393.421C471.347 391.752 471.347 390.084 471.387 388.416C471.397 386.748 471.317 385.08 471.287 383.412C471.227 380.066 470.936 376.75 470.686 373.424L470.676 373.414Z" fill="#27314A"/>
<path d="M466.679 373.324C466.319 370.687 465.838 368.07 465.337 365.463L464.406 361.577C464.095 360.279 463.805 358.99 463.424 357.712C462.092 352.558 460.389 347.494 458.326 342.589L457.524 340.761L456.633 338.974C456.072 337.765 455.381 336.616 454.74 335.458C453.347 333.19 451.895 330.933 449.922 329.095C449.882 329.055 449.822 329.055 449.782 329.095C449.741 329.135 449.741 329.205 449.782 329.245H449.792C451.615 331.143 452.947 333.47 454.199 335.767C454.78 336.946 455.391 338.115 455.892 339.333L456.673 341.141L457.364 342.989C459.207 347.913 460.689 352.967 461.811 358.111C462.422 360.668 462.823 363.275 463.314 365.852L463.935 369.748C464.165 371.046 464.436 372.335 464.626 373.633C465.047 376.23 465.517 378.827 465.978 381.424C466.379 384.031 466.86 386.638 467.41 389.245C467.41 389.295 467.461 389.335 467.511 389.335C467.571 389.335 467.611 389.285 467.611 389.235C467.621 386.578 467.561 383.921 467.42 381.265C467.27 378.608 466.95 375.971 466.669 373.324H466.679Z" fill="#27314A"/>
<path d="M461.16 373.663C459.928 370.177 458.496 366.761 456.933 363.415C455.331 360.089 453.608 356.813 451.625 353.707C451.595 353.667 451.534 353.647 451.484 353.677C451.434 353.707 451.414 353.766 451.444 353.816C453.177 357.053 454.65 360.419 455.982 363.825C457.334 367.221 458.556 370.677 459.578 374.183C460.619 377.689 461.371 381.255 462.302 384.771C463.284 388.286 464.075 391.842 465.167 395.398C465.177 395.438 465.217 395.478 465.267 395.478C465.327 395.478 465.377 395.428 465.377 395.378C465.427 391.663 465.067 387.947 464.335 384.311C463.684 380.655 462.392 377.149 461.16 373.663Z" fill="#27314A"/>
<path d="M460.93 385.28C460.299 383.092 459.217 381.055 457.995 379.137C456.793 377.209 455.401 375.391 453.718 373.843C452.857 373.094 451.975 372.385 451.003 371.796C450.042 371.196 449.03 370.697 447.918 370.407C447.868 370.397 447.818 370.417 447.798 370.467C447.778 370.517 447.798 370.577 447.848 370.607H447.858C449.852 371.496 451.544 372.964 452.967 374.572C454.409 376.18 455.571 378.028 456.533 379.956C457.544 381.864 458.065 383.981 458.947 385.949C459.337 386.958 459.718 387.977 460.169 388.986C460.549 390.014 460.97 391.043 461.511 392.062C461.511 392.062 461.561 392.122 461.601 392.122C461.661 392.122 461.711 392.082 461.711 392.022C461.761 390.883 461.691 389.755 461.581 388.626C461.421 387.507 461.18 386.399 460.91 385.3L460.93 385.28Z" fill="#27314A"/>
<path d="M461.35 323.851C461.35 323.851 450.422 321.334 447.898 309.598C445.374 297.861 453.497 302.895 446.216 284.457C438.934 266.018 440.616 261.823 443.13 256.519C445.655 251.215 447.057 252.883 449.291 259.875C451.534 266.857 459.658 277.754 462.743 298.151C465.828 318.547 461.34 323.851 461.34 323.851H461.35Z" fill="white"/>
<path d="M482.916 304.014C482.916 304.014 475.634 301.497 475.353 287.813C475.073 274.119 480.672 276.916 481.514 259.875C482.355 242.835 483.477 230.819 486.552 230.539C489.637 230.26 497.76 238.92 500.565 257.918C503.369 276.916 496.919 289.491 491.32 295.074C485.72 300.658 482.916 304.014 482.916 304.014Z" fill="white"/>
<path d="M457.424 340.342C457.424 340.342 455.741 330.284 452.386 325.539C449.02 320.785 441.738 316.6 436.98 307.38C432.212 298.161 426.894 293.686 427.174 306.821C427.455 319.956 433.334 326.658 440.626 331.133C447.908 335.607 457.434 340.352 457.434 340.352L457.424 340.342Z" fill="white"/>
<path d="M454.339 357.662C454.339 357.662 447.618 344.807 437.812 335.308C428.006 325.809 420.163 321.054 422.957 325.809C425.762 330.563 429.117 330.284 433.885 338.664C438.653 347.044 437.251 353.197 443.972 357.942C450.693 362.696 454.339 357.662 454.339 357.662Z" fill="white"/>
<path d="M453.497 374.143C453.217 373.304 452.936 367.161 443.411 362.127C433.885 357.103 424.92 359.05 426.042 361.567C427.164 364.084 433.044 368.27 438.933 370.787C444.813 373.304 453.507 374.143 453.507 374.143H453.497Z" fill="white"/>
<path d="M482.355 340.901C482.355 340.901 478.148 335.598 480.392 324.42C482.635 313.243 487.674 316.04 493.283 310.167C498.882 304.304 497.77 303.465 503.369 297.312C508.969 291.169 514.017 287.813 516.261 290.33C518.504 292.847 515.139 300.668 511.773 305.143C508.408 309.618 503.089 311.845 500.565 317.439C498.041 323.022 499.163 331.972 492.722 336.157C486.281 340.352 482.355 340.901 482.355 340.901Z" fill="white"/>
<path d="M496.368 343.968C496.368 343.968 506.454 332.511 513.736 324.131C521.018 315.751 523.823 309.318 524.103 314.912C524.384 320.495 526.628 324.97 520.738 332.231C514.858 339.493 496.358 343.968 496.358 343.968H496.368Z" fill="white"/>
<path d="M491.049 362.416C491.049 362.416 490.769 357.942 506.735 347.604C522.701 337.266 529.432 335.308 527.749 339.503C526.067 343.698 519.065 347.883 511.503 355.425C503.94 362.966 491.049 362.406 491.049 362.406V362.416Z" fill="white"/>
<path d="M462.011 322.662C462.011 322.662 458.265 302.616 454.339 288.372C450.412 274.129 447.898 265.459 447.898 265.459" stroke="#27314A" stroke-linecap="round" stroke-linejoin="round"/>
<path d="M482.275 304.234C482.275 304.234 489.086 282.509 491.33 269.374C493.573 256.24 491.049 246.461 489.927 240.598" stroke="#27314A" stroke-linecap="round" stroke-linejoin="round"/>
<path d="M456.542 339.923C456.542 339.923 452.386 332.521 446.215 325.26C440.055 317.998 435.288 314.082 432.483 307.101" stroke="#27314A" stroke-linecap="round" stroke-linejoin="round"/>
<path d="M482.355 340.901C482.355 340.901 484.599 327.487 489.917 320.505C495.236 313.523 505.884 302.626 510.091 295.644" stroke="#27314A" stroke-linecap="round" stroke-linejoin="round"/>
<path d="M452.846 373.843C452.846 373.843 443.421 367.72 436.69 364.374" stroke="#27314A" stroke-linecap="round" stroke-linejoin="round"/>
<path d="M480.262 433.095H467.931C465.748 433.095 463.774 431.786 462.933 429.778C458.906 420.15 448.139 392.362 454.619 384.481C460.79 376.97 487.393 376.97 493.563 384.481C500.044 392.362 489.286 420.15 485.25 429.778C484.408 431.786 482.435 433.095 480.252 433.095H480.262Z" fill="#27314A"/>
<path d="M320.82 242.795H280.113V294.415H320.82V242.795Z" fill="#27314A" stroke="#27314A" stroke-linecap="round" stroke-linejoin="round"/>
<path d="M351.46 179.798L346.963 193.582L354.355 195.82L351.46 179.798Z" fill="#E14D78" stroke="#27314A" stroke-linecap="round" stroke-linejoin="round"/>
<path d="M355.196 268.805C355.196 268.805 354.465 310.397 355.927 322.093C357.39 333.79 375.75 375.132 377.212 381.115C378.675 387.098 383.332 401.281 383.332 401.281C383.332 401.281 380.638 406.765 381.129 409.502C381.619 412.239 381.619 414.486 381.619 414.486C381.619 414.486 382.841 415.485 376.721 418.971C370.601 422.457 359.102 424.444 358.862 427.191C358.622 429.928 361.306 431.676 364.241 432.175C367.176 432.675 376.721 431.426 378.434 431.177C380.147 430.927 396.053 428.19 398.988 428.19C401.923 428.19 403.886 429.439 404.858 422.956C405.839 416.484 402.904 403.279 402.904 403.279C402.904 403.279 401.682 383.112 397.275 367.171C392.868 351.229 384.063 318.108 384.554 316.37C385.045 314.622 386.267 269.804 386.267 269.804L355.196 268.805Z" fill="#E14D78" stroke="#27314A" stroke-linecap="round" stroke-linejoin="round"/>
<path d="M398.998 428.18C401.722 428.18 403.595 429.239 404.637 424.245C400.701 423.466 396.634 422.567 394.5 421.807C389.562 420.049 381.619 414.476 381.619 414.476C381.619 414.476 382.841 415.475 376.721 418.961C370.601 422.447 359.102 424.434 358.862 427.181C358.622 429.928 361.306 431.666 364.241 432.165C367.176 432.665 376.721 431.416 378.434 431.167C380.147 430.917 396.053 428.18 398.988 428.18H398.998Z" fill="white" stroke="#27314A" stroke-linecap="round" stroke-linejoin="round"/>
<path d="M374.277 270.293C374.277 270.293 375.009 313.873 377.703 326.079C380.398 338.284 382.842 374.393 383.082 379.367C383.322 384.341 383.322 400.532 383.322 401.281C383.322 402.03 382.341 417.473 382.341 417.473C382.341 417.473 375.98 421.957 373.286 423.945C370.591 425.933 362.518 427.181 362.278 429.179C362.037 431.177 366.685 435.651 370.842 436.401C374.999 437.15 398.487 433.414 401.182 433.414C403.876 433.414 408.033 432.915 409.255 432.415C410.477 431.916 410.727 429.179 410.727 425.943C410.727 422.706 410.237 419.72 410.727 416.973C411.218 414.236 413.171 387.837 411.949 374.642C410.727 361.448 407.302 348.243 407.542 333.8C407.782 319.356 410.477 305.412 411.459 296.942C412.44 288.472 415.866 267.806 415.866 267.806L374.267 270.293H374.277Z" fill="#E14D78" stroke="#27314A" stroke-linecap="round" stroke-linejoin="round"/>
<path d="M357.44 273.619L373.536 277.445L400.35 272.531L357.44 273.619Z" fill="#27314A" stroke="#27314A" stroke-linecap="round" stroke-linejoin="round"/>
<path d="M403.896 361.098C404.717 362.616 405.519 363.955 406.29 365.053" stroke="#27314A" stroke-linecap="round" stroke-linejoin="round"/>
<path d="M384.364 310.557C384.364 310.557 393.459 339.313 401.482 356.304" stroke="#27314A" stroke-linecap="round" stroke-linejoin="round"/>
<path d="M382.361 417.473C382.361 417.473 376 421.957 373.306 423.945C370.611 425.933 362.538 427.181 362.298 429.179C362.057 431.177 366.705 435.651 370.862 436.401C375.019 437.15 398.507 433.414 401.202 433.414C403.896 433.414 408.053 432.915 409.275 432.415C410.497 431.916 410.747 429.179 410.747 425.943C410.747 425.943 398.437 425.114 391.886 423.166C385.336 421.218 382.361 417.473 382.361 417.473Z" fill="white" stroke="#27314A" stroke-linecap="round" stroke-linejoin="round"/>
<path d="M378.404 433.614C372.274 434.203 367.035 433.084 363.72 432.046C365.373 433.943 368.207 435.921 370.852 436.391C375.009 437.14 398.497 433.404 401.192 433.404C403.886 433.404 408.043 432.905 409.265 432.405C410.116 432.056 410.487 430.617 410.637 428.68C401.712 430.228 385.786 432.905 378.394 433.604L378.404 433.614Z" fill="white" stroke="#27314A" stroke-linecap="round" stroke-linejoin="round"/>
<path d="M298.473 236.083H275.044V240.877H275.145V347.644H181.561V350.221H275.145V372.055H278.38V350.221V347.644V240.877H298.473V236.083Z" fill="white"/>
<path d="M302.98 234.764H282.557V242.366H302.98V234.764Z" fill="#27314A" stroke="#27314A" stroke-linecap="round" stroke-linejoin="round"/>
<path d="M266.27 313.533C236.701 313.533 212.732 340.352 212.732 373.424C212.732 406.495 236.701 433.314 266.27 433.314C295.838 433.314 319.808 406.495 319.808 373.424C319.808 340.352 295.838 313.533 266.27 313.533ZM266.27 426.952C239.846 426.952 218.431 402.989 218.431 373.434C218.431 343.878 239.846 319.916 266.27 319.916C292.693 319.916 314.108 343.878 314.108 373.434C314.108 402.989 292.693 426.952 266.27 426.952Z" fill="white"/>
<path d="M313.317 396.497H307.467C310.903 389.675 312.866 381.804 312.866 373.424C312.866 347.404 294.015 326.308 270.747 326.308C260.731 326.308 251.536 330.234 244.304 336.766H227.466V338.854H242.15C233.837 347.464 228.638 359.759 228.638 373.434C228.638 389.085 235.469 402.949 245.976 411.52H230.03V413.607H248.29V413.277C254.791 417.872 262.494 420.549 270.757 420.549C285.742 420.549 298.893 411.779 306.356 398.594H313.317V396.507V396.497ZM309.932 373.424C309.932 384.381 306.326 394.399 300.386 402.08L283.989 377.549C284.52 376.23 284.82 374.782 284.82 373.244C284.82 369.578 283.148 366.362 280.623 364.524L285.511 332.831C299.835 339.353 309.932 355.065 309.932 373.434V373.424ZM270.757 329.594C274.303 329.594 277.739 330.134 281.004 331.123C280.323 334.199 276.226 352.648 273.862 363.096C269.926 364.025 266.931 367.87 266.66 372.555C256.884 376.031 237.172 382.263 232.675 383.682C231.973 380.396 231.583 376.96 231.583 373.424C231.583 349.222 249.122 329.594 270.757 329.594ZM234.377 389.695L269.495 380.785C271.118 382.523 273.301 383.602 275.715 383.602C276.797 383.602 277.829 383.372 278.79 382.983L296.509 406.435C289.618 413.168 280.623 417.253 270.757 417.253C254.26 417.253 240.157 405.846 234.377 389.695Z" fill="white"/>
<path d="M351.119 193.053L346.502 205.438C346.502 205.438 308.179 224.197 304.633 226.314C301.087 228.442 285.822 233.396 285.822 233.396C285.822 233.396 283.338 244.363 284.76 245.072C286.183 245.782 289.017 245.782 289.017 245.782L292.563 242.955C292.563 242.955 297.882 243.664 298.954 243.304C300.015 242.955 302.97 234.764 302.97 234.764L354.665 222.069L356.438 188.448L351.119 193.053Z" fill="#FFCCB2" stroke="#27314A" stroke-linecap="round" stroke-linejoin="round"/>
<path d="M127.051 414.626L123.616 412.578L159.064 352.688C160.707 349.941 163.732 348.233 166.947 348.233H182.983V352.228H166.947C165.134 352.228 163.431 353.187 162.51 354.745L127.061 414.636L127.051 414.626Z" fill="white" stroke="#27314A" stroke-linecap="round" stroke-linejoin="round"/>
<path d="M183.324 338.714H276.046V303.195C276.046 303.195 216.488 298.301 183.634 325.549L183.324 338.714Z" fill="#27314A" stroke="#27314A" stroke-linecap="round" stroke-linejoin="round"/>
<path d="M279.492 282.349H258.678V285.346H279.492V282.349Z" stroke="#27314A" stroke-linecap="round" stroke-linejoin="round"/>
<path d="M258.678 287.343H194.402C192.469 287.343 190.896 285.775 190.896 283.848C190.896 281.92 192.469 280.352 194.402 280.352H258.678C260.611 280.352 262.183 281.92 262.183 283.848C262.183 285.775 260.611 287.343 258.678 287.343Z" fill="#27314A"/>
<path d="M184.696 386.958H181.691V287.204C181.691 284.537 183.875 282.359 186.549 282.359H194.402V285.356H186.549C185.527 285.356 184.696 286.185 184.696 287.204V386.958Z" fill="white" stroke="#27314A" stroke-linecap="round" stroke-linejoin="round"/>
<path d="M180.68 386.039V407.704C180.68 407.704 179.127 412.788 179.307 414.776C179.628 418.332 187.08 407.704 187.08 407.704V386.039H180.68Z" fill="#27314A" stroke="#27314A" stroke-linecap="round" stroke-linejoin="round"/>
<path d="M181.461 390.094C169.651 390.094 160.086 399.643 160.086 411.41C160.086 423.176 169.661 432.725 181.461 432.725C193.26 432.725 202.836 423.176 202.836 411.41C202.836 399.643 193.26 390.094 181.461 390.094ZM196.125 409.772C191.948 409.012 181.541 406.306 175.942 397.765C177.645 397.076 179.508 396.687 181.461 396.687C189.053 396.687 195.304 402.41 196.125 409.772ZM171.074 400.962C172.316 402.989 175.541 409.012 174.289 415.245C173.468 419.35 171.935 420.889 170.693 421.448C168.229 418.821 166.707 415.295 166.707 411.41C166.707 407.324 168.379 403.629 171.074 400.962ZM181.471 426.123C180.028 426.123 178.646 425.903 177.334 425.523C179.608 421.678 184.826 415.835 195.263 416.624C193.15 422.167 187.781 426.123 181.481 426.123H181.471Z" fill="#27314A" stroke="#27314A" stroke-linecap="round" stroke-linejoin="round"/>
<path d="M260.25 214.118C260.25 214.118 248.261 214.917 241.069 221.889C233.877 228.861 203.116 277.864 203.116 277.864L233.476 279.652L227.887 304.154L294.006 315.111C294.006 315.111 296.199 319.097 299.595 299.369C302.99 279.652 310.383 250.966 310.383 241.397C310.383 231.828 306.586 221.28 301.989 217.494C297.391 213.709 283.008 210.922 283.008 210.922L260.23 214.108L260.25 214.118Z" fill="white" stroke="#27314A" stroke-linecap="round" stroke-linejoin="round"/>
<path d="M241.95 242.685L243.513 236.632" stroke="#27314A" stroke-linecap="round" stroke-linejoin="round"/>
<path d="M234.588 271.082L240.758 247.26" stroke="#27314A" stroke-linecap="round" stroke-linejoin="round"/>
<path d="M228.578 268.485C228.578 268.485 221.316 265.139 215.376 265.139C209.437 265.139 205.31 269.244 202.335 274.039C199.36 278.833 207.824 281.79 211.941 282.02C216.058 282.249 218.932 281.88 224.421 281.88C229.91 281.88 234.348 293.217 234.348 293.217C234.348 293.217 235.259 298.011 237.553 301.197C239.837 304.394 238.925 305.532 240.297 305.992C241.67 306.451 244.414 305.303 244.645 303.255C244.875 301.197 247.239 297.372 245.105 290.71C238.835 271.172 228.578 268.495 228.578 268.495V268.485Z" fill="#FFCCB2" stroke="#27314A" stroke-linecap="round" stroke-linejoin="round"/>
<path d="M237.683 294.066L240.888 304.094" stroke="#27314A" stroke-linecap="round" stroke-linejoin="round"/>
<path d="M240.468 293.426C240.468 293.426 243.463 300.039 243.242 304.304L240.468 293.426Z" fill="#FFCCB2"/>
<path d="M240.468 293.426C240.468 293.426 243.463 300.039 243.242 304.304" stroke="#27314A" stroke-linecap="round" stroke-linejoin="round"/>
<path d="M243.463 292.368C243.463 292.368 245.155 295.394 245.155 300.508L243.463 292.368Z" fill="#FFCCB2"/>
<path d="M243.463 292.368C243.463 292.368 245.155 295.394 245.155 300.508" stroke="#27314A" stroke-linecap="round" stroke-linejoin="round"/>
<path d="M262.253 209.144C262.253 209.144 257.055 212.53 254.861 217.115C252.668 221.7 251.466 225.485 253.068 225.885C254.671 226.284 264.056 222.698 264.056 222.698C264.056 222.698 269.255 221.3 270.647 221.899C272.05 222.499 276.437 227.872 280.233 229.271C284.029 230.669 289.027 220.701 290.42 213.729C291.822 206.757 285.221 205.558 285.221 205.558C285.221 205.558 266.24 206.357 262.243 209.144H262.253Z" fill="white" stroke="#27314A" stroke-linecap="round" stroke-linejoin="round"/>
<path d="M288.627 156.555C288.627 156.555 281.836 151.97 269.045 153.968C256.264 155.956 250.464 164.726 250.063 169.111C249.663 173.495 249.262 175.683 249.062 182.655C248.861 189.627 249.262 198.596 251.856 201.783C254.451 204.969 258.648 207.955 259.849 209.554C261.051 211.152 263.045 221.31 264.046 222.698C265.048 224.097 267.642 225.285 269.045 222.898C271.248 219.133 275.014 216.356 278.54 213.909C279.362 213.339 287.505 208.715 287.024 207.556C287.024 207.556 286.022 205.169 287.024 199.785C288.026 194.411 289.017 193.812 289.017 193.812C289.017 193.812 297.612 193.612 297.612 185.841C297.612 178.07 295.418 177.271 295.418 177.271C295.418 177.271 297.211 162.928 288.627 156.555Z" fill="#FFCCB2" stroke="#27314A" stroke-linecap="round" stroke-linejoin="round"/>
<path d="M289.017 159.342C289.017 159.342 282.026 162.928 281.825 166.513C281.625 170.099 286.022 172.886 286.423 173.685C286.824 174.484 285.221 179.059 286.824 179.858C288.426 180.657 290.189 179.259 290.219 178.26C290.289 175.982 294.827 175.613 295.418 177.261C295.418 177.261 297.611 177.061 297.02 168.891C296.429 160.72 292.824 156.345 289.027 159.332L289.017 159.342Z" fill="#27314A" stroke="#27314A" stroke-linecap="round" stroke-linejoin="round"/>
<path d="M288.627 156.555C288.627 156.555 286.633 158.353 282.837 160.54C279.041 162.728 275.245 162.928 269.856 161.14C264.467 159.352 258.067 158.752 255.673 160.74C253.279 162.728 250.083 164.726 250.083 166.913C250.083 169.1 246.488 162.528 249.082 158.543C251.676 154.557 255.673 154.358 255.673 154.358C255.673 154.358 258.668 147.386 262.664 146.786C266.661 146.187 289.037 148.384 288.637 156.545L288.627 156.555Z" fill="#27314A" stroke="#27314A" stroke-linecap="round" stroke-linejoin="round"/>
<path d="M259.659 173.286L260.45 178.07L258.257 191.415L263.846 192.413" stroke="#27314A" stroke-linecap="round" stroke-linejoin="round"/>
<path d="M259.058 195.4C259.058 195.4 264.848 198.586 270.647 194.601" stroke="#27314A" stroke-linecap="round" stroke-linejoin="round"/>
<path d="M258.257 205.558C258.257 205.558 261.051 209.144 263.455 210.143C265.849 211.142 268.654 211.142 270.046 210.542C271.448 209.943 274.443 205.958 274.443 205.958" stroke="#27314A" stroke-linecap="round" stroke-linejoin="round"/>
<path d="M265.449 171.887C265.449 171.887 270.647 170.489 275.034 173.286" stroke="#27314A" stroke-linecap="round" stroke-linejoin="round"/>
<path d="M257.456 171.887C257.456 171.887 255.853 170.089 251.466 171.887" stroke="#27314A" stroke-linecap="round" stroke-linejoin="round"/>
<path d="M271.839 180.357C271.839 181.626 271.348 182.645 270.737 182.645C270.126 182.645 269.635 181.616 269.635 180.357C269.635 179.099 270.126 178.07 270.737 178.07C271.348 178.07 271.839 179.099 271.839 180.357Z" fill="#27314A"/>
<path d="M256.564 180.357C256.564 181.626 256.073 182.645 255.462 182.645C254.851 182.645 254.36 181.616 254.36 180.357C254.36 179.099 254.851 178.07 255.462 178.07C256.073 178.07 256.564 179.099 256.564 180.357Z" fill="#27314A"/>
<path d="M268.444 183.444C268.444 183.444 270.437 186.031 273.832 186.83" stroke="#27314A" stroke-linecap="round" stroke-linejoin="round"/>
<path d="M258.457 182.445C258.457 182.445 254.861 184.832 252.868 185.432" stroke="#27314A" stroke-linecap="round" stroke-linejoin="round"/>
<path d="M279.832 263.521C279.832 263.521 260.45 265.908 245.275 271.492C230.09 277.065 217.58 287.224 216.939 288.492C216.037 290.29 212.131 296.882 211.53 298.381C210.929 299.879 215.436 299.879 217.54 299.879C219.643 299.879 224.451 295.384 225.353 294.485C226.254 293.586 222.949 298.68 225.954 298.68C228.959 298.68 229.259 294.485 230.461 293.586C231.663 292.687 232.535 291.638 234.368 288.492C236.201 285.346 239.406 286.434 237.803 283.388C237.463 282.749 236.691 282.249 235.7 281.88C257.576 281.62 296.139 281.141 297.421 280.851C299.214 280.451 300.616 276.466 300.616 276.466C300.616 276.466 291.031 262.522 279.842 263.521H279.832Z" fill="#FFCCB2" stroke="#27314A" stroke-linecap="round" stroke-linejoin="round"/>
<path d="M233.476 287.104C233.476 287.104 230.882 288.512 228.758 289.93C226.635 291.339 222.037 291.928 221.446 292.637C220.855 293.347 215.316 297.462 214.485 298.281" stroke="#27314A" stroke-miterlimit="10"/>
<path d="M292.022 229.66L279.832 263.521C279.832 263.521 286.223 264.32 291.421 269.494C296.62 274.668 301.207 279.852 301.207 279.852C301.207 279.852 309 261.324 310.002 245.792C311.003 230.25 303.211 219.692 299.214 218.104" fill="white"/>
<path d="M292.022 229.66L279.832 263.521C279.832 263.521 286.223 264.32 291.421 269.494C296.62 274.668 301.207 279.852 301.207 279.852C301.207 279.852 309 261.324 310.002 245.792C311.003 230.25 303.211 219.692 299.214 218.104" stroke="#27314A" stroke-linecap="round" stroke-linejoin="round"/>
<path d="M342.485 236.083H323.073C320.86 236.083 319.057 237.881 319.057 240.088V240.877H319.157V347.644H225.573V350.231H319.157V372.065H322.392V240.877H342.485V236.083Z" fill="white" stroke="#27314A" stroke-linecap="round" stroke-linejoin="round"/>
<path d="M346.993 234.764H326.569V242.366H346.993V234.764Z" fill="#27314A" stroke="#27314A" stroke-linecap="round" stroke-linejoin="round"/>
<path d="M148.421 416.46L115.745 406.542L114.485 410.67L147.161 420.588L148.421 416.46Z" fill="#27314A" stroke="#27314A" stroke-linecap="round" stroke-linejoin="round"/>
<path d="M176.993 300.778C176.993 300.778 164.984 294.186 155.368 299.579C150.209 302.476 149.358 325.339 148.757 335.518C148.156 345.706 144.851 393.321 144.851 393.321C144.851 393.321 143.048 393.62 141.846 394.22C140.644 394.819 139.442 399.014 139.442 399.014C139.442 399.014 135.535 399.913 128.333 399.314C121.122 398.714 117.816 401.112 121.122 405.606C124.427 410.101 121.422 409.202 134.634 413.397C147.845 417.593 155.057 418.791 155.057 418.791C155.057 418.791 158.964 421.188 160.767 419.39C162.57 417.593 162.269 414.596 161.969 411.3C161.668 408.004 163.171 399.923 163.171 399.024C163.171 398.125 167.678 392.132 168.279 381.355C168.88 370.567 169.181 369.079 169.481 366.682C169.782 364.284 174.589 332.241 174.589 332.241C174.589 332.241 212.792 337.735 219.343 338.235C225.894 338.734 228.959 337.635 228.959 337.635L176.993 300.798V300.778Z" fill="#E14D78" stroke="#27314A" stroke-linecap="round" stroke-linejoin="round"/>
<path d="M160.897 335.458C161.748 344.927 163.601 360.099 167.277 369.858" stroke="#27314A" stroke-miterlimit="10"/>
<path d="M160.266 326.868C160.266 326.868 160.346 328.496 160.546 331.163" stroke="#27314A" stroke-miterlimit="10"/>
<path d="M128.333 399.314C121.122 398.714 117.816 401.112 121.122 405.606C124.427 410.101 121.422 409.202 134.634 413.397C147.845 417.593 155.057 418.791 155.057 418.791C155.057 418.791 158.964 421.188 160.767 419.39C162.419 417.742 162.299 415.095 162.039 412.129C159.645 411.579 155.618 410.421 152.693 408.333C148.276 405.187 139.442 399.024 139.442 399.024C139.442 399.024 135.535 399.923 128.333 399.324V399.314Z" fill="white" stroke="#27314A" stroke-linecap="round" stroke-linejoin="round"/>
<path d="M294.015 315.121C294.015 315.121 249.372 305.273 215.136 300.478C180.9 295.684 173.988 296.882 172.486 302.276C170.983 307.67 167.377 390.334 167.377 390.334C167.377 390.334 160.466 390.634 160.166 392.432C159.865 394.229 158.062 401.421 158.062 401.421C158.062 401.421 146.653 403.519 140.644 402.62C134.634 401.721 132.23 400.522 132.53 404.418C132.831 408.313 137.939 411.01 149.648 416.394C161.358 421.788 174.629 427.191 177.304 425.543C179.978 423.895 177.704 414.985 179.297 414.796C180.88 414.606 183.584 405.616 185.087 402.919C186.589 400.223 186.589 394.829 186.589 393.93C186.589 393.031 190.195 369.968 192.599 363.076C195.003 356.184 201.013 328.636 201.013 328.636C201.013 328.636 219.393 334.728 222.638 336.726L225.884 338.724C225.884 338.724 273.091 342.42 283.308 334.329C293.525 326.238 294.005 315.131 294.005 315.131L294.015 315.121Z" fill="#E14D78" stroke="#27314A" stroke-linecap="round" stroke-linejoin="round"/>
<path d="M196.375 319.916C198.449 322.373 200.542 325.519 201.013 328.626" stroke="#27314A" stroke-miterlimit="10"/>
<path d="M191.788 315.321C191.788 315.321 192.799 316.15 194.161 317.518" stroke="#27314A" stroke-miterlimit="10"/>
<path d="M194.212 309.947C194.212 309.947 197.447 312.634 199.601 319.886" stroke="#27314A" stroke-miterlimit="10"/>
<path d="M140.654 402.61C134.644 401.711 132.24 400.512 132.54 404.408C132.841 408.303 137.949 411 149.658 416.384C161.368 421.778 174.639 427.181 177.314 425.533C179.988 423.885 177.714 414.975 179.307 414.786C179.307 414.786 172.686 416.094 166.696 411.42C160.707 406.745 158.062 401.421 158.062 401.421C158.062 401.421 146.653 403.519 140.644 402.62L140.654 402.61Z" fill="white" stroke="#27314A" stroke-linecap="round" stroke-linejoin="round"/>
<path d="M225.894 338.714H318.616V303.195C318.616 303.195 259.058 298.301 226.204 325.549L225.894 338.714Z" fill="#20A6D9" stroke="#27314A" stroke-linecap="round" stroke-linejoin="round"/>
<path d="M310.292 313.533C280.724 313.533 256.754 340.352 256.754 373.424C256.754 406.495 280.724 433.314 310.292 433.314C339.861 433.314 363.83 406.495 363.83 373.424C363.83 340.352 339.861 313.533 310.292 313.533ZM310.292 426.952C283.869 426.952 262.454 402.989 262.454 373.434C262.454 343.878 283.869 319.916 310.292 319.916C336.716 319.916 358.131 343.878 358.131 373.434C358.131 402.989 336.716 426.952 310.292 426.952Z" fill="#27314A" stroke="#27314A" stroke-linecap="round" stroke-linejoin="round"/>
<path d="M357.34 396.497H351.49C354.926 389.675 356.889 381.804 356.889 373.424C356.889 347.404 338.038 326.308 314.77 326.308C304.753 326.308 295.558 330.234 288.326 336.766H271.489V338.854H286.173C277.859 347.464 272.66 359.759 272.66 373.434C272.66 389.085 279.492 402.949 289.999 411.52H274.053V413.607H292.313V413.277C298.813 417.872 306.516 420.549 314.78 420.549C329.764 420.549 342.916 411.779 350.378 398.594H357.34V396.507V396.497ZM353.954 373.424C353.954 384.381 350.348 394.399 344.408 402.08L328.011 377.549C328.542 376.23 328.843 374.782 328.843 373.244C328.843 369.578 327.17 366.362 324.646 364.524L329.534 332.831C343.857 339.353 353.954 355.065 353.954 373.434V373.424ZM314.78 329.594C318.325 329.594 321.761 330.134 325.026 331.123C324.345 334.199 320.249 352.648 317.885 363.096C313.948 364.025 310.953 367.87 310.683 372.555C300.907 376.031 281.194 382.263 276.697 383.682C275.996 380.396 275.605 376.96 275.605 373.424C275.605 349.222 293.144 329.594 314.78 329.594ZM278.4 389.695L313.518 380.785C315.14 382.523 317.324 383.602 319.738 383.602C320.82 383.602 321.851 383.372 322.813 382.983L340.532 406.435C333.641 413.168 324.646 417.253 314.78 417.253C298.283 417.253 284.179 405.846 278.4 389.695Z" fill="#27314A"/>
<path d="M162.91 425.194L159.475 423.146L201.664 352.688C203.307 349.941 206.332 348.233 209.547 348.233H225.583V352.228H209.547C207.734 352.228 206.031 353.187 205.11 354.745L162.92 425.204L162.91 425.194Z" fill="white" stroke="#27314A" stroke-linecap="round" stroke-linejoin="round"/>
<path d="M374.488 129.526C374.488 129.526 353.634 161.899 352.131 168.112C350.629 174.324 349.336 197.268 350.839 205.418C352.341 213.569 345.25 273.589 345.25 273.589C345.25 273.589 366.314 274.878 391.476 274.019C416.627 273.16 423.719 271.871 423.719 271.871C423.719 271.871 426.944 261.154 421.355 238.64C415.766 216.126 408.674 207.336 407.161 193.622C405.659 179.898 414.473 168.321 408.454 144.529C402.434 120.737 393.409 121.376 393.409 121.376C393.409 121.376 382.01 122.015 374.488 129.526Z" fill="#E14D78" stroke="#27314A" stroke-linecap="round" stroke-linejoin="round"/>
<path d="M349.977 79.2946C349.977 79.2946 346.552 87.0156 347.814 92.0098C349.086 97.004 351.059 101.189 350.538 103.926C350.018 106.663 345.961 110.359 347.824 111.937C349.697 113.515 351.891 113.495 351.891 113.495C351.891 113.495 358.902 123.863 360.345 125.531C361.797 127.199 370.822 123.124 370.822 123.124L374.918 138.526L393.409 121.376L387.499 106.283C387.499 106.283 394.471 98.6921 390.444 86.8358C386.417 74.9796 373.656 71.7233 366.655 71.8732C359.653 72.023 353.123 76.4479 349.977 79.2946Z" fill="#FFCCB3" stroke="#27314A" stroke-linecap="round" stroke-linejoin="round"/>
<path d="M342.866 79.9039C342.866 79.9039 354.275 87.1654 369.339 92.9987C369.339 92.9987 377.964 100.62 378.925 98.8819C379.877 97.1539 379.316 90.2619 383.423 92.0298C387.529 93.7978 388.24 98.2526 387.299 101.079C386.357 103.906 385.656 105.804 385.656 105.804C385.656 105.804 387.97 109.48 389.022 109.26C390.073 109.04 394.891 100.59 394.451 89.0732C394.01 77.5566 386.968 68.0776 376.581 66.7391C366.194 65.4007 353.543 70.0153 347.854 74.2704C342.155 78.5255 341.694 78.4056 342.886 79.9039H342.866Z" fill="#27314A" stroke="#27314A" stroke-linecap="round" stroke-linejoin="round"/>
<path d="M394.36 96.0951C394.36 96.0951 393.85 90.5116 400.701 92.7989C407.552 95.0962 410.998 103.137 409.776 107.772C408.554 112.406 398.978 117.031 395.242 113.874C391.506 110.718 391.045 106.423 391.245 105.294C391.446 104.156 394.37 96.1051 394.37 96.1051L394.36 96.0951Z" fill="#27314A" stroke="#27314A" stroke-linecap="round" stroke-linejoin="round"/>
<path d="M355.947 115.063C355.947 115.063 360.234 113.515 362.097 109.839" stroke="#27314A" stroke-linecap="round" stroke-linejoin="round"/>
<path d="M370.822 123.124L377.322 119.578L372.334 127.599L370.822 123.124Z" fill="#27314A" stroke="#27314A" stroke-linecap="round" stroke-linejoin="round"/>
<path d="M357.47 101.379C357.76 102.767 357.48 104.006 356.839 104.136C356.198 104.266 355.447 103.247 355.156 101.858C354.866 100.47 355.146 99.2315 355.787 99.1016C356.428 98.9718 357.179 99.9906 357.47 101.379Z" fill="#27314A"/>
<path d="M351.951 97.0539C351.951 97.0539 353.483 93.8876 357.17 95.7455" stroke="#27314A" stroke-linecap="round" stroke-linejoin="round"/>
<path d="M362.669 186.56H351.24V209.434H362.669V186.56Z" fill="white" stroke="#27314A" stroke-linecap="round" stroke-linejoin="round"/>
<path d="M393.409 121.386L354.285 186.77L395.983 122.455L393.409 121.386Z" fill="#27314A" stroke="#27314A" stroke-linecap="round" stroke-linejoin="round"/>
<path d="M372.765 129.956L354.285 186.77L374.037 135.999L372.765 129.956Z" fill="#27314A" stroke="#27314A" stroke-linecap="round" stroke-linejoin="round"/>
<path d="M335.143 231.858C335.143 231.858 327.831 244.723 328.482 245.362C329.123 246.001 332.569 246.001 332.569 246.001L335.574 244.933C335.574 244.933 339.44 246.431 342.235 246.001C345.029 245.572 349.326 239.789 349.977 238.071C350.619 236.353 359.283 233.376 367.987 230.3C380.908 225.735 403.235 209.164 404.307 208.745C405.378 208.315 408.604 204.46 408.604 204.46L410.357 184.603L390.143 181.816L388.391 196.319C388.391 196.319 377.052 210.423 365.874 218.353C354.695 226.284 347.814 229.93 347.173 230.36C346.532 230.789 338.358 230.999 335.133 231.858H335.143Z" fill="#FFCCB2" stroke="#27314A" stroke-linecap="round" stroke-linejoin="round"/>
<path d="M394.05 130.425C394.05 130.425 389.753 137.188 389.102 144.909C388.461 152.63 385.015 191.015 385.015 191.015L412.53 194.151C412.53 194.151 416.397 165.425 412.961 150.462C409.525 135.499 402.644 125.122 397.696 126.08" fill="#E14D78"/>
<path d="M394.05 130.425C394.05 130.425 389.753 137.188 389.102 144.909C388.461 152.63 385.015 191.015 385.015 191.015L412.53 194.151C412.53 194.151 416.397 165.425 412.961 150.462C409.525 135.499 402.644 125.122 397.696 126.08" stroke="#27314A" stroke-linecap="round" stroke-linejoin="round"/>
<path d="M173.715 425.079L141.039 415.161L139.779 419.289L172.455 429.207L173.715 425.079Z" fill="#27314A" stroke="#27314A" stroke-linecap="round" stroke-linejoin="round"/>
<path d="M319.157 282.349H300.466V285.346H319.157V282.349Z" fill="white" stroke="#27314A" stroke-linecap="round" stroke-linejoin="round"/>
<path d="M300.466 287.343H236.191C234.257 287.343 232.685 285.775 232.685 283.848C232.685 281.92 234.257 280.352 236.191 280.352H300.466C302.399 280.352 303.972 281.92 303.972 283.848C303.972 285.775 302.399 287.343 300.466 287.343Z" fill="#27314A"/>
<path d="M226.485 386.958H223.48V287.204C223.48 284.537 225.663 282.359 228.338 282.359H236.191V285.356H228.338C227.316 285.356 226.485 286.185 226.485 287.204V386.958Z" fill="white" stroke="#27314A" stroke-linecap="round" stroke-linejoin="round"/>
<path d="M222.468 386.039V407.704C222.468 407.704 220.916 412.788 221.096 414.776C221.416 418.332 228.869 407.704 228.869 407.704V386.039H222.468Z" fill="#27314A" stroke="#27314A" stroke-linecap="round" stroke-linejoin="round"/>
<path d="M223.249 390.094C211.44 390.094 201.874 399.643 201.874 411.41C201.874 423.176 211.45 432.725 223.249 432.725C235.049 432.725 244.624 423.176 244.624 411.41C244.624 399.643 235.049 390.094 223.249 390.094ZM237.913 409.772C233.737 409.012 223.33 406.306 217.73 397.765C219.433 397.076 221.296 396.687 223.249 396.687C230.842 396.687 237.092 402.41 237.913 409.772ZM212.862 400.962C214.104 402.989 217.33 409.012 216.078 415.245C215.256 419.35 213.724 420.889 212.482 421.448C210.018 418.821 208.495 415.295 208.495 411.41C208.495 407.324 210.168 403.629 212.862 400.962ZM223.259 426.123C221.817 426.123 220.435 425.903 219.123 425.523C221.396 421.678 226.615 415.835 237.052 416.624C234.939 422.167 229.57 426.123 223.269 426.123H223.259Z" fill="#27314A" stroke="#27314A" stroke-linecap="round" stroke-linejoin="round"/>
</g>
<defs>
<filter id="filter0_f_1_5786" x="21.3137" y="3.20752" width="681.631" height="494.914" filterUnits="userSpaceOnUse" color-interpolation-filters="sRGB">
<feFlood flood-opacity="0" result="BackgroundImageFix"/>
<feBlend mode="normal" in="SourceGraphic" in2="BackgroundImageFix" result="shape"/>
<feGaussianBlur stdDeviation="32" result="effect1_foregroundBlur_1_5786"/>
</filter>
<clipPath id="clip0_1_5786">
<rect width="414" height="371" fill="white" transform="translate(114 66)"/>
</clipPath>
</defs>
</svg>
