<svg width="224" height="267" viewBox="0 0 224 267" fill="none" xmlns="http://www.w3.org/2000/svg">
<path d="M148.623 127.264H119.468V164.236H148.623V127.264Z" fill="#27314A" stroke="#27314A" stroke-linecap="round" stroke-linejoin="round"/>
<path d="M170.569 82.1442L167.348 92.0166L172.642 93.6191L170.569 82.1442Z" fill="#E14D78" stroke="#27314A" stroke-linecap="round" stroke-linejoin="round"/>
<path d="M173.245 145.893C173.245 145.893 172.721 175.682 173.769 184.059C174.816 192.436 187.966 222.047 189.014 226.332C190.061 230.617 193.397 240.776 193.397 240.776C193.397 240.776 191.467 244.703 191.819 246.663C192.17 248.624 192.17 250.233 192.17 250.233C192.17 250.233 193.045 250.949 188.662 253.445C184.279 255.942 176.043 257.366 175.871 259.333C175.699 261.293 177.621 262.545 179.723 262.903C181.825 263.26 188.662 262.366 189.889 262.187C191.116 262.009 202.508 260.048 204.61 260.048C206.712 260.048 208.118 260.943 208.814 256.3C209.517 251.664 207.415 242.206 207.415 242.206C207.415 242.206 206.54 227.763 203.383 216.345C200.227 204.927 193.921 181.205 194.272 179.96C194.624 178.708 195.499 146.608 195.499 146.608L173.245 145.893Z" fill="#E14D78" stroke="#27314A" stroke-linecap="round" stroke-linejoin="round"/>
<path d="M204.617 260.041C206.568 260.041 207.91 260.799 208.656 257.223C205.836 256.664 202.924 256.021 201.396 255.477C197.859 254.218 192.17 250.226 192.17 250.226C192.17 250.226 193.045 250.941 188.662 253.438C184.279 255.935 176.043 257.358 175.871 259.326C175.698 261.293 177.621 262.538 179.723 262.896C181.825 263.253 188.662 262.359 189.889 262.18C191.115 262.001 202.508 260.041 204.61 260.041H204.617Z" fill="white" stroke="#27314A" stroke-linecap="round" stroke-linejoin="round"/>
<path d="M186.912 146.959C186.912 146.959 187.436 178.171 189.365 186.914C191.295 195.656 193.046 221.517 193.218 225.08C193.39 228.643 193.39 240.239 193.39 240.776C193.39 241.312 192.687 252.372 192.687 252.372C192.687 252.372 188.131 255.584 186.202 257.008C184.272 258.432 178.49 259.326 178.317 260.757C178.145 262.187 181.474 265.392 184.451 265.929C187.428 266.465 204.252 263.79 206.181 263.79C208.111 263.79 211.088 263.432 211.964 263.074C212.839 262.717 213.018 260.757 213.018 258.439C213.018 256.121 212.667 253.982 213.018 252.014C213.37 250.054 214.769 231.146 213.893 221.696C213.018 212.246 210.565 202.788 210.737 192.444C210.909 182.099 212.839 172.112 213.542 166.046C214.245 159.979 216.698 145.177 216.698 145.177L186.905 146.959H186.912Z" fill="#E14D78" stroke="#27314A" stroke-linecap="round" stroke-linejoin="round"/>
<path d="M174.853 149.341L186.381 152.081L205.586 148.561L174.853 149.341Z" fill="#27314A" stroke="#27314A" stroke-linecap="round" stroke-linejoin="round"/>
<path d="M208.125 211.995C208.714 213.083 209.288 214.041 209.84 214.828" stroke="#27314A" stroke-linecap="round" stroke-linejoin="round"/>
<path d="M194.136 175.796C194.136 175.796 200.65 196.393 206.397 208.561" stroke="#27314A" stroke-linecap="round" stroke-linejoin="round"/>
<path d="M192.701 252.372C192.701 252.372 188.146 255.584 186.216 257.008C184.286 258.432 178.504 259.326 178.332 260.757C178.159 262.187 181.488 265.392 184.465 265.929C187.443 266.465 204.266 263.79 206.195 263.79C208.125 263.79 211.103 263.432 211.978 263.074C212.853 262.717 213.032 260.757 213.032 258.439C213.032 258.439 204.215 257.845 199.524 256.45C194.832 255.055 192.701 252.372 192.701 252.372Z" fill="white" stroke="#27314A" stroke-linecap="round" stroke-linejoin="round"/>
<path d="M189.867 263.933C185.477 264.355 181.725 263.554 179.35 262.81C180.534 264.169 182.564 265.585 184.458 265.922C187.435 266.458 204.258 263.783 206.188 263.783C208.118 263.783 211.095 263.425 211.97 263.067C212.58 262.817 212.846 261.787 212.953 260.399C206.561 261.508 195.154 263.425 189.86 263.926L189.867 263.933Z" fill="white" stroke="#27314A" stroke-linecap="round" stroke-linejoin="round"/>
<path d="M132.618 122.457H115.838V125.89H115.91V202.359H48.8833V204.205H115.91V219.843H118.227V204.205V202.359V125.89H132.618V122.457Z" fill="white"/>
<path d="M135.847 121.512H121.219V126.956H135.847V121.512Z" fill="#27314A" stroke="#27314A" stroke-linecap="round" stroke-linejoin="round"/>
<path d="M109.554 177.928C88.3764 177.928 71.209 197.137 71.209 220.823C71.209 244.51 88.3764 263.718 109.554 263.718C130.732 263.718 147.899 244.51 147.899 220.823C147.899 197.137 130.732 177.928 109.554 177.928ZM109.554 259.161C90.629 259.161 75.291 241.999 75.291 220.83C75.291 199.662 90.629 182.5 109.554 182.5C128.479 182.5 143.817 199.662 143.817 220.83C143.817 241.999 128.479 259.161 109.554 259.161Z" fill="white"/>
<path d="M143.251 237.349H139.061C141.522 232.463 142.928 226.825 142.928 220.823C142.928 202.187 129.426 187.078 112.761 187.078C105.587 187.078 99.0014 189.89 93.8217 194.568H81.7622V196.063H92.2793C86.3249 202.23 82.6016 211.037 82.6016 220.83C82.6016 232.041 87.4942 241.97 95.0198 248.108H83.5988V249.604H96.677V249.367C101.333 252.658 106.85 254.575 112.768 254.575C123.501 254.575 132.92 248.294 138.265 238.851H143.251V237.356V237.349ZM140.826 220.823C140.826 228.671 138.243 235.846 133.989 241.348L122.245 223.778C122.625 222.833 122.841 221.796 122.841 220.694C122.841 218.069 121.643 215.765 119.835 214.449L123.336 191.75C133.594 196.421 140.826 207.674 140.826 220.83V220.823ZM112.768 189.432C115.308 189.432 117.769 189.818 120.107 190.526C119.619 192.73 116.685 205.943 114.992 213.426C112.173 214.091 110.028 216.846 109.834 220.201C102.832 222.69 88.7138 227.154 85.4927 228.17C84.9905 225.817 84.7107 223.356 84.7107 220.823C84.7107 203.489 97.2724 189.432 112.768 189.432ZM86.7123 232.477L111.864 226.096C113.027 227.34 114.59 228.113 116.319 228.113C117.094 228.113 117.833 227.949 118.522 227.67L131.213 244.467C126.277 249.289 119.835 252.215 112.768 252.215C100.953 252.215 90.8517 244.045 86.7123 232.477Z" fill="white"/>
<path d="M170.325 91.6374L167.018 100.508C167.018 100.508 139.57 113.943 137.031 115.46C134.491 116.984 123.558 120.532 123.558 120.532C123.558 120.532 121.779 128.387 122.797 128.895C123.816 129.403 125.846 129.403 125.846 129.403L128.386 127.379C128.386 127.379 132.195 127.886 132.963 127.629C133.723 127.379 135.84 121.512 135.84 121.512L172.865 112.42L174.135 88.3395L170.325 91.6374Z" fill="#FFCCB2" stroke="#27314A" stroke-linecap="round" stroke-linejoin="round"/>
<path d="M9.84203 250.333L7.38135 248.867L32.7702 205.972C33.9467 204.004 36.1133 202.781 38.4161 202.781H49.9017V205.643H38.4161C37.1176 205.643 35.8981 206.329 35.238 207.445L9.84921 250.34L9.84203 250.333Z" fill="white" stroke="#27314A" stroke-linecap="round" stroke-linejoin="round"/>
<path d="M50.146 195.963H116.556V170.524C116.556 170.524 73.8992 167.018 50.3684 186.534L50.146 195.963Z" fill="#27314A" stroke="#27314A" stroke-linecap="round" stroke-linejoin="round"/>
<path d="M119.023 155.594H104.116V157.74H119.023V155.594Z" stroke="#27314A" stroke-linecap="round" stroke-linejoin="round"/>
<path d="M104.115 159.171H58.0798C56.6952 159.171 55.5688 158.047 55.5688 156.667C55.5688 155.286 56.6952 154.163 58.0798 154.163H104.115C105.5 154.163 106.626 155.286 106.626 156.667C106.626 158.047 105.5 159.171 104.115 159.171Z" fill="#27314A"/>
<path d="M51.1288 230.517H48.9766V159.07C48.9766 157.16 50.5405 155.601 52.456 155.601H58.0804V157.747H52.456C51.7242 157.747 51.1288 158.341 51.1288 159.07V230.517Z" fill="white" stroke="#27314A" stroke-linecap="round" stroke-linejoin="round"/>
<path d="M48.2521 229.859V245.376C48.2521 245.376 47.1401 249.017 47.2692 250.441C47.4988 252.987 52.8363 245.376 52.8363 245.376V229.859H48.2521Z" fill="#27314A" stroke="#27314A" stroke-linecap="round" stroke-linejoin="round"/>
<path d="M48.8113 232.763C40.3531 232.763 33.502 239.602 33.502 248.03C33.502 256.457 40.3603 263.296 48.8113 263.296C57.2623 263.296 64.1207 256.457 64.1207 248.03C64.1207 239.602 57.2623 232.763 48.8113 232.763ZM59.3141 246.857C56.3225 246.313 48.8687 244.374 44.8584 238.257C46.078 237.764 47.4124 237.485 48.8113 237.485C54.2492 237.485 58.7258 241.584 59.3141 246.857ZM41.3718 240.547C42.2614 241.999 44.5715 246.313 43.6747 250.777C43.0864 253.717 41.9888 254.819 41.0992 255.219C39.3344 253.338 38.244 250.813 38.244 248.03C38.244 245.104 39.442 242.457 41.3718 240.547ZM48.8185 258.568C47.7854 258.568 46.7954 258.41 45.8556 258.138C47.4841 255.384 51.2218 251.199 58.6971 251.764C57.1834 255.735 53.3381 258.568 48.8257 258.568H48.8185Z" fill="#27314A" stroke="#27314A" stroke-linecap="round" stroke-linejoin="round"/>
<path d="M105.242 106.725C105.242 106.725 96.6551 107.297 91.5041 112.291C86.3532 117.284 64.3218 152.382 64.3218 152.382L86.0662 153.662L82.0631 171.211L129.419 179.059C129.419 179.059 130.99 181.913 133.422 167.784C135.854 153.662 141.148 133.116 141.148 126.263C141.148 119.409 138.429 111.854 135.136 109.143C131.844 106.432 121.542 104.436 121.542 104.436L105.228 106.718L105.242 106.725Z" fill="white" stroke="#27314A" stroke-linecap="round" stroke-linejoin="round"/>
<path d="M92.1353 127.185L93.2544 122.85" stroke="#27314A" stroke-linecap="round" stroke-linejoin="round"/>
<path d="M86.8623 147.524L91.2815 130.462" stroke="#27314A" stroke-linecap="round" stroke-linejoin="round"/>
<path d="M82.5579 145.664C82.5579 145.664 77.3567 143.267 73.1025 143.267C68.8483 143.267 65.8926 146.208 63.7619 149.642C61.6313 153.076 67.6933 155.193 70.6418 155.358C73.5903 155.522 75.6493 155.257 79.5806 155.257C83.512 155.257 86.6901 163.377 86.6901 163.377C86.6901 163.377 87.3429 166.811 88.9858 169.093C90.6215 171.382 89.9686 172.198 90.9515 172.527C91.9343 172.856 93.9 172.033 94.065 170.567C94.23 169.093 95.923 166.353 94.395 161.582C89.9041 147.588 82.5579 145.671 82.5579 145.671V145.664Z" fill="#FFCCB2" stroke="#27314A" stroke-linecap="round" stroke-linejoin="round"/>
<path d="M89.0791 163.985L91.3748 171.168" stroke="#27314A" stroke-linecap="round" stroke-linejoin="round"/>
<path d="M91.0732 163.527C91.0732 163.527 93.2183 168.263 93.0604 171.318L91.0732 163.527Z" fill="#FFCCB2"/>
<path d="M91.0732 163.527C91.0732 163.527 93.2183 168.263 93.0604 171.318" stroke="#27314A" stroke-linecap="round" stroke-linejoin="round"/>
<path d="M93.2188 162.769C93.2188 162.769 94.4312 164.937 94.4312 168.6L93.2188 162.769Z" fill="#FFCCB2"/>
<path d="M93.2188 162.769C93.2188 162.769 94.4312 164.937 94.4312 168.6" stroke="#27314A" stroke-linecap="round" stroke-linejoin="round"/>
<path d="M106.678 103.162C106.678 103.162 102.954 105.588 101.383 108.871C99.8122 112.155 98.9513 114.866 100.099 115.152C101.247 115.439 107.969 112.87 107.969 112.87C107.969 112.87 111.692 111.869 112.69 112.298C113.694 112.727 116.836 116.576 119.555 117.578C122.274 118.579 125.854 111.44 126.851 106.446C127.855 101.453 123.128 100.594 123.128 100.594C123.128 100.594 109.533 101.166 106.671 103.162H106.678Z" fill="white" stroke="#27314A" stroke-linecap="round" stroke-linejoin="round"/>
<path d="M125.567 65.497C125.567 65.497 120.703 62.2133 111.542 63.6441C102.388 65.0678 98.2339 71.3489 97.947 74.4895C97.66 77.6301 97.3731 79.1968 97.2296 84.1902C97.0861 89.1837 97.3731 95.6079 99.2311 97.89C101.089 100.172 104.095 102.311 104.956 103.456C105.817 104.6 107.245 111.876 107.962 112.87C108.679 113.872 110.537 114.723 111.542 113.013C113.12 110.316 115.817 108.328 118.343 106.575C118.931 106.167 124.763 102.855 124.419 102.025C124.419 102.025 123.702 100.315 124.419 96.4592C125.136 92.6104 125.847 92.1812 125.847 92.1812C125.847 92.1812 132.002 92.0381 132.002 86.4723C132.002 80.9066 130.431 80.3343 130.431 80.3343C130.431 80.3343 131.715 70.0612 125.567 65.497Z" fill="#FFCCB2" stroke="#27314A" stroke-linecap="round" stroke-linejoin="round"/>
<path d="M125.846 67.4929C125.846 67.4929 120.839 70.0612 120.695 72.6294C120.552 75.1977 123.701 77.1936 123.988 77.7659C124.275 78.3383 123.127 81.6148 124.275 82.1871C125.423 82.7594 126.685 81.7578 126.707 81.0425C126.757 79.4114 130.007 79.1467 130.43 80.3271C130.43 80.3271 132.001 80.184 131.578 74.3321C131.155 68.4801 128.572 65.3467 125.853 67.4857L125.846 67.4929Z" fill="#27314A" stroke="#27314A" stroke-linecap="round" stroke-linejoin="round"/>
<path d="M125.566 65.497C125.566 65.497 124.139 66.7847 121.42 68.3514C118.701 69.9181 115.982 70.0612 112.122 68.7806C108.263 67.5001 103.678 67.0708 101.964 68.4945C100.249 69.9181 97.9608 71.3489 97.9608 72.9156C97.9608 74.4823 95.3853 69.775 97.2434 66.9206C99.1015 64.0662 101.964 63.9231 101.964 63.9231C101.964 63.9231 104.109 58.9296 106.971 58.5004C109.834 58.0712 125.861 59.645 125.574 65.4898L125.566 65.497Z" fill="#27314A" stroke="#27314A" stroke-linecap="round" stroke-linejoin="round"/>
<path d="M104.819 77.4799L105.386 80.9066L103.815 90.4643L107.818 91.1796" stroke="#27314A" stroke-linecap="round" stroke-linejoin="round"/>
<path d="M104.389 93.3187C104.389 93.3187 108.536 95.6008 112.689 92.7463" stroke="#27314A" stroke-linecap="round" stroke-linejoin="round"/>
<path d="M103.815 100.594C103.815 100.594 105.816 103.162 107.538 103.878C109.253 104.593 111.262 104.593 112.259 104.164C113.263 103.735 115.408 100.88 115.408 100.88" stroke="#27314A" stroke-linecap="round" stroke-linejoin="round"/>
<path d="M108.966 76.4783C108.966 76.4783 112.689 75.4767 115.831 77.4798" stroke="#27314A" stroke-linecap="round" stroke-linejoin="round"/>
<path d="M103.241 76.4783C103.241 76.4783 102.093 75.1906 98.9507 76.4783" stroke="#27314A" stroke-linecap="round" stroke-linejoin="round"/>
<path d="M113.543 82.5448C113.543 83.4534 113.192 84.1831 112.754 84.1831C112.316 84.1831 111.965 83.4462 111.965 82.5448C111.965 81.6434 112.316 80.9066 112.754 80.9066C113.192 80.9066 113.543 81.6434 113.543 82.5448Z" fill="#27314A"/>
<path d="M102.603 82.5448C102.603 83.4534 102.251 84.1831 101.814 84.1831C101.376 84.1831 101.024 83.4462 101.024 82.5448C101.024 81.6434 101.376 80.9066 101.814 80.9066C102.251 80.9066 102.603 81.6434 102.603 82.5448Z" fill="#27314A"/>
<path d="M111.111 84.7554C111.111 84.7554 112.539 86.6082 114.971 87.1806" stroke="#27314A" stroke-linecap="round" stroke-linejoin="round"/>
<path d="M103.959 84.04C103.959 84.04 101.383 85.7498 99.9556 86.1791" stroke="#27314A" stroke-linecap="round" stroke-linejoin="round"/>
<path d="M119.268 142.109C119.268 142.109 105.386 143.818 94.5175 147.817C83.6417 151.809 74.6813 159.085 74.2222 159.993C73.5765 161.281 70.7787 166.003 70.3482 167.076C69.9178 168.149 73.1461 168.149 74.6526 168.149C76.1592 168.149 79.6027 164.93 80.2484 164.286C80.894 163.642 78.5266 167.29 80.6788 167.29C82.831 167.29 83.0462 164.286 83.9071 163.642C84.768 162.998 85.3921 162.247 86.705 159.993C88.0178 157.74 90.3135 158.52 89.1657 156.338C88.9218 155.88 88.3694 155.522 87.6591 155.257C103.327 155.071 130.947 154.728 131.865 154.521C133.15 154.234 134.154 151.38 134.154 151.38C134.154 151.38 127.288 141.393 119.275 142.109H119.268Z" fill="#FFCCB2" stroke="#27314A" stroke-linecap="round" stroke-linejoin="round"/>
<path d="M86.0668 158.999C86.0668 158.999 84.2087 160.008 82.6878 161.024C81.1669 162.032 77.874 162.454 77.4508 162.962C77.0275 163.47 73.0603 166.418 72.4648 167.004" stroke="#27314A" stroke-miterlimit="10"/>
<path d="M127.998 117.857L119.268 142.109C119.268 142.109 123.845 142.681 127.568 146.387C131.291 150.092 134.577 153.805 134.577 153.805C134.577 153.805 140.158 140.535 140.876 129.41C141.593 118.279 136.012 110.717 133.149 109.58" fill="white"/>
<path d="M127.998 117.857L119.268 142.109C119.268 142.109 123.845 142.681 127.568 146.387C131.291 150.092 134.577 153.805 134.577 153.805C134.577 153.805 140.158 140.535 140.876 129.41C141.593 118.279 136.012 110.717 133.149 109.58" stroke="#27314A" stroke-linecap="round" stroke-linejoin="round"/>
<path d="M164.141 122.457H150.238C148.652 122.457 147.361 123.744 147.361 125.325V125.89H147.433V202.359H80.4058V204.212H147.433V219.85H149.75V125.89H164.141V122.457Z" fill="white" stroke="#27314A" stroke-linecap="round" stroke-linejoin="round"/>
<path d="M167.369 121.512H152.741V126.956H167.369V121.512Z" fill="#27314A" stroke="#27314A" stroke-linecap="round" stroke-linejoin="round"/>
<path d="M25.1473 251.647L1.74414 244.543L0.84165 247.5L24.2448 254.604L25.1473 251.647Z" fill="#27314A" stroke="#27314A" stroke-linecap="round" stroke-linejoin="round"/>
<path d="M45.6121 168.793C45.6121 168.793 37.0105 164.071 30.1234 167.934C26.4288 170.009 25.819 186.384 25.3885 193.674C24.9581 200.971 22.5907 235.074 22.5907 235.074C22.5907 235.074 21.2994 235.289 20.4385 235.718C19.5776 236.147 18.7167 239.152 18.7167 239.152C18.7167 239.152 15.9189 239.796 10.7607 239.366C5.59545 238.937 3.22802 240.654 5.59545 243.873C7.96287 247.093 5.81067 246.449 15.2732 249.453C24.7357 252.458 29.901 253.317 29.901 253.317C29.901 253.317 32.6989 255.033 33.9902 253.746C35.2815 252.458 35.0663 250.312 34.8511 247.951C34.6359 245.59 35.712 239.803 35.712 239.159C35.712 238.515 38.9403 234.223 39.3707 226.504C39.8011 218.777 40.0164 217.711 40.2316 215.994C40.4468 214.277 43.8903 191.328 43.8903 191.328C43.8903 191.328 71.252 195.262 75.9438 195.62C80.6356 195.978 82.8309 195.191 82.8309 195.191L45.6121 168.807V168.793Z" fill="#E14D78" stroke="#27314A" stroke-linecap="round" stroke-linejoin="round"/>
<path d="M34.0835 193.631C34.6933 200.413 36.0205 211.28 38.6533 218.269" stroke="#27314A" stroke-miterlimit="10"/>
<path d="M33.6313 187.479C33.6313 187.479 33.6887 188.645 33.8322 190.555" stroke="#27314A" stroke-miterlimit="10"/>
<path d="M10.7607 239.366C5.59545 238.937 3.22802 240.654 5.59545 243.873C7.96287 247.093 5.81067 246.449 15.2732 249.453C24.7357 252.458 29.901 253.317 29.901 253.317C29.901 253.317 32.6989 255.033 33.9902 253.746C35.1739 252.565 35.0878 250.67 34.9013 248.545C33.1867 248.151 30.3028 247.322 28.2079 245.826C25.0442 243.573 18.7167 239.159 18.7167 239.159C18.7167 239.159 15.9189 239.803 10.7607 239.373V239.366Z" fill="white" stroke="#27314A" stroke-linecap="round" stroke-linejoin="round"/>
<path d="M129.426 179.066C129.426 179.066 97.4512 172.012 72.9305 168.578C48.4097 165.144 43.4596 166.003 42.3835 169.866C41.3074 173.729 38.7248 232.935 38.7248 232.935C38.7248 232.935 33.7747 233.149 33.5595 234.437C33.3442 235.725 32.0529 240.876 32.0529 240.876C32.0529 240.876 23.8817 242.378 19.5773 241.734C15.2729 241.09 13.5511 240.232 13.7664 243.022C13.9816 245.812 17.6403 247.744 26.0268 251.599C34.4132 255.463 43.9187 259.333 45.8342 258.152C47.7497 256.972 46.1212 250.591 47.2618 250.455C48.3953 250.319 50.3323 243.88 51.4084 241.949C52.4845 240.017 52.4845 236.154 52.4845 235.51C52.4845 234.866 55.0672 218.348 56.7889 213.412C58.5107 208.476 62.8151 188.745 62.8151 188.745C62.8151 188.745 75.9794 193.109 78.3038 194.54L80.6282 195.97C80.6282 195.97 114.439 198.617 121.757 192.823C129.074 187.028 129.419 179.073 129.419 179.073L129.426 179.066Z" fill="#E14D78" stroke="#27314A" stroke-linecap="round" stroke-linejoin="round"/>
<path d="M59.4937 182.5C60.9787 184.26 62.478 186.513 62.8152 188.738" stroke="#27314A" stroke-miterlimit="10"/>
<path d="M56.208 179.209C56.208 179.209 56.9326 179.803 57.9082 180.783" stroke="#27314A" stroke-miterlimit="10"/>
<path d="M57.9438 175.36C57.9438 175.36 60.2611 177.284 61.8035 182.478" stroke="#27314A" stroke-miterlimit="10"/>
<path d="M19.5846 241.727C15.2802 241.083 13.5585 240.225 13.7737 243.015C13.9889 245.805 17.6477 247.736 26.0341 251.592C34.4205 255.455 43.9261 259.326 45.8415 258.145C47.757 256.965 46.1285 250.584 47.2692 250.448C47.2692 250.448 42.5271 251.385 38.2371 248.037C33.947 244.689 32.0531 240.876 32.0531 240.876C32.0531 240.876 23.8819 242.378 19.5775 241.734L19.5846 241.727Z" fill="white" stroke="#27314A" stroke-linecap="round" stroke-linejoin="round"/>
<path d="M80.6357 195.963H147.046V170.524C147.046 170.524 104.389 167.018 80.8581 186.534L80.6357 195.963Z" fill="#20A6D9" stroke="#27314A" stroke-linecap="round" stroke-linejoin="round"/>
<path d="M141.084 177.928C119.906 177.928 102.739 197.137 102.739 220.823C102.739 244.51 119.906 263.718 141.084 263.718C162.262 263.718 179.429 244.51 179.429 220.823C179.429 197.137 162.262 177.928 141.084 177.928ZM141.084 259.161C122.159 259.161 106.821 241.999 106.821 220.83C106.821 199.662 122.159 182.5 141.084 182.5C160.009 182.5 175.347 199.662 175.347 220.83C175.347 241.999 160.009 259.161 141.084 259.161Z" fill="#27314A" stroke="#27314A" stroke-linecap="round" stroke-linejoin="round"/>
<path d="M174.78 237.349H170.591C173.052 232.463 174.458 226.825 174.458 220.823C174.458 202.187 160.956 187.078 144.291 187.078C137.117 187.078 130.531 189.89 125.352 194.568H113.292V196.064H123.809C117.855 202.23 114.131 211.037 114.131 220.83C114.131 232.041 119.024 241.97 126.55 248.108H115.129V249.604H128.207V249.368C132.863 252.658 138.38 254.576 144.298 254.576C155.03 254.576 164.45 248.294 169.795 238.851H174.78V237.356V237.349ZM172.356 220.823C172.356 228.671 169.773 235.847 165.519 241.348L153.775 223.778C154.155 222.834 154.37 221.796 154.37 220.695C154.37 218.069 153.172 215.765 151.364 214.449L154.865 191.75C165.124 196.421 172.356 207.674 172.356 220.83V220.823ZM144.298 189.432C146.838 189.432 149.298 189.818 151.637 190.526C151.149 192.73 148.215 205.943 146.522 213.426C143.703 214.091 141.558 216.846 141.364 220.201C134.362 222.691 120.244 227.155 117.022 228.17C116.52 225.817 116.241 223.356 116.241 220.823C116.241 203.489 128.802 189.432 144.298 189.432ZM118.242 232.477L143.394 226.096C144.556 227.341 146.12 228.113 147.849 228.113C148.624 228.113 149.363 227.949 150.052 227.67L162.742 244.467C157.807 249.289 151.364 252.215 144.298 252.215C132.482 252.215 122.381 244.045 118.242 232.477Z" fill="#27314A"/>
<path d="M35.5251 257.902L33.0645 256.436L63.2814 205.972C64.4579 204.004 66.6245 202.781 68.9273 202.781H80.4129V205.643H68.9273C67.6288 205.643 66.4093 206.329 65.7493 207.445L35.5323 257.909L35.5251 257.902Z" fill="white" stroke="#27314A" stroke-linecap="round" stroke-linejoin="round"/>
<path d="M187.062 46.1384C187.062 46.1384 172.126 69.3243 171.05 73.7741C169.974 78.2238 169.048 94.6564 170.124 100.494C171.2 106.332 166.121 149.32 166.121 149.32C166.121 149.32 181.208 150.243 199.229 149.627C217.243 149.012 222.322 148.089 222.322 148.089C222.322 148.089 224.632 140.413 220.629 124.288C216.626 108.163 211.547 101.868 210.464 92.0452C209.388 82.2157 215.701 73.9243 211.389 56.8836C207.078 39.8429 200.614 40.3008 200.614 40.3008C200.614 40.3008 192.45 40.7586 187.062 46.1384Z" fill="#E14D78" stroke="#27314A" stroke-linecap="round" stroke-linejoin="round"/>
<path d="M169.507 10.1612C169.507 10.1612 167.054 15.6912 167.958 19.2682C168.869 22.8452 170.282 25.8427 169.909 27.8028C169.536 29.763 166.63 32.41 167.965 33.5403C169.306 34.6706 170.877 34.6563 170.877 34.6563C170.877 34.6563 175.899 42.0821 176.932 43.2768C177.973 44.4715 184.436 41.5527 184.436 41.5527L187.371 52.5841L200.614 40.3008L196.381 29.4912C196.381 29.4912 201.374 24.0542 198.49 15.5625C195.606 7.07072 186.467 4.73854 181.452 4.84585C176.437 4.95316 171.76 8.12235 169.507 10.1612Z" fill="#FFCCB3" stroke="#27314A" stroke-linecap="round" stroke-linejoin="round"/>
<path d="M164.413 10.5976C164.413 10.5976 172.585 15.7985 183.374 19.9764C183.374 19.9764 189.551 25.4349 190.24 24.1901C190.921 22.9525 190.52 18.0163 193.461 19.2825C196.402 20.5487 196.912 23.7394 196.237 25.764C195.563 27.7885 195.061 29.1478 195.061 29.1478C195.061 29.1478 196.718 31.7804 197.471 31.623C198.225 31.4657 201.675 25.4134 201.36 17.1649C201.044 8.91644 196.001 2.12735 188.561 1.16872C181.122 0.210097 172.061 3.51522 167.986 6.5628C163.904 9.61037 163.574 9.52453 164.428 10.5976H164.413Z" fill="#27314A" stroke="#27314A" stroke-linecap="round" stroke-linejoin="round"/>
<path d="M201.296 22.1941C201.296 22.1941 200.93 18.1951 205.837 19.8333C210.744 21.4787 213.212 27.2377 212.337 30.5571C211.461 33.8765 204.603 37.1888 201.927 34.9282C199.251 32.6675 198.921 29.5913 199.065 28.7829C199.208 27.9674 201.303 22.2013 201.303 22.2013L201.296 22.1941Z" fill="#27314A" stroke="#27314A" stroke-linecap="round" stroke-linejoin="round"/>
<path d="M173.783 35.7795C173.783 35.7795 176.853 34.6706 178.188 32.038" stroke="#27314A" stroke-linecap="round" stroke-linejoin="round"/>
<path d="M184.437 41.5527L189.092 39.0131L185.52 44.7577L184.437 41.5527Z" fill="#27314A" stroke="#27314A" stroke-linecap="round" stroke-linejoin="round"/>
<path d="M174.874 25.9786C175.082 26.973 174.881 27.8601 174.422 27.9531C173.962 28.0461 173.424 27.3164 173.216 26.322C173.008 25.3276 173.209 24.4405 173.668 24.3475C174.127 24.2545 174.665 24.9842 174.874 25.9786Z" fill="#27314A"/>
<path d="M170.92 22.8809C170.92 22.8809 172.018 20.6131 174.658 21.9437" stroke="#27314A" stroke-linecap="round" stroke-linejoin="round"/>
<path d="M178.597 86.9874H170.412V103.37H178.597V86.9874Z" fill="white" stroke="#27314A" stroke-linecap="round" stroke-linejoin="round"/>
<path d="M200.614 40.308L172.592 87.1377L202.458 41.0734L200.614 40.308Z" fill="#27314A" stroke="#27314A" stroke-linecap="round" stroke-linejoin="round"/>
<path d="M185.828 46.446L172.592 87.1377L186.739 50.7742L185.828 46.446Z" fill="#27314A" stroke="#27314A" stroke-linecap="round" stroke-linejoin="round"/>
<path d="M158.883 119.431C158.883 119.431 153.646 128.645 154.112 129.103C154.571 129.561 157.039 129.561 157.039 129.561L159.191 128.795C159.191 128.795 161.96 129.868 163.962 129.561C165.963 129.253 169.041 125.111 169.507 123.88C169.966 122.65 176.172 120.518 182.406 118.315C191.661 115.045 207.652 103.177 208.419 102.876C209.187 102.569 211.497 99.8073 211.497 99.8073L212.752 85.5852L198.275 83.5893L197.02 93.9768C197.02 93.9768 188.899 104.078 180.893 109.758C172.886 115.439 167.958 118.05 167.499 118.357C167.039 118.665 161.185 118.815 158.875 119.431H158.883Z" fill="#FFCCB2" stroke="#27314A" stroke-linecap="round" stroke-linejoin="round"/>
<path d="M201.073 46.7822C201.073 46.7822 197.995 51.6255 197.529 57.1555C197.07 62.6855 194.602 90.178 194.602 90.178L214.309 92.4244C214.309 92.4244 217.078 71.8496 214.618 61.133C212.157 50.4164 207.228 42.9835 203.684 43.6703" fill="#E14D78"/>
<path d="M201.073 46.7822C201.073 46.7822 197.995 51.6255 197.529 57.1555C197.07 62.6855 194.602 90.178 194.602 90.178L214.309 92.4244C214.309 92.4244 217.078 71.8496 214.618 61.133C212.157 50.4164 207.228 42.9835 203.684 43.6703" stroke="#27314A" stroke-linecap="round" stroke-linejoin="round"/>
<path d="M43.264 257.82L19.8608 250.716L18.9583 253.673L42.3615 260.777L43.264 257.82Z" fill="#27314A" stroke="#27314A" stroke-linecap="round" stroke-linejoin="round"/>
<path d="M147.433 155.594H134.046V157.74H147.433V155.594Z" fill="white" stroke="#27314A" stroke-linecap="round" stroke-linejoin="round"/>
<path d="M134.046 159.171H88.0099C86.6253 159.171 85.499 158.047 85.499 156.667C85.499 155.286 86.6253 154.163 88.0099 154.163H134.046C135.43 154.163 136.556 155.286 136.556 156.667C136.556 158.047 135.43 159.171 134.046 159.171Z" fill="#27314A"/>
<path d="M81.0589 230.517H78.9067V159.07C78.9067 157.16 80.4707 155.601 82.3861 155.601H88.0106V157.747H82.3861C81.6544 157.747 81.0589 158.341 81.0589 159.07V230.517Z" fill="white" stroke="#27314A" stroke-linecap="round" stroke-linejoin="round"/>
<path d="M78.1822 229.859V245.376C78.1822 245.376 77.0703 249.017 77.1994 250.441C77.429 252.987 82.7664 245.376 82.7664 245.376V229.859H78.1822Z" fill="#27314A" stroke="#27314A" stroke-linecap="round" stroke-linejoin="round"/>
<path d="M78.7415 232.763C70.2833 232.763 63.4321 239.602 63.4321 248.03C63.4321 256.457 70.2905 263.296 78.7415 263.296C87.1925 263.296 94.0508 256.457 94.0508 248.03C94.0508 239.602 87.1925 232.763 78.7415 232.763ZM89.2442 246.857C86.2527 246.313 78.7989 244.374 74.7886 238.257C76.0082 237.764 77.3425 237.485 78.7415 237.485C84.1794 237.485 88.656 241.584 89.2442 246.857ZM71.302 240.547C72.1916 241.999 74.5016 246.313 73.6049 250.777C73.0166 253.717 71.919 254.819 71.0294 255.219C69.2646 253.338 68.1741 250.813 68.1741 248.03C68.1741 245.104 69.3722 242.457 71.302 240.547ZM78.7486 258.568C77.7156 258.568 76.7256 258.41 75.7858 258.138C77.4143 255.384 81.1519 251.199 88.6273 251.764C87.1135 255.735 83.2683 258.568 78.7558 258.568H78.7486Z" fill="#27314A" stroke="#27314A" stroke-linecap="round" stroke-linejoin="round"/>
</svg>
