<svg width="96" height="96" viewBox="0 0 96 96" fill="none" xmlns="http://www.w3.org/2000/svg">
<path opacity="0.4" d="M85 36.6C75.76 22.08 62.24 13.72 48 13.72C40.88 13.72 33.96 15.8 27.64 19.68C21.32 23.6 15.64 29.32 11 36.6C7 42.88 7 53.08 11 59.36C20.24 73.92 33.76 82.24 48 82.24C55.12 82.24 62.04 80.16 68.36 76.28C74.68 72.36 80.36 66.64 85 59.36C89 53.12 89 42.88 85 36.6ZM48 64.16C39.04 64.16 31.84 56.92 31.84 48C31.84 39.08 39.04 31.84 48 31.84C56.96 31.84 64.16 39.08 64.16 48C64.16 56.92 56.96 64.16 48 64.16Z" fill="#07B3E8"/>
<path d="M47.9996 36.5601C41.7196 36.5601 36.5996 41.6801 36.5996 48.0001C36.5996 54.2801 41.7196 59.4001 47.9996 59.4001C54.2796 59.4001 59.4396 54.2801 59.4396 48.0001C59.4396 41.7201 54.2796 36.5601 47.9996 36.5601Z" fill="#07B3E8"/>
</svg>
