<svg width="66" height="66" viewBox="0 0 66 66" fill="none" xmlns="http://www.w3.org/2000/svg">
<path opacity="0.4" d="M24.75 5.5C17.545 5.5 11.6875 11.3575 11.6875 18.5625C11.6875 25.63 17.215 31.35 24.42 31.5975C24.64 31.57 24.86 31.57 25.025 31.5975C25.08 31.5975 25.1075 31.5975 25.1625 31.5975C25.19 31.5975 25.19 31.5975 25.2175 31.5975C32.2575 31.35 37.785 25.63 37.8125 18.5625C37.8125 11.3575 31.955 5.5 24.75 5.5Z" fill="#07B3E8"/>
<path d="M38.7196 38.9124C31.0471 33.7974 18.5346 33.7974 10.8071 38.9124C7.31465 41.2499 5.38965 44.4124 5.38965 47.7949C5.38965 51.1774 7.31465 54.3124 10.7796 56.6224C14.6296 59.2074 19.6896 60.4999 24.7496 60.4999C29.8096 60.4999 34.8696 59.2074 38.7196 56.6224C42.1846 54.2849 44.1096 51.1499 44.1096 47.7399C44.0821 44.3574 42.1846 41.2224 38.7196 38.9124Z" fill="#07B3E8"/>
<path opacity="0.4" d="M54.9727 20.1858C55.4127 25.5208 51.6177 30.1958 46.3652 30.8283C46.3377 30.8283 46.3377 30.8283 46.3102 30.8283H46.2277C46.0627 30.8283 45.8977 30.8283 45.7602 30.8833C43.0927 31.0208 40.6452 30.1683 38.8027 28.6008C41.6352 26.0708 43.2577 22.2758 42.9277 18.1508C42.7352 15.9233 41.9652 13.8883 40.8102 12.1558C41.8552 11.6333 43.0652 11.3033 44.3027 11.1933C49.6927 10.7258 54.5052 14.7408 54.9727 20.1858Z" fill="#07B3E8"/>
<path d="M60.4727 45.6216C60.2527 48.2891 58.5477 50.5991 55.6877 52.1666C52.9377 53.6791 49.4727 54.3941 46.0352 54.3116C48.0152 52.5241 49.1702 50.2966 49.3902 47.9316C49.6652 44.5216 48.0427 41.2491 44.7977 38.6366C42.9552 37.1791 40.8102 36.0241 38.4727 35.1716C44.5502 33.4116 52.1952 34.5941 56.8977 38.3891C59.4277 40.4241 60.7202 42.9816 60.4727 45.6216Z" fill="#07B3E8"/>
</svg>
