<svg width="96" height="96" viewBox="0 0 96 96" fill="none" xmlns="http://www.w3.org/2000/svg">
<path opacity="0.4" d="M36 8C25.52 8 17 16.52 17 27C17 37.28 25.04 45.6 35.52 45.96C35.84 45.92 36.16 45.92 36.4 45.96C36.48 45.96 36.52 45.96 36.6 45.96C36.64 45.96 36.64 45.96 36.68 45.96C46.92 45.6 54.96 37.28 55 27C55 16.52 46.48 8 36 8Z" fill="#07B3E8"/>
<path d="M56.3198 56.6C45.1598 49.16 26.9598 49.16 15.7198 56.6C10.6398 60 7.83984 64.6 7.83984 69.52C7.83984 74.44 10.6398 79 15.6798 82.36C21.2798 86.12 28.6398 88 35.9998 88C43.3598 88 50.7198 86.12 56.3198 82.36C61.3598 78.96 64.1598 74.4 64.1598 69.44C64.1198 64.52 61.3598 59.96 56.3198 56.6Z" fill="#07B3E8"/>
<path opacity="0.4" d="M79.9604 29.3599C80.6004 37.1199 75.0804 43.9199 67.4404 44.8399C67.4004 44.8399 67.4004 44.8399 67.3604 44.8399H67.2404C67.0004 44.8399 66.7604 44.8399 66.5604 44.9199C62.6804 45.1199 59.1204 43.8799 56.4404 41.5999C60.5604 37.9199 62.9204 32.3999 62.4404 26.3999C62.1604 23.1599 61.0404 20.1999 59.3604 17.6799C60.8804 16.9199 62.6404 16.4399 64.4404 16.2799C72.2804 15.5999 79.2804 21.4399 79.9604 29.3599Z" fill="#07B3E8"/>
<path d="M87.96 66.3601C87.64 70.2401 85.16 73.6001 81 75.8801C77 78.0801 71.96 79.1201 66.96 79.0001C69.84 76.4001 71.52 73.1601 71.84 69.7201C72.24 64.7601 69.88 60.0001 65.16 56.2001C62.48 54.0801 59.36 52.4001 55.96 51.1601C64.8 48.6001 75.92 50.3201 82.76 55.8401C86.44 58.8001 88.32 62.5201 87.96 66.3601Z" fill="#07B3E8"/>
</svg>
