<svg width="96" height="96" viewBox="0 0 96 96" fill="none" xmlns="http://www.w3.org/2000/svg">
<path opacity="0.4" d="M48 8C37.52 8 29 16.52 29 27C29 37.28 37.04 45.6 47.52 45.96C47.84 45.92 48.16 45.92 48.4 45.96C48.48 45.96 48.52 45.96 48.6 45.96C48.64 45.96 48.64 45.96 48.68 45.96C58.92 45.6 66.96 37.28 67 27C67 16.52 58.48 8 48 8Z" fill="#07B3E8"/>
<path d="M68.3198 56.6C57.1598 49.16 38.9598 49.16 27.7198 56.6C22.6398 60 19.8398 64.6 19.8398 69.52C19.8398 74.44 22.6398 79 27.6798 82.36C33.2798 86.12 40.6398 88 47.9998 88C55.3598 88 62.7198 86.12 68.3198 82.36C73.3598 78.96 76.1598 74.4 76.1598 69.44C76.1198 64.52 73.3598 59.96 68.3198 56.6Z" fill="#07B3E8"/>
</svg>
