<svg width="66" height="66" viewBox="0 0 66 66" fill="none" xmlns="http://www.w3.org/2000/svg">
<path opacity="0.4" d="M33 5.5C25.795 5.5 19.9375 11.3575 19.9375 18.5625C19.9375 25.63 25.465 31.35 32.67 31.5975C32.89 31.57 33.11 31.57 33.275 31.5975C33.33 31.5975 33.3575 31.5975 33.4125 31.5975C33.44 31.5975 33.44 31.5975 33.4675 31.5975C40.5075 31.35 46.035 25.63 46.0625 18.5625C46.0625 11.3575 40.205 5.5 33 5.5Z" fill="#07B3E8"/>
<path d="M46.9696 38.9124C39.2971 33.7974 26.7846 33.7974 19.0571 38.9124C15.5646 41.2499 13.6396 44.4124 13.6396 47.7949C13.6396 51.1774 15.5646 54.3124 19.0296 56.6224C22.8796 59.2074 27.9396 60.4999 32.9996 60.4999C38.0596 60.4999 43.1196 59.2074 46.9696 56.6224C50.4346 54.2849 52.3596 51.1499 52.3596 47.7399C52.3321 44.3574 50.4346 41.2224 46.9696 38.9124Z" fill="#07B3E8"/>
</svg>
