<svg width="90" height="90" viewBox="0 0 90 90" fill="none" xmlns="http://www.w3.org/2000/svg">
<path opacity="0.4" d="M32.5125 52.5H15C10.875 52.5 7.5 55.875 7.5 60V82.5H32.5125V52.5Z" fill="#07B3E8"/>
<path d="M49.9875 37.5H39.975C35.85 37.5 32.475 40.875 32.475 45V82.5H57.4875V45C57.4875 40.875 54.15 37.5 49.9875 37.5Z" fill="#07B3E8"/>
<path opacity="0.4" d="M75 63.75H57.4875V82.5H82.5V71.25C82.5 67.125 79.125 63.75 75 63.75Z" fill="#07B3E8"/>
<path d="M56.2875 18.1875C57.45 17.025 57.9 15.6375 57.525 14.4375C57.15 13.2375 55.9875 12.375 54.3375 12.1125L50.7375 11.5125C50.5875 11.475 50.25 11.2499 50.175 11.0999L48.1875 7.12493C46.6875 4.08743 43.275 4.08743 41.775 7.12493L39.7875 11.0999C39.7125 11.2499 39.375 11.475 39.225 11.5125L35.625 12.1125C33.975 12.375 32.85 13.2375 32.4375 14.4375C32.0625 15.6375 32.5125 17.025 33.675 18.1875L36.45 21C36.5625 21.1125 36.7125 21.5625 36.675 21.7125L35.8875 25.1624C35.2875 27.7124 36.2625 28.8749 36.9 29.3624C37.5375 29.8124 38.925 30.4125 41.2125 29.0625L44.5875 27.075C44.7375 26.9625 45.225 26.9625 45.375 27.075L48.75 29.0625C49.8 29.6999 50.6625 29.8875 51.3375 29.8875C52.125 29.8875 52.6875 29.5874 53.025 29.3624C53.6625 28.9124 54.6375 27.7499 54.0375 25.1624L53.25 21.7125C53.2125 21.525 53.325 21.1125 53.475 21L56.2875 18.1875Z" fill="#07B3E8"/>
</svg>
