<svg width="86" height="18" viewBox="0 0 86 18" fill="none" xmlns="http://www.w3.org/2000/svg">
<g clip-path="url(#clip0_100_8267)">
<path fill-rule="evenodd" clip-rule="evenodd" d="M73.2143 14.4234H71.2871V3.62402H73.2143V14.4234ZM82.2095 11.7084C81.5615 12.3354 80.5649 12.6492 79.2185 12.6492H77.4767V5.39882H79.2341C80.6009 5.39882 81.6005 5.69702 82.2323 6.29342C82.8647 6.88982 83.1803 7.78982 83.1803 8.99342C83.1803 10.1754 82.8569 11.0814 82.2095 11.7084ZM83.7353 4.96682C82.7591 4.07222 81.2687 3.62462 79.2647 3.62462H75.5495V14.424H79.2185C80.0921 14.424 80.8961 14.316 81.6311 14.1C82.3661 13.884 82.9979 13.5498 83.5271 13.0974C84.0563 12.645 84.4679 12.0636 84.7607 11.3538C85.0535 10.6446 85.1999 9.79622 85.1999 8.80862C85.1999 7.14242 84.7115 5.86262 83.7353 4.96742V4.96682Z" fill="#21A038"/>
<path fill-rule="evenodd" clip-rule="evenodd" d="M29.1907 12.5899C29.9083 12.5899 30.6037 12.4159 31.2007 12.0859L31.7173 11.8039L33.2245 12.9151C32.2309 13.9807 30.7645 14.5669 29.0857 14.5669C27.4807 14.5669 26.0167 13.9999 24.9637 12.9697C23.9137 11.9431 23.3359 10.5205 23.3359 8.96471C23.3359 7.41551 23.9161 6.01331 24.9697 5.01671C26.0167 4.02671 27.4837 3.48071 29.1001 3.48071C30.5905 3.48071 31.8937 3.93431 32.8693 4.79171L32.9797 4.88891L31.3087 6.12071C30.6967 5.68091 29.9851 5.45771 29.1907 5.45771C27.0907 5.45771 25.5667 6.95771 25.5667 9.02411C25.5667 11.0905 27.0907 12.5899 29.1907 12.5899ZM37.5277 12.6265H39.9571C41.3947 12.6265 42.1237 12.1471 42.1237 11.1295C42.1237 10.1335 41.4349 9.63251 39.9571 9.63251H37.5277V12.6265ZM37.5277 7.83431H40.3621C42.9361 7.83431 44.354 8.97011 44.354 11.0323C44.354 13.1887 42.7897 14.4253 40.0621 14.4253H35.1991V3.62351H44.4913L42.0523 5.42171H37.5283V7.83371L37.5277 7.83431ZM54.6848 3.62351L52.2464 5.42171H48.8515V8.06291H53.8268V9.86111H48.8521V12.6271H54.6842V14.4253H46.5236V3.62351H54.6848ZM61.2476 9.56711H59.1836V5.42171H61.2476C62.7398 5.42171 63.5618 6.15791 63.5618 7.49411C63.5618 8.83091 62.7398 9.56711 61.2476 9.56711ZM61.2974 3.62351H56.8538V14.4253H59.183V11.3653H61.2974C64.133 11.3653 65.8946 9.87311 65.8946 7.48931C65.8946 5.10491 64.133 3.62351 61.2974 3.62351Z" fill="#21A038"/>
<path d="M16.1113 3.49731C16.5387 4.05 16.9005 4.65041 17.1895 5.28651L8.99647 11.3303L5.57227 9.18231V6.59811L8.99647 8.74611L16.1107 3.49791L16.1113 3.49731Z" fill="#21A038"/>
<path d="M2.0766 9.00009C2.0766 8.88429 2.0766 8.76909 2.0856 8.65449L0.00959538 8.55249C-0.0541342 9.80798 0.146424 11.0629 0.598295 12.2359C1.05017 13.409 1.74328 14.4742 2.6328 15.3625L4.1052 13.8907C3.46158 13.2493 2.95104 12.4871 2.60291 11.6478C2.25478 10.8085 2.07591 9.90871 2.0766 9.00009Z" fill="url(#paint0_linear_100_8267)"/>
<path d="M8.99372 2.0784C9.10952 2.0784 9.22472 2.0826 9.33872 2.0886L9.44252 0.0114012C8.18752 -0.0526305 6.93308 0.147921 5.76061 0.600043C4.58813 1.05216 3.52381 1.74575 2.63672 2.6358L4.10972 4.1082C4.75003 3.46492 5.51111 2.95445 6.34925 2.60612C7.18739 2.25779 8.08608 2.07845 8.99372 2.0784Z" fill="url(#paint1_linear_100_8267)"/>
<path d="M8.99432 15.9216C8.87852 15.9216 8.76332 15.9216 8.64872 15.9126L8.54492 17.9886C9.8 18.0529 11.0545 17.8524 12.2271 17.4002C13.3996 16.9479 14.4639 16.254 15.3507 15.3636L13.8795 13.8918C13.239 14.5352 12.4777 15.0456 11.6394 15.394C10.801 15.7423 9.90215 15.9216 8.99432 15.9216Z" fill="url(#paint2_linear_100_8267)"/>
<path d="M12.8931 3.28621L14.6385 1.99621C13.0404 0.701308 11.0451 -0.00363141 8.98828 1.40683e-05V2.07841C10.382 2.07614 11.7441 2.49734 12.8931 3.28621Z" fill="url(#paint3_linear_100_8267)"/>
<path d="M17.9875 9.00001C17.9881 8.45941 17.9407 7.92001 17.8459 7.38721L15.9097 8.81521V9.00001C15.9101 9.96697 15.7074 10.9232 15.3149 11.8069C14.9223 12.6906 14.3486 13.4821 13.6309 14.13L15.0271 15.6738C15.9604 14.8308 16.7062 13.8011 17.2161 12.6514C17.726 11.5017 17.9892 10.2577 17.9875 9.00001Z" fill="#21A038"/>
<path d="M8.99382 15.9211C8.02726 15.9216 7.07139 15.7189 6.18823 15.3261C5.30508 14.9333 4.51437 14.3592 3.86742 13.6411L2.32422 15.0379C3.16629 15.9715 4.19519 16.7176 5.34418 17.2279C6.49317 17.7382 7.7366 18.0013 8.99382 18.0001V15.9211Z" fill="url(#paint4_linear_100_8267)"/>
<path d="M4.35601 3.87008L2.95921 2.32568C2.02587 3.16878 1.28013 4.19861 0.770346 5.34842C0.260561 6.49823 -0.00188955 7.74234 1.02406e-05 9.00009H2.07721C2.07677 8.03318 2.27932 7.07694 2.67176 6.19325C3.0642 5.30956 3.63779 4.51811 4.35541 3.87008H4.35601Z" fill="url(#paint5_linear_100_8267)"/>
</g>
<defs>
<linearGradient id="paint0_linear_100_8267" x1="3.054" y1="15.1039" x2="0.780597" y2="8.53809" gradientUnits="userSpaceOnUse">
<stop offset="0.14" stop-color="#F2E913"/>
<stop offset="0.3" stop-color="#E7E518"/>
<stop offset="0.58" stop-color="#CADB26"/>
<stop offset="0.89" stop-color="#A3CD39"/>
</linearGradient>
<linearGradient id="paint1_linear_100_8267" x1="3.22772" y1="3.0036" x2="9.07532" y2="0.7764" gradientUnits="userSpaceOnUse">
<stop offset="0.06" stop-color="#0FA8E0"/>
<stop offset="0.54" stop-color="#0099F9"/>
<stop offset="0.92" stop-color="#0291EB"/>
</linearGradient>
<linearGradient id="paint2_linear_100_8267" x1="8.40812" y1="16.7454" x2="15.0201" y2="15.2526" gradientUnits="userSpaceOnUse">
<stop offset="0.12" stop-color="#A3CD39"/>
<stop offset="0.28" stop-color="#86C339"/>
<stop offset="0.87" stop-color="#21A038"/>
</linearGradient>
<linearGradient id="paint3_linear_100_8267" x1="8.55808" y1="0.696014" x2="14.2119" y2="2.43962" gradientUnits="userSpaceOnUse">
<stop offset="0.06" stop-color="#0291EB"/>
<stop offset="0.79" stop-color="#0C8ACB"/>
</linearGradient>
<linearGradient id="paint4_linear_100_8267" x1="2.84562" y1="14.7847" x2="8.99982" y2="17.0833" gradientUnits="userSpaceOnUse">
<stop offset="0.13" stop-color="#F2E913"/>
<stop offset="0.3" stop-color="#EBE716"/>
<stop offset="0.53" stop-color="#D9E01F"/>
<stop offset="0.8" stop-color="#BBD62D"/>
<stop offset="0.98" stop-color="#A3CD39"/>
</linearGradient>
<linearGradient id="paint5_linear_100_8267" x1="0.77341" y1="9.25149" x2="3.24661" y2="2.82308" gradientUnits="userSpaceOnUse">
<stop offset="0.07" stop-color="#A3CD39"/>
<stop offset="0.26" stop-color="#81C55F"/>
<stop offset="0.92" stop-color="#0FA8E0"/>
</linearGradient>
<clipPath id="clip0_100_8267">
<rect width="85.2" height="18" fill="white"/>
</clipPath>
</defs>
</svg>
