<svg width="16" height="16" viewBox="0 0 16 16" fill="none" xmlns="http://www.w3.org/2000/svg">
<path d="M13.2203 5.79997L10.2003 2.77997C9.56698 2.14664 8.69364 1.80664 7.80031 1.8533L4.46698 2.0133C3.13364 2.0733 2.07364 3.1333 2.00698 4.45997L1.84698 7.7933C1.80698 8.68664 2.14031 9.55997 2.77364 10.1933L5.79364 13.2133C7.03364 14.4533 9.04698 14.4533 10.2936 13.2133L13.2203 10.2866C14.467 9.0533 14.467 7.03997 13.2203 5.79997ZM6.33364 8.2533C5.27364 8.2533 4.41364 7.3933 4.41364 6.3333C4.41364 5.2733 5.27364 4.4133 6.33364 4.4133C7.39364 4.4133 8.25364 5.2733 8.25364 6.3333C8.25364 7.3933 7.39364 8.2533 6.33364 8.2533Z" fill="#D1416B"/>
</svg>
