<svg width="74" height="74" viewBox="0 0 74 74" fill="none" xmlns="http://www.w3.org/2000/svg">
<path opacity="0.4" d="M55.5 58.1516H53.1566C50.69 58.1516 48.3466 59.1074 46.62 60.8341L41.3474 66.0449C38.9424 68.4191 35.0267 68.4191 32.6217 66.0449L27.3492 60.8341C25.6225 59.1074 23.2483 58.1516 20.8125 58.1516H18.5C13.3817 58.1516 9.25 54.0509 9.25 48.9942V15.3549C9.25 10.2983 13.3817 6.19751 18.5 6.19751H55.5C60.6183 6.19751 64.75 10.2983 64.75 15.3549V48.9942C64.75 54.02 60.6183 58.1516 55.5 58.1516Z" fill="#07B3E8"/>
<path d="M37.0001 32.0974C40.9678 32.0974 44.1844 28.8811 44.1844 24.9134C44.1844 20.9457 40.9678 17.7292 37.0001 17.7292C33.0324 17.7292 29.8159 20.9457 29.8159 24.9134C29.8159 28.8811 33.0324 32.0974 37.0001 32.0974Z" fill="#07B3E8"/>
<path d="M45.2633 46.435C47.7608 46.435 49.21 43.66 47.8225 41.5941C45.7258 38.48 41.6558 36.3833 37 36.3833C32.3441 36.3833 28.2741 38.48 26.1774 41.5941C24.7899 43.66 26.2391 46.435 28.7366 46.435H45.2633Z" fill="#07B3E8"/>
</svg>
