<svg width="682" height="496" viewBox="0 0 682 496" fill="none" xmlns="http://www.w3.org/2000/svg">
<g opacity="0.8" filter="url(#filter0_f_52_5061)">
<path d="M347.306 200.027C355.893 200.843 365.753 195.028 366.398 185.613C367.606 167.992 369.39 150.338 373.521 133.127C373.756 132.168 373.991 131.209 374.235 130.246C374.277 130.077 374.54 129.137 374.69 128.588C374.919 127.835 375.233 126.772 375.289 126.587C375.573 125.648 375.878 124.711 376.183 123.774C377.549 119.59 379.101 115.462 380.856 111.432C381.724 109.421 382.655 107.435 383.634 105.47C384.068 104.601 384.512 103.729 384.971 102.87C385.03 102.765 385.261 102.315 385.49 101.886C385.822 101.333 386.673 99.8466 386.807 99.6291C387.328 98.796 387.852 97.9715 388.392 97.1608C389.749 95.1009 391.184 93.1098 392.664 91.1513C397.749 84.4013 396.977 74.9003 391.03 69.0211C384.773 62.8333 376.02 62.8973 368.864 67.5787C364.846 70.2073 360.779 72.744 356.663 75.2098C356.328 75.4085 355.721 75.76 355.43 75.9408C354.559 76.4414 353.676 76.937 352.798 77.4203C350.439 78.7261 348.062 80.0095 345.67 81.2581C336.899 85.8436 327.9 89.975 318.748 93.7334C310.561 97.0948 305.697 107.517 309.538 115.785C313.406 124.092 322.832 128.549 331.605 124.957C335.159 123.493 338.671 121.956 342.175 120.371C336.734 140.028 334.315 160.703 332.927 180.974C332.324 189.774 337.808 199.12 347.336 200.025L347.306 200.027Z" fill="#B3E4FF"/>
<path d="M594.6 272.14C593.41 272.457 592.211 272.778 591.021 273.096C589.895 273.397 589.298 273.552 589.217 273.575C587.099 274.133 584.987 274.678 582.865 275.227C578.082 276.466 573.3 277.685 568.498 278.881C558.911 281.287 549.313 283.616 539.695 285.873C521.063 290.248 502.358 294.349 483.605 298.186C474.637 300.023 465.594 302.245 456.517 303.396C456.015 303.461 454.295 303.479 453.319 303.526C453.417 302.827 453.532 302.12 453.681 301.419C453.698 301.362 453.713 301.325 453.73 301.267C454.426 299.429 455.217 297.673 455.999 295.87C456.462 295.02 456.672 294.619 456.652 294.617C457.031 293.984 457.414 293.36 457.809 292.741C460.152 289.078 462.756 285.581 465.589 282.294C465.912 281.918 468.902 278.79 468.708 278.911C470.08 277.605 471.492 276.344 472.938 275.119C479.65 269.383 482.06 258.603 475.952 251.42C470.256 244.718 459.429 242.288 452.228 248.439C439.627 259.196 427.072 273.617 422.08 289.722C419.246 298.831 418.129 308.705 421.792 317.797C425.875 327.933 434.671 334.242 445.066 336.636C452.483 338.339 460.352 337.138 467.722 335.716C476.515 334.022 485.297 332.252 494.058 330.43C511.288 326.845 528.476 323.033 545.605 319.003C566.313 314.117 586.926 308.875 607.485 303.382C616.07 301.084 620.203 288.863 616.695 281.33C612.421 272.135 603.828 269.699 594.628 272.158L594.6 272.14ZM453.315 305.465C453.283 305.387 453.254 305.318 453.229 305.257C453.258 305.327 453.29 305.405 453.318 305.474L453.315 305.465Z" fill="#B3E4FF"/>
<path d="M115.246 328.099C98.9409 353.204 83.0256 378.564 67.5138 404.164C62.9472 411.704 62.6533 422.243 70.6977 427.837C77.5567 432.6 89.5018 432.713 94.4034 424.628C109.924 399.025 125.834 373.677 142.136 348.564C146.941 341.158 146.836 330.368 138.952 324.891C131.908 320.001 120.393 320.168 115.246 328.099Z" fill="#B3E4FF"/>
<path d="M141.077 182.435C141.317 182.377 141.672 182.302 142.226 182.165C143.628 181.821 145.035 181.485 146.452 181.175C149.561 180.484 152.681 179.868 155.816 179.338C157.573 179.041 159.341 178.769 161.107 178.518C161.155 179.3 161.203 180.082 161.247 180.855C161.714 189.69 171.497 197.013 180.074 195.56C189.632 193.948 195.319 186.189 194.82 176.738C194.163 164.258 193.513 148.59 178.939 144.609C169.199 141.956 157.242 144.678 147.466 146.574C127.501 150.453 108.124 157.042 90.1763 166.634C82.3974 170.791 76.8438 179.833 80.9664 188.685C84.5068 196.296 94.68 202.321 103.033 197.857C114.834 191.548 127.125 186.679 139.92 182.81C140.571 182.613 140.921 182.499 141.089 182.44L141.077 182.435Z" fill="#B3E4FF"/>
<path d="M246.554 282.039C237.983 284.371 233.825 296.531 237.344 304.09C241.603 313.25 250.229 315.765 259.411 313.262C256.075 314.169 262.393 312.683 263.017 312.568C265.173 312.178 267.334 311.876 269.516 311.647C270.306 311.565 271.097 311.513 271.889 311.461C268.67 314.724 265.372 317.918 262.225 321.182C255.433 328.229 248.641 335.276 241.849 342.323C232.74 351.764 241.466 367.698 252.949 369.279C260.825 370.367 268.576 369.376 275.946 366.372C283.81 363.164 288.574 353.412 285.552 345.334C288.864 341.902 292.175 338.469 295.486 335.036C303.925 326.286 314.809 317.382 314.927 304.146C315.241 270.289 267.766 276.256 246.562 282.035L246.554 282.039Z" fill="#B3E4FF"/>
</g>
<defs>
<filter id="filter0_f_52_5061" x="0.314453" y="0.20752" width="681.631" height="494.914" filterUnits="userSpaceOnUse" color-interpolation-filters="sRGB">
<feFlood flood-opacity="0" result="BackgroundImageFix"/>
<feBlend mode="normal" in="SourceGraphic" in2="BackgroundImageFix" result="shape"/>
<feGaussianBlur stdDeviation="32" result="effect1_foregroundBlur_52_5061"/>
</filter>
</defs>
</svg>
