<svg width="47" height="14" viewBox="0 0 47 14" fill="none" xmlns="http://www.w3.org/2000/svg">
<g clip-path="url(#clip0_1_5362)">
<path d="M0 12.0107C0.00802596 11.965 0.0280908 11.9442 0.0441428 11.9152C0.798583 10.7565 1.55704 9.6019 2.31148 8.44319C2.40377 8.30199 2.50009 8.15663 2.5964 8.01542C2.63251 7.96559 2.62047 7.94067 2.57633 7.90745C2.1349 7.57935 1.71354 7.22634 1.34033 6.81519C0.762466 6.17562 0.397285 5.43222 0.288934 4.55592C0.200649 3.82913 0.240779 3.11065 0.497609 2.42124C0.79457 1.60724 1.33231 1.0175 2.06668 0.610501C2.65258 0.286562 3.28663 0.124592 3.94074 0.0498368C4.31796 0.00830614 4.69518 0 5.07642 0C5.93519 0 6.79798 0 7.65676 0C7.73301 0 7.74906 0.0249184 7.74906 0.0955206C7.74906 4.03263 7.74906 7.9739 7.74906 11.911C7.74906 11.9899 7.729 12.0107 7.65275 12.0107C7.03876 12.0107 6.42879 12.0107 5.81481 12.0107C5.73455 12.0107 5.71448 11.9899 5.71448 11.9069C5.71448 8.51795 5.71448 5.12904 5.71448 1.74429C5.71448 1.60724 5.73053 1.628 5.5981 1.628C5.21286 1.628 4.82761 1.61139 4.44638 1.64462C4.06515 1.67369 3.69194 1.75675 3.34682 1.93533C2.75692 2.23435 2.39173 2.71611 2.30345 3.38891C2.21918 4.01187 2.28338 4.62652 2.56429 5.19964C2.76895 5.6191 3.08197 5.9472 3.42708 6.24206C3.88055 6.62415 4.38217 6.93978 4.86373 7.28033C4.93596 7.33432 5.0082 7.38416 5.08846 7.434C5.14062 7.46722 5.14062 7.49214 5.10852 7.53782C4.65104 8.23554 4.19356 8.93325 3.73608 9.63512C3.23847 10.4034 2.73685 11.1676 2.23924 11.9359C2.20312 11.9941 2.163 12.0107 2.09879 12.0107C1.42862 12.0107 0.762466 12.0107 0.0922985 12.0107H0.00401298H0Z" fill="#E8452A"/>
<path d="M24.2384 6.84847C24.2384 7.99472 24.2384 9.14512 24.2384 10.2914C24.2384 10.3661 24.2504 10.3869 24.3267 10.3869C24.5675 10.3827 24.8123 10.3869 25.053 10.3869C25.1092 10.3869 25.1293 10.3952 25.1293 10.4616C25.1293 11.6203 25.1293 12.7791 25.1293 13.9378C25.1293 13.9918 25.1172 14.0042 25.0651 14.0042C24.4952 14.0042 23.9214 14.0042 23.3515 14.0042C23.2833 14.0042 23.2753 13.9793 23.2753 13.9211C23.2753 13.319 23.2753 12.7168 23.2753 12.1146C23.2753 12.0357 23.2592 12.0149 23.179 12.0149C21.7463 12.0149 20.3097 12.0149 18.8771 12.0149C18.8048 12.0149 18.7848 12.0273 18.7848 12.1063C18.7848 12.7126 18.7848 13.319 18.7848 13.9211C18.7848 13.9918 18.7647 14.0042 18.7005 14.0042C18.1387 14.0042 17.5769 14.0042 17.011 14.0042C16.9468 14.0042 16.9268 13.9876 16.9268 13.9211C16.9268 12.7749 16.9268 11.6245 16.9268 10.4783C16.9268 10.4077 16.9468 10.3869 17.015 10.3869C17.1675 10.391 17.32 10.3869 17.4765 10.3869C17.5367 10.3869 17.5648 10.3703 17.5889 10.3163C17.7936 9.85529 17.926 9.37354 18.0263 8.87932C18.1989 8.0404 18.2791 7.18902 18.3313 6.33349C18.3915 5.36167 18.3995 4.3857 18.3915 3.40973C18.3915 3.33082 18.4116 3.31836 18.4838 3.31836C20.3659 3.31836 22.252 3.31836 24.1341 3.31836C24.2183 3.31836 24.2304 3.34328 24.2304 3.42219C24.2304 4.56428 24.2304 5.70637 24.2304 6.84847H24.2384ZM19.4228 10.3786C19.4429 10.3786 19.4589 10.3827 19.475 10.3827C20.3739 10.3827 21.2728 10.3827 22.1757 10.3827C22.2399 10.3827 22.2399 10.3537 22.2399 10.308C22.2399 8.54292 22.2399 6.77787 22.2399 5.01697C22.2399 4.96298 22.2279 4.94636 22.1717 4.94636C21.5136 4.94636 20.8515 4.94636 20.1933 4.94636C20.1331 4.94636 20.1211 4.96298 20.1211 5.02112C20.1291 6.05523 20.081 7.08935 19.9485 8.11516C19.8683 8.74642 19.7599 9.36938 19.5673 9.97573C19.5232 10.1086 19.475 10.2374 19.4268 10.3744L19.4228 10.3786Z" fill="black"/>
<path d="M32.4248 9.75137V9.84689C32.4248 10.3411 32.4248 10.8395 32.4248 11.3337C32.4248 11.4043 32.4007 11.4417 32.3486 11.4749C31.875 11.7822 31.3533 11.9691 30.8036 12.0729C30.1334 12.2017 29.4592 12.2225 28.781 12.1228C28.0547 12.019 27.3885 11.7615 26.8307 11.2423C26.4053 10.8478 26.1204 10.3619 25.9278 9.80952C25.6589 9.03289 25.5947 8.2272 25.6188 7.40904C25.6349 6.83592 25.7111 6.26695 25.8796 5.71874C26.0923 5.01687 26.4254 4.39807 26.9752 3.91631C27.3965 3.55084 27.8781 3.32242 28.4158 3.22275C29.1141 3.08985 29.8083 3.11061 30.4865 3.34319C31.237 3.59652 31.7546 4.11981 32.0797 4.8549C32.3044 5.36158 32.4128 5.90148 32.4649 6.45384C32.5251 7.0768 32.497 7.70391 32.5051 8.33102C32.5051 8.38917 32.485 8.39747 32.4369 8.39332C32.2322 8.39332 32.0235 8.39332 31.8189 8.39332C30.4705 8.39332 29.1221 8.39332 27.7738 8.39332C27.6935 8.39332 27.6775 8.41824 27.6855 8.49299C27.7176 8.81693 27.7617 9.13672 27.8741 9.44405C28.0948 10.0504 28.5322 10.3826 29.1342 10.4948C29.7562 10.6111 30.3702 10.5488 30.9801 10.3826C31.4737 10.2497 31.9473 10.0545 32.3767 9.76799C32.3887 9.75968 32.4007 9.75553 32.4208 9.74307L32.4248 9.75137ZM29.082 6.88576C29.5234 6.88576 29.9608 6.88576 30.4023 6.88576C30.4344 6.88576 30.4745 6.90652 30.4745 6.84007C30.4745 6.43307 30.4544 6.02607 30.326 5.63568C30.1495 5.09163 29.7843 4.80091 29.2385 4.78015C28.6526 4.75938 28.2112 5.00026 27.9503 5.56093C27.7657 5.95547 27.7136 6.37908 27.6855 6.80685C27.6815 6.8733 27.7015 6.88576 27.7617 6.88576C28.2032 6.88576 28.6406 6.88576 29.082 6.88576Z" fill="#010101"/>
<path d="M9.43054 7.67493C9.43054 6.25458 9.43054 4.83839 9.43054 3.41804C9.43054 3.33913 9.44659 3.31836 9.52284 3.31836C10.1288 3.31836 10.7307 3.31836 11.3367 3.31836C11.4089 3.31836 11.433 3.33497 11.433 3.41388C11.433 4.49783 11.433 5.58179 11.433 6.66574C11.433 6.7488 11.4571 6.76126 11.5293 6.76126C12.36 6.76126 13.1907 6.76126 14.0214 6.76126C14.0976 6.76126 14.1097 6.73634 14.1097 6.66574C14.1097 5.58179 14.1097 4.49783 14.1097 3.41388C14.1097 3.33497 14.1297 3.31421 14.206 3.31421C14.816 3.31421 15.4259 3.31421 16.0359 3.31421C16.0961 3.31421 16.1162 3.32667 16.1162 3.39312C16.1162 6.23797 16.1162 9.08282 16.1162 11.9277C16.1162 11.9983 16.0921 12.0024 16.0359 12.0024C15.4219 12.0024 14.8119 12.0024 14.198 12.0024C14.1257 12.0024 14.1137 11.9817 14.1137 11.9111C14.1137 10.7648 14.1137 9.61442 14.1137 8.46817C14.1137 8.38926 14.0936 8.3685 14.0174 8.3685C13.1947 8.3685 12.368 8.3685 11.5454 8.3685C11.4651 8.3685 11.437 8.38511 11.441 8.47648C11.441 9.62272 11.441 10.7648 11.4451 11.9111C11.4451 11.9858 11.425 12.0066 11.3528 12.0066C10.7468 12.0066 10.1368 12.0066 9.53087 12.0066C9.45863 12.0066 9.43857 11.99 9.43857 11.9152C9.43857 10.499 9.43857 9.08282 9.43857 7.66663L9.43054 7.67493Z" fill="black"/>
<path d="M35.864 7.77045C35.8439 7.80783 35.852 7.84105 35.852 7.87012C35.852 9.21572 35.852 10.5613 35.852 11.9111C35.852 11.9941 35.8319 12.0149 35.7516 12.0149C35.1457 12.0149 34.5357 12.0149 33.9297 12.0149C33.8655 12.0149 33.8495 11.9983 33.8495 11.9318C33.8495 9.09113 33.8495 6.25042 33.8495 3.40972C33.8495 3.33497 33.8696 3.32251 33.9378 3.32251C34.5477 3.32251 35.1577 3.32251 35.7677 3.32251C35.8399 3.32251 35.852 3.34328 35.852 3.41388C35.852 4.67641 35.852 5.93894 35.852 7.20148V7.33022C35.8841 7.28454 35.9041 7.25962 35.9242 7.2347C36.8231 5.95556 37.722 4.68056 38.6209 3.40142C38.661 3.34743 38.6972 3.32666 38.7614 3.32666C39.3713 3.32666 39.9813 3.32666 40.5913 3.32666H40.6756C40.6756 3.36819 40.6475 3.38481 40.6314 3.40972C39.7285 4.69302 38.8216 5.98047 37.9146 7.26377C37.8745 7.32192 37.8745 7.35514 37.9146 7.41328C38.946 8.91254 39.9773 10.416 41.0086 11.9194C41.0287 11.9484 41.0448 11.9734 41.0648 12.0024C41.0367 12.0232 41.0127 12.0149 40.9886 12.0149C40.2863 12.0149 39.584 12.0149 38.8818 12.0149C38.8256 12.0149 38.7935 11.9941 38.7614 11.9484C37.9628 10.7897 37.1602 9.63518 36.3576 8.48062C36.1971 8.24805 36.0285 8.01548 35.86 7.7746L35.864 7.77045Z" fill="black"/>
<path d="M46.996 9.98401V10.2207C46.996 10.6734 46.996 11.1261 46.996 11.5788C46.996 11.6369 46.98 11.666 46.9358 11.6951C46.5907 11.9318 46.2055 12.0605 45.8001 12.1228C45.0296 12.235 44.2592 12.2184 43.5047 12.0024C42.357 11.6702 41.6146 10.8935 41.2414 9.73068C41.0006 8.97897 40.9404 8.2065 40.9645 7.41742C40.9846 6.83183 41.0688 6.25871 41.2574 5.70635C41.5424 4.86328 42.0199 4.16971 42.7703 3.70042C43.2278 3.41385 43.7254 3.25189 44.2551 3.19374C44.9654 3.11483 45.6717 3.15636 46.37 3.33079C46.5666 3.38063 46.7592 3.44708 46.9398 3.5426C46.9759 3.55921 46.996 3.57998 46.996 3.62566C46.996 4.17802 46.996 4.72623 46.996 5.27858C46.996 5.28689 46.996 5.2952 46.992 5.30765C46.98 5.30765 46.9679 5.3035 46.9599 5.2952C46.378 4.9588 45.748 4.79267 45.0858 4.78437C44.1628 4.77191 43.5248 5.25366 43.2358 6.15903C43.0432 6.76123 43.0151 7.38419 43.0432 8.0113C43.0633 8.44322 43.1235 8.86684 43.268 9.26968C43.577 10.1418 44.1789 10.5696 45.0778 10.5613C45.76 10.5613 46.4021 10.3993 46.9719 9.99647C46.9759 9.99232 46.988 9.99232 47 9.98816L46.996 9.98401Z" fill="black"/>
</g>
<defs>
<clipPath id="clip0_1_5362">
<rect width="47" height="14" fill="white"/>
</clipPath>
</defs>
</svg>
