<svg width="821" height="610" viewBox="0 0 821 610" fill="none" xmlns="http://www.w3.org/2000/svg">
<g opacity="0.8" filter="url(#filter0_f_221_9709)">
<path d="M435.929 240.838C446.085 241.803 457.747 234.926 458.509 223.79C459.939 202.95 462.048 182.069 466.934 161.713C467.212 160.579 467.49 159.445 467.779 158.306C467.828 158.106 468.14 156.994 468.317 156.345C468.587 155.454 468.959 154.197 469.025 153.978C469.361 152.868 469.722 151.76 470.083 150.651C471.698 145.703 473.533 140.82 475.609 136.054C476.637 133.676 477.737 131.327 478.895 129.003C479.409 127.975 479.933 126.943 480.477 125.928C480.546 125.803 480.819 125.271 481.091 124.763C481.483 124.11 482.489 122.352 482.648 122.094C483.264 121.109 483.884 120.134 484.522 119.175C486.127 116.739 487.825 114.384 489.575 112.067C495.59 104.084 494.676 92.8466 487.643 85.893C480.243 78.5745 469.89 78.6503 461.426 84.1872C456.673 87.296 451.864 90.2963 446.996 93.2127C446.6 93.4477 445.881 93.8634 445.537 94.0773C444.507 94.6694 443.462 95.2555 442.424 95.8271C439.634 97.3715 436.822 98.8894 433.993 100.366C423.62 105.79 412.977 110.676 402.153 115.121C392.469 119.097 386.716 131.423 391.26 141.202C395.834 151.028 406.982 156.299 417.359 152.05C421.562 150.319 425.716 148.501 429.86 146.627C423.425 169.876 420.563 194.329 418.922 218.304C418.208 228.711 424.695 239.765 435.964 240.836L435.929 240.838Z" fill="#B3E4FF"/>
<path d="M728.412 326.128C727.005 326.504 725.587 326.884 724.179 327.26C722.848 327.616 722.142 327.799 722.045 327.827C719.54 328.486 717.042 329.131 714.533 329.78C708.875 331.246 703.219 332.687 697.541 334.102C686.202 336.947 674.849 339.702 663.474 342.371C641.437 347.546 619.314 352.397 597.135 356.935C586.528 359.107 575.833 361.735 565.096 363.097C564.503 363.173 562.469 363.195 561.314 363.251C561.43 362.423 561.566 361.587 561.742 360.759C561.762 360.691 561.78 360.647 561.8 360.579C562.623 358.404 563.559 356.328 564.483 354.195C565.031 353.19 565.28 352.715 565.255 352.714C565.704 351.965 566.157 351.226 566.625 350.494C569.396 346.162 572.476 342.026 575.827 338.139C576.208 337.694 579.744 333.994 579.515 334.137C581.138 332.592 582.807 331.101 584.518 329.653C592.457 322.869 595.307 310.118 588.083 301.623C581.346 293.696 568.541 290.822 560.023 298.097C545.12 310.82 530.271 327.876 524.366 346.924C521.015 357.698 519.694 369.375 524.026 380.129C528.854 392.117 539.258 399.579 551.552 402.41C560.326 404.425 569.632 403.004 578.349 401.322C588.749 399.319 599.136 397.226 609.497 395.071C629.876 390.83 650.205 386.322 670.463 381.556C694.956 375.777 719.335 369.577 743.652 363.08C753.806 360.362 758.694 345.908 754.545 336.999C749.49 326.123 739.326 323.242 728.446 326.151L728.412 326.128ZM561.309 365.544C561.271 365.452 561.237 365.37 561.208 365.298C561.241 365.38 561.279 365.472 561.313 365.554L561.309 365.544Z" fill="#B3E4FF"/>
<path d="M161.463 392.314C142.178 422.006 123.355 452.001 105.008 482.278C99.6074 491.197 99.2597 503.661 108.774 510.277C116.887 515.911 131.014 516.044 136.812 506.482C155.168 476.2 173.986 446.221 193.266 416.518C198.949 407.759 198.826 394.997 189.501 388.519C181.17 382.736 167.551 382.933 161.463 392.314Z" fill="#B3E4FF"/>
<path d="M192.014 220.032C192.298 219.963 192.718 219.874 193.373 219.712C195.032 219.305 196.695 218.908 198.371 218.542C202.048 217.724 205.738 216.996 209.446 216.369C211.525 216.017 213.616 215.696 215.705 215.399C215.761 216.324 215.817 217.249 215.869 218.163C216.423 228.613 227.993 237.274 238.138 235.556C249.442 233.648 256.168 224.472 255.579 213.293C254.8 198.533 254.032 180.002 236.795 175.294C225.275 172.155 211.134 175.375 199.57 177.617C175.957 182.205 153.04 189.999 131.812 201.343C122.612 206.259 116.043 216.954 120.919 227.424C125.107 236.425 137.139 243.552 147.019 238.272C160.975 230.809 175.513 225.051 190.646 220.475C191.416 220.242 191.829 220.108 192.029 220.038L192.014 220.032Z" fill="#B3E4FF"/>
<path d="M316.765 337.837C306.628 340.595 301.71 354.977 305.872 363.917C310.91 374.752 321.112 377.725 331.972 374.765C328.027 375.838 335.499 374.081 336.237 373.945C338.786 373.483 341.343 373.126 343.924 372.855C344.858 372.759 345.794 372.697 346.73 372.635C342.923 376.495 339.022 380.272 335.3 384.133C327.267 392.467 319.234 400.802 311.201 409.137C300.428 420.303 310.748 439.149 324.329 441.019C333.644 442.306 342.812 441.134 351.528 437.581C360.83 433.787 366.464 422.253 362.89 412.699C366.807 408.638 370.723 404.578 374.64 400.518C384.62 390.17 397.493 379.638 397.633 363.984C398.005 323.94 341.854 330.997 316.775 337.832L316.765 337.837Z" fill="#B3E4FF"/>
</g>
<g clip-path="url(#clip0_221_9709)">
<path d="M559.031 365.859C559.052 365.794 559.031 365.728 558.965 365.707C558.91 365.685 558.845 365.707 558.812 365.761C555.378 373.666 552.961 381.964 550.949 390.338C549.002 398.734 547.592 407.25 546.608 415.82L545.995 422.265C545.897 423.344 545.787 424.413 545.711 425.492L545.536 428.72C545.437 430.879 545.306 433.027 545.251 435.186L545.306 441.663L545.383 444.901C545.426 445.98 545.503 447.06 545.58 448.128C545.744 450.277 545.875 452.435 546.072 454.583C546.487 458.869 547.132 463.143 547.8 467.395C547.8 467.45 547.854 467.494 547.909 467.494C547.975 467.494 548.018 467.439 548.018 467.385C548.007 465.226 547.92 463.078 547.865 460.93C547.8 458.781 547.614 456.644 547.646 454.507C547.646 452.359 547.603 450.222 547.581 448.085L547.526 444.879L547.581 441.673L547.614 435.262L547.789 428.851L547.854 425.645C547.898 424.576 547.974 423.508 548.029 422.439L548.423 416.028C549.177 407.501 550.348 399.007 552.065 390.611C553.77 382.226 555.892 373.874 559.031 365.881V365.859Z" fill="#27314A"/>
<path d="M559.949 399.399C559.96 399.345 559.938 399.279 559.884 399.258C559.829 399.236 559.763 399.258 559.741 399.323C557.893 404.655 556.417 410.107 555.159 415.613C553.967 421.131 553.027 426.724 552.458 432.351C551.89 437.966 551.255 443.582 551.179 449.23C551.091 454.867 551.179 460.515 551.78 466.153C551.78 466.207 551.824 466.251 551.879 466.251C551.944 466.251 551.999 466.207 551.999 466.153C552.655 460.537 553.049 454.933 553.442 449.328C553.836 443.723 553.891 438.108 554.263 432.503C554.602 426.921 555.302 421.36 556.264 415.831C557.204 410.303 558.385 404.797 559.938 399.399H559.949Z" fill="#27314A"/>
<path d="M578.595 411.197C578.595 411.197 578.496 411.132 578.442 411.165C573.772 414.109 569.606 417.827 565.975 422.003C564.181 424.129 562.519 426.343 561.098 428.763L560.091 430.65L559.304 432.612C559.02 433.267 558.823 433.932 558.615 434.597C558.418 435.262 558.189 435.927 558.003 436.603C556.603 441.99 555.673 447.485 555.422 453.003C555.192 458.52 555.302 464.048 556.045 469.522C556.045 469.576 556.1 469.62 556.155 469.62C556.22 469.62 556.275 469.576 556.275 469.511L557.697 453.155C558.265 447.747 558.615 442.317 559.774 437.029C559.927 436.374 560.113 435.731 560.277 435.077C560.441 434.422 560.605 433.768 560.857 433.147L561.524 431.26L562.377 429.472C563.635 427.106 565.188 424.849 566.85 422.712C570.185 418.427 574.1 414.523 578.562 411.35C578.562 411.35 578.628 411.241 578.595 411.197Z" fill="#27314A"/>
<path d="M569.573 432.209C567.036 433.844 565.33 436.418 563.897 439.002C562.53 441.652 561.458 444.454 560.715 447.332C560.496 448.041 560.31 448.772 560.157 449.491L559.643 451.661C559.381 453.122 559.173 454.594 559.096 456.077C559.074 457.56 559.031 459.043 559.14 460.526C559.26 462.009 559.435 463.481 559.72 464.942C559.72 464.986 559.763 465.018 559.807 465.029C559.873 465.04 559.927 464.997 559.938 464.942C560.299 463.481 560.529 462.042 560.726 460.592C560.955 459.152 561.185 457.724 561.349 456.295C561.557 454.867 561.754 453.45 561.863 452.01C562.06 450.593 562.169 449.143 562.475 447.747C562.978 444.912 563.799 442.142 564.903 439.504C566.008 436.876 567.451 434.259 569.66 432.416H569.682C569.682 432.416 569.737 432.307 569.704 432.253C569.671 432.198 569.606 432.187 569.551 432.22L569.573 432.209Z" fill="#27314A"/>
<path d="M543.414 448.586C542.802 441.324 541.599 434.139 540.462 426.953C539.324 419.768 538.067 412.604 536.754 405.462C535.387 398.32 533.966 391.189 532.424 384.09C532.413 384.036 532.347 383.992 532.292 384.003C532.227 384.014 532.194 384.069 532.205 384.134C533.452 391.287 534.578 398.462 535.639 405.647C536.732 412.822 537.76 420.008 538.668 427.215C539.554 434.422 540.254 441.641 541.161 448.826L543.83 470.438C543.83 470.438 543.884 470.536 543.939 470.536C544.005 470.536 544.059 470.492 544.059 470.427C544.147 468.606 544.147 466.785 544.191 464.964C544.202 463.143 544.114 461.322 544.081 459.501C544.016 455.848 543.699 452.228 543.425 448.597L543.414 448.586Z" fill="#27314A"/>
<path d="M539.051 448.488C538.657 445.61 538.132 442.753 537.585 439.907L536.568 435.665C536.229 434.248 535.912 432.841 535.497 431.446C534.042 425.819 532.183 420.291 529.93 414.937L529.056 412.942L528.082 410.99C527.47 409.671 526.715 408.417 526.015 407.152C524.495 404.677 522.91 402.213 520.755 400.206C520.711 400.163 520.646 400.163 520.602 400.206C520.558 400.25 520.558 400.326 520.602 400.37H520.613C522.603 402.442 524.058 404.982 525.425 407.49C526.059 408.777 526.726 410.052 527.273 411.383L528.126 413.356L528.881 415.373C530.893 420.749 532.511 426.266 533.736 431.882C534.403 434.673 534.841 437.519 535.376 440.332L536.054 444.585C536.306 446.002 536.601 447.409 536.809 448.826C537.268 451.661 537.782 454.496 538.285 457.331C538.723 460.177 539.248 463.023 539.849 465.869C539.849 465.924 539.904 465.967 539.959 465.967C540.024 465.967 540.068 465.913 540.068 465.858C540.079 462.958 540.013 460.057 539.86 457.157C539.696 454.256 539.346 451.378 539.04 448.488H539.051Z" fill="#27314A"/>
<path d="M533.025 448.859C531.68 445.053 530.116 441.324 528.41 437.672C526.661 434.041 524.78 430.464 522.614 427.073C522.582 427.03 522.516 427.008 522.461 427.04C522.407 427.073 522.385 427.139 522.418 427.193C524.309 430.726 525.917 434.4 527.371 438.119C528.848 441.826 530.182 445.599 531.297 449.426C532.435 453.253 533.255 457.146 534.272 460.984C535.344 464.822 536.208 468.704 537.4 472.586C537.411 472.629 537.454 472.673 537.509 472.673C537.575 472.673 537.629 472.618 537.629 472.564C537.684 468.508 537.29 464.451 536.492 460.482C535.781 456.492 534.37 452.664 533.025 448.859Z" fill="#27314A"/>
<path d="M532.774 461.54C532.085 459.152 530.904 456.928 529.57 454.834C528.257 452.73 526.737 450.745 524.9 449.055C523.959 448.238 522.997 447.463 521.936 446.82C520.886 446.166 519.782 445.621 518.568 445.304C518.513 445.294 518.459 445.315 518.437 445.37C518.415 445.424 518.437 445.49 518.492 445.523H518.502C520.679 446.493 522.527 448.096 524.08 449.851C525.655 451.607 526.923 453.624 527.973 455.729C529.077 457.811 529.646 460.123 530.608 462.271C531.035 463.372 531.451 464.484 531.943 465.586C532.358 466.709 532.817 467.832 533.408 468.944C533.408 468.944 533.463 469.009 533.506 469.009C533.572 469.009 533.627 468.966 533.627 468.9C533.681 467.657 533.605 466.425 533.485 465.193C533.31 463.972 533.047 462.761 532.752 461.562L532.774 461.54Z" fill="#27314A"/>
<path d="M533.233 394.482C533.233 394.482 521.302 391.734 518.546 378.922C515.79 366.11 524.659 371.606 516.709 351.477C508.759 331.349 510.596 326.769 513.341 320.979C516.097 315.189 517.628 317.01 520.066 324.643C522.516 332.265 531.385 344.161 534.753 366.426C538.121 388.692 533.222 394.482 533.222 394.482H533.233Z" fill="white"/>
<path d="M556.778 372.827C556.778 372.827 548.828 370.079 548.521 355.141C548.215 340.192 554.328 343.245 555.247 324.643C556.166 306.041 557.39 292.924 560.748 292.618C564.116 292.313 572.985 301.767 576.047 322.506C579.109 343.245 572.066 356.973 565.953 363.068C559.84 369.163 556.778 372.827 556.778 372.827Z" fill="white"/>
<path d="M528.946 412.484C528.946 412.484 527.109 401.504 523.446 396.324C519.771 391.134 511.821 386.566 506.626 376.501C501.421 366.437 495.614 361.552 495.92 375.891C496.226 390.229 502.646 397.546 510.607 402.431C518.557 407.315 528.957 412.495 528.957 412.495L528.946 412.484Z" fill="white"/>
<path d="M525.578 431.391C525.578 431.391 518.24 417.358 507.534 406.988C496.828 396.619 488.265 391.429 491.316 396.619C494.378 401.809 498.041 401.504 503.247 410.652C508.452 419.8 506.921 426.517 514.259 431.696C521.597 436.887 525.578 431.391 525.578 431.391Z" fill="white"/>
<path d="M524.659 449.382C524.353 448.466 524.047 441.761 513.647 436.265C503.247 430.781 493.46 432.907 494.684 435.655C495.909 438.402 502.328 442.971 508.759 445.719C515.178 448.467 524.67 449.382 524.67 449.382H524.659Z" fill="white"/>
<path d="M556.165 413.095C556.165 413.095 551.572 407.305 554.022 395.103C556.472 382.902 561.972 385.955 568.096 379.544C574.21 373.143 572.996 372.227 579.109 365.511C585.222 358.805 590.734 355.141 593.183 357.889C595.633 360.637 591.958 369.174 588.284 374.059C584.61 378.944 578.803 381.376 576.047 387.482C573.291 393.577 574.516 403.347 567.484 407.915C560.452 412.495 556.165 413.095 556.165 413.095Z" fill="white"/>
<path d="M571.465 416.442C571.465 416.442 582.477 403.935 590.428 394.787C598.378 385.639 601.44 378.617 601.746 384.723C602.052 390.818 604.502 395.703 598.072 403.63C591.652 411.557 571.454 416.442 571.454 416.442H571.465Z" fill="white"/>
<path d="M565.658 436.581C565.658 436.581 565.352 431.697 582.783 420.411C600.215 409.126 607.564 406.989 605.727 411.568C603.89 416.148 596.245 420.716 587.989 428.949C579.732 437.181 565.658 436.571 565.658 436.571V436.581Z" fill="white"/>
<path d="M533.955 393.184C533.955 393.184 529.865 371.3 525.578 355.752C521.291 340.203 518.546 330.738 518.546 330.738" stroke="#27314A" stroke-linecap="round" stroke-linejoin="round"/>
<path d="M556.078 373.067C556.078 373.067 563.514 349.351 565.964 335.012C568.414 320.674 565.658 309.999 564.433 303.599" stroke="#27314A" stroke-linecap="round" stroke-linejoin="round"/>
<path d="M527.984 412.026C527.984 412.026 523.446 403.946 516.709 396.019C509.984 388.092 504.778 383.818 501.716 376.196" stroke="#27314A" stroke-linecap="round" stroke-linejoin="round"/>
<path d="M556.166 413.095C556.166 413.095 558.615 398.451 564.422 390.829C570.229 383.207 581.854 371.311 586.447 363.689" stroke="#27314A" stroke-linecap="round" stroke-linejoin="round"/>
<path d="M523.949 449.055C523.949 449.055 513.658 442.371 506.309 438.719" stroke="#27314A" stroke-linecap="round" stroke-linejoin="round"/>
<path d="M553.88 513.737H540.418C538.034 513.737 535.88 512.308 534.961 510.117C530.565 499.605 518.809 469.271 525.884 460.668C532.621 452.468 561.666 452.468 568.403 460.668C575.478 469.271 563.733 499.605 559.326 510.117C558.407 512.308 556.253 513.737 553.869 513.737H553.88Z" fill="#27314A"/>
<path d="M379.803 305.997H335.36V362.348H379.803V305.997Z" fill="#27314A" stroke="#27314A" stroke-linecap="round" stroke-linejoin="round"/>
<path d="M413.256 237.227L408.346 252.274L416.416 254.717L413.256 237.227Z" fill="#E14D78" stroke="#27314A" stroke-linecap="round" stroke-linejoin="round"/>
<path d="M417.335 334.391C417.335 334.391 416.537 379.794 418.133 392.563C419.73 405.331 439.775 450.462 441.372 456.993C442.969 463.525 448.054 479.008 448.054 479.008C448.054 479.008 445.112 484.994 445.648 487.982C446.184 490.969 446.184 493.423 446.184 493.423C446.184 493.423 447.518 494.513 440.836 498.319C434.154 502.124 421.6 504.294 421.338 507.292C421.075 510.28 424.006 512.188 427.21 512.734C430.414 513.279 440.836 511.916 442.706 511.643C444.576 511.371 461.942 508.383 465.147 508.383C468.351 508.383 470.494 509.746 471.555 502.669C472.627 495.604 469.422 481.189 469.422 481.189C469.422 481.189 468.088 459.174 463.277 441.772C458.465 424.369 448.852 388.212 449.388 386.315C449.924 384.407 451.258 335.481 451.258 335.481L417.335 334.391Z" fill="#E14D78" stroke="#27314A" stroke-linecap="round" stroke-linejoin="round"/>
<path d="M465.158 508.372C468.132 508.372 470.177 509.528 471.314 504.076C467.017 503.225 462.577 502.244 460.247 501.415C454.856 499.496 446.184 493.412 446.184 493.412C446.184 493.412 447.518 494.502 440.836 498.308C434.154 502.113 421.6 504.283 421.338 507.282C421.075 510.28 424.006 512.177 427.21 512.722C430.414 513.268 440.836 511.905 442.706 511.632C444.576 511.36 461.942 508.372 465.147 508.372H465.158Z" fill="white" stroke="#27314A" stroke-linecap="round" stroke-linejoin="round"/>
<path d="M438.168 336.016C438.168 336.016 438.966 383.589 441.908 396.913C444.85 410.238 447.518 449.655 447.78 455.085C448.043 460.515 448.043 478.19 448.043 479.008C448.043 479.826 446.971 496.683 446.971 496.683C446.971 496.683 440.027 501.579 437.085 503.749C434.143 505.919 425.329 507.282 425.067 509.462C424.804 511.643 429.878 516.528 434.417 517.346C438.955 518.164 464.6 514.086 467.541 514.086C470.483 514.086 475.022 513.54 476.356 512.995C477.69 512.45 477.963 509.462 477.963 505.93C477.963 502.397 477.427 499.137 477.963 496.138C478.499 493.15 480.632 464.332 479.297 449.928C477.963 435.524 474.223 421.109 474.486 405.342C474.748 389.575 477.69 374.353 478.762 365.107C479.833 355.861 483.573 333.301 483.573 333.301L438.157 336.016H438.168Z" fill="#E14D78" stroke="#27314A" stroke-linecap="round" stroke-linejoin="round"/>
<path d="M419.785 339.647L437.359 343.823L466.634 338.458L419.785 339.647Z" fill="#27314A" stroke="#27314A" stroke-linecap="round" stroke-linejoin="round"/>
<path d="M470.505 435.142C471.402 436.799 472.277 438.261 473.119 439.46" stroke="#27314A" stroke-linecap="round" stroke-linejoin="round"/>
<path d="M449.18 379.969C449.18 379.969 459.11 411.361 467.87 429.908" stroke="#27314A" stroke-linecap="round" stroke-linejoin="round"/>
<path d="M446.993 496.683C446.993 496.683 440.049 501.579 437.107 503.749C434.165 505.919 425.351 507.282 425.089 509.462C424.826 511.643 429.9 516.528 434.439 517.346C438.977 518.164 464.622 514.086 467.563 514.086C470.505 514.086 475.044 513.54 476.378 512.995C477.712 512.45 477.985 509.462 477.985 505.93C477.985 505.93 464.545 505.024 457.393 502.898C450.241 500.772 446.993 496.683 446.993 496.683Z" fill="white" stroke="#27314A" stroke-linecap="round" stroke-linejoin="round"/>
<path d="M442.674 514.304C435.981 514.947 430.261 513.726 426.642 512.592C428.446 514.664 431.541 516.822 434.428 517.335C438.966 518.153 464.611 514.075 467.553 514.075C470.494 514.075 475.033 513.53 476.367 512.984C477.296 512.603 477.701 511.033 477.865 508.917C468.121 510.607 450.733 513.53 442.663 514.293L442.674 514.304Z" fill="white" stroke="#27314A" stroke-linecap="round" stroke-linejoin="round"/>
<path d="M355.405 298.67H329.826V303.904H329.936V420.455H227.762V423.268H329.936V447.103H333.468V423.268V420.455V303.904H355.405V298.67Z" fill="white"/>
<path d="M360.326 297.231H338.028V305.529H360.326V297.231Z" fill="#27314A" stroke="#27314A" stroke-linecap="round" stroke-linejoin="round"/>
<path d="M320.246 383.218C287.964 383.218 261.794 412.495 261.794 448.597C261.794 484.7 287.964 513.976 320.246 513.976C352.529 513.976 378.699 484.7 378.699 448.597C378.699 412.495 352.529 383.218 320.246 383.218ZM320.246 507.031C291.398 507.031 268.017 480.872 268.017 448.608C268.017 416.344 291.398 390.186 320.246 390.186C349.095 390.186 372.476 416.344 372.476 448.608C372.476 480.872 349.095 507.031 320.246 507.031Z" fill="white"/>
<path d="M371.612 473.785H365.226C368.977 466.338 371.12 457.746 371.12 448.597C371.12 420.193 350.539 397.164 325.135 397.164C314.199 397.164 304.16 401.449 296.264 408.58H277.881V410.859H293.913C284.836 420.258 279.161 433.681 279.161 448.608C279.161 465.694 286.619 480.829 298.091 490.184H280.681V492.463H300.617V492.103C307.714 497.119 316.124 500.041 325.146 500.041C341.506 500.041 355.865 490.468 364.012 476.075H371.612V473.796V473.785ZM367.916 448.597C367.916 460.559 363.979 471.495 357.494 479.88L339.592 453.101C340.172 451.661 340.5 450.08 340.5 448.401C340.5 444.399 338.673 440.888 335.918 438.882L341.254 404.284C356.893 411.404 367.916 428.556 367.916 448.608V448.597ZM325.146 400.751C329.017 400.751 332.768 401.34 336.333 402.42C335.59 405.778 331.117 425.917 328.536 437.323C324.238 438.337 320.968 442.535 320.673 447.649C310 451.443 288.478 458.247 283.568 459.796C282.802 456.208 282.376 452.457 282.376 448.597C282.376 422.177 301.524 400.751 325.146 400.751ZM285.427 466.36L323.768 456.633C325.539 458.531 327.923 459.708 330.559 459.708C331.74 459.708 332.866 459.458 333.916 459.032L353.262 484.634C345.738 491.984 335.918 496.443 325.146 496.443C307.134 496.443 291.737 483.991 285.427 466.36Z" fill="white"/>
<path d="M412.884 251.697L407.843 265.217C407.843 265.217 366.002 285.695 362.131 288.006C358.26 290.329 341.594 295.737 341.594 295.737C341.594 295.737 338.881 307.709 340.434 308.484C341.987 309.258 345.082 309.258 345.082 309.258L348.953 306.172C348.953 306.172 354.76 306.946 355.93 306.554C357.09 306.172 360.316 297.231 360.316 297.231L416.756 283.372L418.691 246.67L412.884 251.697Z" fill="#FFCCB2" stroke="#27314A" stroke-linecap="round" stroke-linejoin="round"/>
<path d="M168.25 493.575L164.499 491.34L203.2 425.961C204.994 422.962 208.297 421.098 211.807 421.098H229.315V425.459H211.807C209.828 425.459 207.968 426.506 206.962 428.207L168.26 493.586L168.25 493.575Z" fill="white" stroke="#27314A" stroke-linecap="round" stroke-linejoin="round"/>
<path d="M229.687 410.707H330.92V371.933C330.92 371.933 265.896 366.59 230.026 396.335L229.687 410.707Z" fill="#27314A" stroke="#27314A" stroke-linecap="round" stroke-linejoin="round"/>
<path d="M334.682 349.176H311.957V352.447H334.682V349.176Z" stroke="#27314A" stroke-linecap="round" stroke-linejoin="round"/>
<path d="M311.957 354.628H241.782C239.672 354.628 237.955 352.916 237.955 350.812C237.955 348.708 239.672 346.996 241.782 346.996H311.957C314.068 346.996 315.785 348.708 315.785 350.812C315.785 352.916 314.068 354.628 311.957 354.628Z" fill="#27314A"/>
<path d="M231.185 463.372H227.905V354.476C227.905 351.564 230.289 349.187 233.208 349.187H241.782V352.458H233.208C232.093 352.458 231.185 353.363 231.185 354.476V463.372Z" fill="white" stroke="#27314A" stroke-linecap="round" stroke-linejoin="round"/>
<path d="M226.8 462.369V486.019C226.8 486.019 225.105 491.569 225.302 493.739C225.652 497.621 233.788 486.019 233.788 486.019V462.369H226.8Z" fill="#27314A" stroke="#27314A" stroke-linecap="round" stroke-linejoin="round"/>
<path d="M227.653 466.796C214.76 466.796 204.316 477.22 204.316 490.064C204.316 502.909 214.771 513.333 227.653 513.333C240.535 513.333 250.99 502.909 250.99 490.064C250.99 477.22 240.535 466.796 227.653 466.796ZM243.663 488.276C239.103 487.447 227.74 484.493 221.627 475.17C223.486 474.417 225.521 473.992 227.653 473.992C235.942 473.992 242.766 480.24 243.663 488.276ZM216.313 478.659C217.669 480.872 221.19 487.447 219.823 494.251C218.926 498.733 217.253 500.412 215.897 501.023C213.207 498.155 211.545 494.306 211.545 490.064C211.545 485.605 213.371 481.57 216.313 478.659ZM227.664 506.126C226.089 506.126 224.58 505.886 223.147 505.471C225.63 501.273 231.327 494.895 242.723 495.756C240.415 501.808 234.554 506.126 227.675 506.126H227.664Z" fill="#27314A" stroke="#27314A" stroke-linecap="round" stroke-linejoin="round"/>
<path d="M313.674 274.693C313.674 274.693 300.584 275.565 292.732 283.176C284.88 290.787 251.296 344.281 251.296 344.281L284.443 346.232L278.341 372.979L350.528 384.941C350.528 384.941 352.923 389.292 356.63 367.757C360.338 346.232 368.408 314.917 368.408 304.471C368.408 294.025 364.264 282.511 359.244 278.378C354.224 274.246 338.521 271.203 338.521 271.203L313.653 274.682L313.674 274.693Z" fill="white" stroke="#27314A" stroke-linecap="round" stroke-linejoin="round"/>
<path d="M293.695 305.877L295.401 299.27" stroke="#27314A" stroke-linecap="round" stroke-linejoin="round"/>
<path d="M285.657 336.877L292.393 310.871" stroke="#27314A" stroke-linecap="round" stroke-linejoin="round"/>
<path d="M279.095 334.042C279.095 334.042 271.167 330.389 264.682 330.389C258.197 330.389 253.691 334.871 250.443 340.104C247.195 345.338 256.436 348.566 260.931 348.817C265.425 349.067 268.564 348.664 274.557 348.664C280.55 348.664 285.394 361.04 285.394 361.04C285.394 361.04 286.389 366.274 288.894 369.752C291.387 373.241 290.392 374.484 291.89 374.986C293.388 375.487 296.385 374.233 296.636 371.998C296.888 369.752 299.469 365.576 297.139 358.303C290.293 336.975 279.095 334.053 279.095 334.053V334.042Z" fill="#FFCCB2" stroke="#27314A" stroke-linecap="round" stroke-linejoin="round"/>
<path d="M289.036 361.967L292.535 372.914" stroke="#27314A" stroke-linecap="round" stroke-linejoin="round"/>
<path d="M292.076 361.269C292.076 361.269 295.346 368.487 295.105 373.143L292.076 361.269Z" fill="#FFCCB2"/>
<path d="M292.076 361.269C292.076 361.269 295.346 368.487 295.105 373.143" stroke="#27314A" stroke-linecap="round" stroke-linejoin="round"/>
<path d="M295.346 360.113C295.346 360.113 297.194 363.417 297.194 369L295.346 360.113Z" fill="#FFCCB2"/>
<path d="M295.346 360.113C295.346 360.113 297.194 363.417 297.194 369" stroke="#27314A" stroke-linecap="round" stroke-linejoin="round"/>
<path d="M315.861 269.263C315.861 269.263 310.186 272.959 307.791 277.964C305.396 282.969 304.084 287.101 305.833 287.537C307.583 287.974 317.83 284.059 317.83 284.059C317.83 284.059 323.506 282.533 325.026 283.187C326.557 283.841 331.347 289.707 335.491 291.234C339.636 292.76 345.093 281.878 346.613 274.267C348.144 266.657 340.937 265.348 340.937 265.348C340.937 265.348 320.214 266.22 315.85 269.263H315.861Z" fill="white" stroke="#27314A" stroke-linecap="round" stroke-linejoin="round"/>
<path d="M344.655 211.854C344.655 211.854 337.241 206.849 323.276 209.03C309.322 211.2 302.99 220.773 302.552 225.56C302.115 230.347 301.678 232.735 301.459 240.346C301.24 247.957 301.678 257.748 304.51 261.227C307.342 264.705 311.925 267.965 313.237 269.71C314.549 271.454 316.725 282.543 317.819 284.059C318.913 285.586 321.745 286.883 323.276 284.277C325.682 280.166 329.794 277.135 333.643 274.464C334.54 273.842 343.431 268.794 342.906 267.529C342.906 267.529 341.812 264.923 342.906 259.046C343.999 253.18 345.082 252.525 345.082 252.525C345.082 252.525 354.465 252.307 354.465 243.824C354.465 235.341 352.07 234.469 352.07 234.469C352.07 234.469 354.027 218.811 344.655 211.854Z" fill="#FFCCB2" stroke="#27314A" stroke-linecap="round" stroke-linejoin="round"/>
<path d="M345.082 214.896C345.082 214.896 337.449 218.811 337.23 222.725C337.011 226.64 341.812 229.682 342.25 230.554C342.687 231.426 340.937 236.42 342.687 237.293C344.437 238.165 346.362 236.638 346.394 235.548C346.471 233.062 351.425 232.659 352.07 234.458C352.07 234.458 354.465 234.24 353.82 225.32C353.175 216.401 349.238 211.625 345.093 214.885L345.082 214.896Z" fill="#27314A" stroke="#27314A" stroke-linecap="round" stroke-linejoin="round"/>
<path d="M344.656 211.854C344.656 211.854 342.479 213.817 338.335 216.205C334.19 218.593 330.045 218.811 324.162 216.859C318.278 214.907 311.29 214.253 308.677 216.423C306.063 218.593 302.574 220.773 302.574 223.161C302.574 225.549 298.648 218.375 301.481 214.024C304.313 209.673 308.677 209.455 308.677 209.455C308.677 209.455 311.946 201.844 316.31 201.19C320.673 200.536 345.104 202.935 344.666 211.843L344.656 211.854Z" fill="#27314A" stroke="#27314A" stroke-linecap="round" stroke-linejoin="round"/>
<path d="M313.029 230.118L313.893 235.341L311.498 249.908L317.6 250.999" stroke="#27314A" stroke-linecap="round" stroke-linejoin="round"/>
<path d="M312.373 254.259C312.373 254.259 318.694 257.737 325.026 253.387" stroke="#27314A" stroke-linecap="round" stroke-linejoin="round"/>
<path d="M311.498 265.348C311.498 265.348 314.549 269.263 317.174 270.353C319.787 271.443 322.849 271.443 324.37 270.789C325.901 270.135 329.17 265.784 329.17 265.784" stroke="#27314A" stroke-linecap="round" stroke-linejoin="round"/>
<path d="M319.35 228.591C319.35 228.591 325.026 227.065 329.816 230.118" stroke="#27314A" stroke-linecap="round" stroke-linejoin="round"/>
<path d="M310.623 228.591C310.623 228.591 308.873 226.629 304.083 228.591" stroke="#27314A" stroke-linecap="round" stroke-linejoin="round"/>
<path d="M326.327 237.838C326.327 239.223 325.791 240.335 325.124 240.335C324.457 240.335 323.921 239.212 323.921 237.838C323.921 236.464 324.457 235.341 325.124 235.341C325.791 235.341 326.327 236.464 326.327 237.838Z" fill="#27314A"/>
<path d="M309.65 237.838C309.65 239.223 309.114 240.335 308.447 240.335C307.78 240.335 307.244 239.212 307.244 237.838C307.244 236.464 307.78 235.341 308.447 235.341C309.114 235.341 309.65 236.464 309.65 237.838Z" fill="#27314A"/>
<path d="M322.62 241.207C322.62 241.207 324.796 244.031 328.503 244.903" stroke="#27314A" stroke-linecap="round" stroke-linejoin="round"/>
<path d="M311.717 240.117C311.717 240.117 307.791 242.723 305.615 243.377" stroke="#27314A" stroke-linecap="round" stroke-linejoin="round"/>
<path d="M335.054 328.623C335.054 328.623 313.893 331.229 297.325 337.324C280.746 343.408 267.088 354.498 266.388 355.882C265.403 357.845 261.138 365.041 260.482 366.677C259.826 368.313 264.747 368.313 267.044 368.313C269.34 368.313 274.59 363.406 275.574 362.425C276.558 361.443 272.949 367.004 276.23 367.004C279.511 367.004 279.839 362.425 281.151 361.443C282.463 360.462 283.415 359.317 285.416 355.882C287.417 352.448 290.917 353.636 289.167 350.31C288.795 349.613 287.953 349.067 286.87 348.664C310.754 348.38 352.857 347.857 354.257 347.541C356.215 347.105 357.746 342.754 357.746 342.754C357.746 342.754 347.28 327.532 335.065 328.623H335.054Z" fill="#FFCCB2" stroke="#27314A" stroke-linecap="round" stroke-linejoin="round"/>
<path d="M284.443 354.367C284.443 354.367 281.61 355.904 279.292 357.452C276.973 358.99 271.954 359.633 271.309 360.407C270.663 361.182 264.616 365.674 263.708 366.568" stroke="#27314A" stroke-miterlimit="10"/>
<path d="M348.363 291.659L335.054 328.623C335.054 328.623 342.031 329.495 347.706 335.143C353.382 340.791 358.391 346.451 358.391 346.451C358.391 346.451 366.899 326.224 367.992 309.269C369.086 292.302 360.578 280.777 356.215 279.043" fill="white"/>
<path d="M348.363 291.659L335.054 328.623C335.054 328.623 342.031 329.495 347.706 335.143C353.382 340.791 358.391 346.451 358.391 346.451C358.391 346.451 366.899 326.224 367.992 309.269C369.086 292.302 360.578 280.777 356.215 279.043" stroke="#27314A" stroke-linecap="round" stroke-linejoin="round"/>
<path d="M403.458 298.67H382.264C379.847 298.67 377.879 300.633 377.879 303.042V303.904H377.988V420.455H275.814V423.279H377.988V447.114H381.52V303.904H403.458V298.67Z" fill="white" stroke="#27314A" stroke-linecap="round" stroke-linejoin="round"/>
<path d="M408.379 297.231H386.081V305.529H408.379V297.231Z" fill="#27314A" stroke="#27314A" stroke-linecap="round" stroke-linejoin="round"/>
<path d="M191.58 495.578L155.905 484.751L154.53 489.257L190.205 500.085L191.58 495.578Z" fill="#27314A" stroke="#27314A" stroke-linecap="round" stroke-linejoin="round"/>
<path d="M222.776 369.294C222.776 369.294 209.663 362.098 199.165 367.986C193.533 371.148 192.604 396.107 191.947 407.218C191.291 418.339 187.682 470.318 187.682 470.318C187.682 470.318 185.714 470.645 184.402 471.299C183.089 471.953 181.777 476.533 181.777 476.533C181.777 476.533 177.512 477.514 169.649 476.86C161.775 476.206 158.167 478.823 161.775 483.73C165.384 488.636 162.104 487.655 176.528 492.235C190.952 496.814 198.826 498.123 198.826 498.123C198.826 498.123 203.091 500.739 205.06 498.777C207.028 496.814 206.7 493.543 206.372 489.945C206.044 486.346 207.684 477.525 207.684 476.544C207.684 475.563 212.605 469.02 213.261 457.255C213.918 445.479 214.246 443.854 214.574 441.237C214.902 438.621 220.151 403.641 220.151 403.641C220.151 403.641 261.86 409.638 269.012 410.183C276.164 410.729 279.511 409.529 279.511 409.529L222.776 369.316V369.294Z" fill="#E14D78" stroke="#27314A" stroke-linecap="round" stroke-linejoin="round"/>
<path d="M205.202 407.152C206.131 417.489 208.154 434.052 212.168 444.705" stroke="#27314A" stroke-miterlimit="10"/>
<path d="M204.513 397.775C204.513 397.775 204.6 399.552 204.819 402.464" stroke="#27314A" stroke-miterlimit="10"/>
<path d="M169.649 476.86C161.775 476.206 158.167 478.823 161.775 483.73C165.384 488.636 162.104 487.655 176.528 492.235C190.952 496.814 198.826 498.123 198.826 498.123C198.826 498.123 203.091 500.739 205.06 498.777C206.864 496.978 206.733 494.088 206.448 490.85C203.835 490.25 199.438 488.985 196.245 486.706C191.423 483.272 181.777 476.544 181.777 476.544C181.777 476.544 177.512 477.525 169.649 476.871V476.86Z" fill="white" stroke="#27314A" stroke-linecap="round" stroke-linejoin="round"/>
<path d="M350.539 384.952C350.539 384.952 301.798 374.201 264.419 368.967C227.04 363.733 219.495 365.041 217.854 370.929C216.214 376.818 212.277 467.057 212.277 467.057C212.277 467.057 204.731 467.385 204.403 469.347C204.075 471.31 202.107 479.161 202.107 479.161C202.107 479.161 189.651 481.45 183.089 480.469C176.528 479.488 173.903 478.179 174.231 482.432C174.559 486.684 180.137 489.628 192.921 495.505C205.705 501.393 220.195 507.292 223.114 505.493C226.034 503.694 223.552 493.968 225.291 493.761C227.019 493.554 229.971 483.74 231.612 480.796C233.252 477.852 233.252 471.964 233.252 470.983C233.252 470.001 237.189 444.825 239.813 437.301C242.438 429.777 249 399.705 249 399.705C249 399.705 269.067 406.356 272.61 408.537L276.153 410.717C276.153 410.717 327.694 414.752 338.848 405.92C350.003 397.088 350.528 384.963 350.528 384.963L350.539 384.952Z" fill="#E14D78" stroke="#27314A" stroke-linecap="round" stroke-linejoin="round"/>
<path d="M243.936 390.186C246.2 392.868 248.486 396.303 249 399.694" stroke="#27314A" stroke-miterlimit="10"/>
<path d="M238.928 385.17C238.928 385.17 240.032 386.075 241.52 387.569" stroke="#27314A" stroke-miterlimit="10"/>
<path d="M241.574 379.303C241.574 379.303 245.106 382.237 247.458 390.153" stroke="#27314A" stroke-miterlimit="10"/>
<path d="M183.1 480.458C176.539 479.477 173.914 478.168 174.242 482.421C174.57 486.673 180.148 489.617 192.932 495.495C205.716 501.383 220.206 507.282 223.125 505.482C226.045 503.683 223.563 493.957 225.302 493.75C225.302 493.75 218.073 495.178 211.533 490.075C204.994 484.972 202.107 479.161 202.107 479.161C202.107 479.161 189.651 481.45 183.089 480.469L183.1 480.458Z" fill="white" stroke="#27314A" stroke-linecap="round" stroke-linejoin="round"/>
<path d="M276.164 410.707H377.397V371.933C377.397 371.933 312.373 366.59 276.503 396.335L276.164 410.707Z" fill="#20A6D9" stroke="#27314A" stroke-linecap="round" stroke-linejoin="round"/>
<path d="M368.31 383.218C336.027 383.218 309.858 412.495 309.858 448.597C309.858 484.7 336.027 513.977 368.31 513.977C400.592 513.977 426.762 484.7 426.762 448.597C426.762 412.495 400.592 383.218 368.31 383.218ZM368.31 507.031C339.461 507.031 316.08 480.873 316.08 448.608C316.08 416.344 339.461 390.186 368.31 390.186C397.158 390.186 420.539 416.344 420.539 448.608C420.539 480.873 397.158 507.031 368.31 507.031Z" fill="#27314A" stroke="#27314A" stroke-linecap="round" stroke-linejoin="round"/>
<path d="M419.675 473.785H413.289C417.04 466.338 419.183 457.746 419.183 448.598C419.183 420.193 398.602 397.164 373.198 397.164C362.262 397.164 352.223 401.45 344.327 408.581H325.944V410.86H341.976C332.9 420.259 327.224 433.681 327.224 448.608C327.224 465.695 334.682 480.829 346.154 490.185H328.744V492.464H348.68V492.104C355.777 497.119 364.187 500.042 373.209 500.042C389.569 500.042 403.928 490.468 412.075 476.075H419.675V473.796V473.785ZM415.979 448.598C415.979 460.559 412.042 471.496 405.557 479.881L387.655 453.101C388.235 451.662 388.563 450.08 388.563 448.401C388.563 444.4 386.737 440.889 383.981 438.882L389.318 404.285C404.956 411.405 415.979 428.556 415.979 448.608V448.598ZM373.209 400.752C377.08 400.752 380.831 401.34 384.396 402.42C383.653 405.778 379.18 425.918 376.599 437.323C372.301 438.337 369.032 442.535 368.736 447.649C358.063 451.443 336.541 458.247 331.631 459.796C330.865 456.208 330.439 452.458 330.439 448.598C330.439 422.178 349.588 400.752 373.209 400.752ZM333.49 466.36L371.831 456.634C373.603 458.531 375.987 459.709 378.622 459.709C379.803 459.709 380.93 459.458 381.98 459.033L401.325 484.635C393.801 491.984 383.981 496.443 373.209 496.443C355.198 496.443 339.8 483.991 333.49 466.36Z" fill="#27314A"/>
<path d="M207.4 505.112L203.649 502.876L249.71 425.961C251.504 422.962 254.807 421.098 258.317 421.098H275.825V425.459H258.317C256.338 425.459 254.478 426.506 253.472 428.207L207.411 505.123L207.4 505.112Z" fill="white" stroke="#27314A" stroke-linecap="round" stroke-linejoin="round"/>
<path d="M438.398 182.348C438.398 182.348 415.629 217.688 413.989 224.47C412.348 231.252 410.938 256.298 412.578 265.195C414.218 274.093 406.476 339.614 406.476 339.614C406.476 339.614 429.474 341.02 456.945 340.083C484.405 339.145 492.147 337.738 492.147 337.738C492.147 337.738 495.669 326.039 489.566 301.461C483.464 276.884 475.722 267.289 474.07 252.318C472.43 237.336 482.053 224.699 475.481 198.726C468.909 172.753 459.055 173.451 459.055 173.451C459.055 173.451 446.61 174.149 438.398 182.348Z" fill="#E14D78" stroke="#27314A" stroke-linecap="round" stroke-linejoin="round"/>
<path d="M411.637 127.513C411.637 127.513 407.897 135.942 409.275 141.394C410.664 146.846 412.819 151.414 412.25 154.402C411.681 157.39 407.252 161.424 409.286 163.147C411.331 164.87 413.726 164.848 413.726 164.848C413.726 164.848 421.381 176.166 422.956 177.987C424.542 179.808 434.395 175.359 434.395 175.359L438.868 192.173L459.055 173.451L452.603 156.975C452.603 156.975 460.214 148.688 455.818 135.745C451.422 122.803 437.49 119.248 429.846 119.412C422.202 119.575 415.071 124.406 411.637 127.513Z" fill="#FFCCB3" stroke="#27314A" stroke-linecap="round" stroke-linejoin="round"/>
<path d="M403.873 128.178C403.873 128.178 416.329 136.105 432.776 142.473C432.776 142.473 442.192 150.793 443.242 148.895C444.281 147.009 443.669 139.485 448.152 141.415C452.636 143.345 453.412 148.208 452.384 151.294C451.356 154.38 450.591 156.452 450.591 156.452C450.591 156.452 453.117 160.464 454.265 160.224C455.414 159.985 460.674 150.76 460.193 138.188C459.711 125.616 452.023 115.268 440.683 113.807C429.343 112.346 415.531 117.383 409.319 122.028C403.097 126.673 402.594 126.543 403.895 128.178H403.873Z" fill="#27314A" stroke="#27314A" stroke-linecap="round" stroke-linejoin="round"/>
<path d="M460.094 145.853C460.094 145.853 459.536 139.758 467.016 142.255C474.497 144.763 478.259 153.54 476.924 158.6C475.59 163.659 465.135 168.708 461.056 165.262C456.977 161.816 456.474 157.128 456.693 155.896C456.912 154.653 460.105 145.864 460.105 145.864L460.094 145.853Z" fill="#27314A" stroke="#27314A" stroke-linecap="round" stroke-linejoin="round"/>
<path d="M418.155 166.56C418.155 166.56 422.836 164.87 424.87 160.857" stroke="#27314A" stroke-linecap="round" stroke-linejoin="round"/>
<path d="M434.395 175.359L441.492 171.488L436.046 180.244L434.395 175.359Z" fill="#27314A" stroke="#27314A" stroke-linecap="round" stroke-linejoin="round"/>
<path d="M419.818 151.621C420.135 153.137 419.828 154.489 419.129 154.631C418.429 154.772 417.608 153.66 417.291 152.145C416.974 150.629 417.28 149.277 417.98 149.135C418.68 148.993 419.5 150.106 419.818 151.621Z" fill="#27314A"/>
<path d="M413.792 146.9C413.792 146.9 415.465 143.444 419.489 145.472" stroke="#27314A" stroke-linecap="round" stroke-linejoin="round"/>
<path d="M425.493 244.609H413.015V269.579H425.493V244.609Z" fill="white" stroke="#27314A" stroke-linecap="round" stroke-linejoin="round"/>
<path d="M459.055 173.462L416.34 244.838L461.866 174.628L459.055 173.462Z" fill="#27314A" stroke="#27314A" stroke-linecap="round" stroke-linejoin="round"/>
<path d="M436.516 182.817L416.34 244.838L437.905 189.414L436.516 182.817Z" fill="#27314A" stroke="#27314A" stroke-linecap="round" stroke-linejoin="round"/>
<path d="M395.441 294.058C395.441 294.058 387.458 308.102 388.169 308.8C388.869 309.498 392.631 309.498 392.631 309.498L395.912 308.331C395.912 308.331 400.133 309.966 403.184 309.498C406.235 309.029 410.927 302.715 411.637 300.84C412.337 298.964 421.797 295.715 431.3 292.357C445.407 287.374 469.783 269.284 470.953 268.826C472.123 268.357 475.645 264.149 475.645 264.149L477.559 242.472L455.49 239.43L453.576 255.262C453.576 255.262 441.197 270.658 428.993 279.316C416.788 287.973 409.275 291.953 408.575 292.422C407.875 292.891 398.952 293.12 395.43 294.058H395.441Z" fill="#FFCCB2" stroke="#27314A" stroke-linecap="round" stroke-linejoin="round"/>
<path d="M459.755 183.33C459.755 183.33 455.064 190.712 454.353 199.14C453.653 207.569 449.891 249.472 449.891 249.472L479.932 252.896C479.932 252.896 484.153 221.537 480.402 205.203C476.651 188.869 469.138 177.54 463.736 178.587" fill="#E14D78"/>
<path d="M459.755 183.33C459.755 183.33 455.064 190.712 454.353 199.14C453.653 207.569 449.891 249.472 449.891 249.472L479.932 252.896C479.932 252.896 484.153 221.537 480.402 205.203C476.651 188.869 469.138 177.54 463.736 178.587" stroke="#27314A" stroke-linecap="round" stroke-linejoin="round"/>
<path d="M219.196 504.987L183.521 494.159L182.145 498.666L217.82 509.493L219.196 504.987Z" fill="#27314A" stroke="#27314A" stroke-linecap="round" stroke-linejoin="round"/>
<path d="M377.988 349.176H357.582V352.447H377.988V349.176Z" fill="white" stroke="#27314A" stroke-linecap="round" stroke-linejoin="round"/>
<path d="M357.582 354.628H287.406C285.296 354.628 283.579 352.916 283.579 350.812C283.579 348.708 285.296 346.996 287.406 346.996H357.582C359.692 346.996 361.409 348.708 361.409 350.812C361.409 352.916 359.692 354.628 357.582 354.628Z" fill="#27314A"/>
<path d="M276.81 463.372H273.529V354.476C273.529 351.564 275.913 349.187 278.833 349.187H287.406V352.458H278.833C277.717 352.458 276.81 353.363 276.81 354.476V463.372Z" fill="white" stroke="#27314A" stroke-linecap="round" stroke-linejoin="round"/>
<path d="M272.424 462.369V486.019C272.424 486.019 270.729 491.569 270.926 493.739C271.276 497.621 279.412 486.019 279.412 486.019V462.369H272.424Z" fill="#27314A" stroke="#27314A" stroke-linecap="round" stroke-linejoin="round"/>
<path d="M273.277 466.796C260.384 466.796 249.94 477.22 249.94 490.064C249.94 502.909 260.395 513.333 273.277 513.333C286.16 513.333 296.614 502.909 296.614 490.064C296.614 477.22 286.16 466.796 273.277 466.796ZM289.287 488.276C284.727 487.447 273.365 484.493 267.252 475.17C269.111 474.417 271.145 473.992 273.277 473.992C281.567 473.992 288.391 480.24 289.287 488.276ZM261.937 478.659C263.293 480.872 266.814 487.447 265.447 494.251C264.55 498.733 262.877 500.412 261.521 501.023C258.831 498.155 257.169 494.306 257.169 490.064C257.169 485.605 258.995 481.57 261.937 478.659ZM273.288 506.126C271.713 506.126 270.204 505.886 268.772 505.471C271.254 501.273 276.952 494.895 288.347 495.756C286.039 501.808 280.178 506.126 273.299 506.126H273.288Z" fill="#27314A" stroke="#27314A" stroke-linecap="round" stroke-linejoin="round"/>
</g>
<defs>
<filter id="filter0_f_221_9709" x="37.2236" y="16.2" width="782.799" height="561.962" filterUnits="userSpaceOnUse" color-interpolation-filters="sRGB">
<feFlood flood-opacity="0" result="BackgroundImageFix"/>
<feBlend mode="normal" in="SourceGraphic" in2="BackgroundImageFix" result="shape"/>
<feGaussianBlur stdDeviation="32" result="effect1_foregroundBlur_221_9709"/>
</filter>
<clipPath id="clip0_221_9709">
<rect width="452" height="405" fill="white" transform="translate(154 113)"/>
</clipPath>
</defs>
</svg>
