<svg width="1920" height="709" viewBox="0 0 1920 709" fill="none" xmlns="http://www.w3.org/2000/svg">
<rect width="1920" height="590" fill="url(#paint0_linear_375_9710)"/>
<g opacity="0.8" filter="url(#filter0_f_375_9710)">
<path d="M1310.61 340.127C1320.76 341.092 1332.43 334.214 1333.19 323.079C1334.62 302.239 1336.73 281.358 1341.61 261.002C1341.89 259.868 1342.17 258.734 1342.46 257.595C1342.51 257.395 1342.82 256.283 1343 255.634C1343.27 254.743 1343.64 253.486 1343.7 253.267C1344.04 252.157 1344.4 251.048 1344.76 249.94C1346.38 244.992 1348.21 240.109 1350.29 235.343C1351.32 232.964 1352.42 230.616 1353.57 228.291C1354.09 227.264 1354.61 226.232 1355.16 225.216C1355.23 225.092 1355.5 224.56 1355.77 224.052C1356.16 223.399 1357.17 221.64 1357.33 221.383C1357.94 220.398 1358.56 219.423 1359.2 218.464C1360.81 216.027 1362.51 213.672 1364.26 211.356C1370.27 203.373 1369.36 192.135 1362.32 185.182C1354.92 177.863 1344.57 177.939 1336.11 183.476C1331.35 186.585 1326.54 189.585 1321.68 192.501C1321.28 192.737 1320.56 193.152 1320.22 193.366C1319.19 193.958 1318.14 194.544 1317.1 195.116C1314.31 196.66 1311.5 198.178 1308.67 199.655C1298.3 205.078 1287.66 209.965 1276.83 214.41C1267.15 218.386 1261.4 230.712 1265.94 240.491C1270.51 250.316 1281.66 255.588 1292.04 251.339C1296.24 249.608 1300.4 247.79 1304.54 245.915C1298.11 269.164 1295.24 293.618 1293.6 317.592C1292.89 328 1299.38 339.054 1310.64 340.125L1310.61 340.127Z" fill="#B3E4FF"/>
<path d="M1603.09 425.417C1601.68 425.793 1600.27 426.173 1598.86 426.548C1597.53 426.905 1596.82 427.088 1596.72 427.115C1594.22 427.775 1591.72 428.42 1589.21 429.069C1583.56 430.535 1577.9 431.976 1572.22 433.391C1560.88 436.236 1549.53 438.991 1538.15 441.66C1516.12 446.835 1493.99 451.686 1471.81 456.223C1461.21 458.396 1450.51 461.024 1439.78 462.386C1439.18 462.462 1437.15 462.484 1435.99 462.539C1436.11 461.712 1436.25 460.876 1436.42 460.048C1436.44 459.979 1436.46 459.936 1436.48 459.868C1437.3 457.693 1438.24 455.616 1439.16 453.484C1439.71 452.479 1439.96 452.004 1439.94 452.002C1440.38 451.254 1440.84 450.515 1441.3 449.783C1444.08 445.451 1447.16 441.315 1450.51 437.428C1450.89 436.983 1454.42 433.283 1454.19 433.426C1455.82 431.881 1457.49 430.39 1459.2 428.942C1467.14 422.158 1469.99 409.407 1462.76 400.912C1456.03 392.984 1443.22 390.111 1434.7 397.385C1419.8 410.109 1404.95 427.165 1399.05 446.213C1395.69 456.987 1394.37 468.664 1398.71 479.418C1403.53 491.406 1413.94 498.868 1426.23 501.699C1435.01 503.713 1444.31 502.293 1453.03 500.611C1463.43 498.608 1473.82 496.514 1484.18 494.359C1504.56 490.119 1524.88 485.611 1545.14 480.844C1569.64 475.066 1594.02 468.866 1618.33 462.368C1628.49 459.651 1633.37 445.197 1629.22 436.288C1624.17 425.412 1614.01 422.531 1603.13 425.44L1603.09 425.417ZM1435.99 464.833C1435.95 464.741 1435.92 464.659 1435.89 464.587C1435.92 464.669 1435.96 464.761 1435.99 464.843L1435.99 464.833Z" fill="#B3E4FF"/>
<path d="M1036.14 491.603C1016.86 521.295 998.035 551.289 979.688 581.567C974.287 590.486 973.94 602.95 983.454 609.566C991.566 615.199 1005.69 615.333 1011.49 605.771C1029.85 575.489 1048.67 545.509 1067.95 515.807C1073.63 507.048 1073.51 494.286 1064.18 487.808C1055.85 482.024 1042.23 482.222 1036.14 491.603Z" fill="#B3E4FF"/>
<path d="M1066.69 319.321C1066.98 319.252 1067.4 319.163 1068.05 319.001C1069.71 318.594 1071.38 318.197 1073.05 317.831C1076.73 317.013 1080.42 316.285 1084.13 315.658C1086.2 315.306 1088.3 314.985 1090.38 314.688C1090.44 315.613 1090.5 316.537 1090.55 317.452C1091.1 327.902 1102.67 336.562 1112.82 334.844C1124.12 332.937 1130.85 323.761 1130.26 312.582C1129.48 297.822 1128.71 279.29 1111.47 274.583C1099.95 271.444 1085.81 274.664 1074.25 276.906C1050.64 281.494 1027.72 289.288 1006.49 300.632C997.292 305.548 990.723 316.243 995.599 326.713C999.787 335.714 1011.82 342.841 1021.7 337.561C1035.66 330.098 1050.19 324.34 1065.33 319.764C1066.1 319.531 1066.51 319.397 1066.71 319.327L1066.69 319.321Z" fill="#B3E4FF"/>
<path d="M1191.45 437.125C1181.31 439.884 1176.39 454.266 1180.55 463.206C1185.59 474.041 1195.79 477.014 1206.65 474.054C1202.71 475.127 1210.18 473.369 1210.92 473.234C1213.47 472.772 1216.02 472.415 1218.6 472.144C1219.54 472.047 1220.47 471.986 1221.41 471.924C1217.6 475.783 1213.7 479.561 1209.98 483.421C1201.95 491.756 1193.91 500.091 1185.88 508.426C1175.11 519.592 1185.43 538.437 1199.01 540.307C1208.32 541.595 1217.49 540.423 1226.21 536.87C1235.51 533.075 1241.14 521.541 1237.57 511.987C1241.49 507.927 1245.4 503.867 1249.32 499.807C1259.3 489.459 1272.17 478.927 1272.31 463.273C1272.68 423.229 1216.53 430.285 1191.46 437.121L1191.45 437.125Z" fill="#B3E4FF"/>
</g>
<defs>
<filter id="filter0_f_375_9710" x="911.904" y="115.489" width="782.799" height="561.962" filterUnits="userSpaceOnUse" color-interpolation-filters="sRGB">
<feFlood flood-opacity="0" result="BackgroundImageFix"/>
<feBlend mode="normal" in="SourceGraphic" in2="BackgroundImageFix" result="shape"/>
<feGaussianBlur stdDeviation="32" result="effect1_foregroundBlur_375_9710"/>
</filter>
<linearGradient id="paint0_linear_375_9710" x1="713" y1="-12.371" x2="1835.6" y2="757.947" gradientUnits="userSpaceOnUse">
<stop stop-color="#D1416B"/>
<stop offset="1" stop-color="#07B3E8"/>
</linearGradient>
</defs>
</svg>
