<svg width="157" height="245" viewBox="0 0 157 245" fill="none" xmlns="http://www.w3.org/2000/svg">
<g clip-path="url(#clip0_256_12747)">
<path d="M55.5497 104.229C55.5497 104.229 10.8536 104.829 9.46819 108.01C8.07579 111.199 1.71949 149.819 1.32265 163.153C0.92582 176.494 0.723922 185.251 2.11632 186.842C3.50872 188.433 25.1605 200.978 25.1605 200.978C25.1605 200.978 15.0308 236.612 18.2055 237.805C21.3871 238.998 40.8529 243.973 53.3636 244.176C65.8743 244.378 78.1901 244.378 79.1856 244.378C80.1812 244.378 112.158 245.571 123.283 242.983C134.408 240.394 137.785 240.199 137.785 235.817C137.785 231.435 135.007 226.062 134.805 225.064C134.603 224.067 142.352 148.619 137.98 130.101C133.608 111.583 127.85 104.417 123.478 103.224C119.106 102.031 87.9229 102.826 87.9229 102.826L55.5427 104.222L55.5497 104.229Z" fill="#E14D78" stroke="#27314A" stroke-linecap="round" stroke-linejoin="round"/>
<path d="M79.3518 120.242C77.8828 121.1 76.3303 121.889 74.7012 122.587" stroke="#27314A" stroke-linecap="round" stroke-linejoin="round"/>
<path d="M95.9151 105.191C95.9151 105.191 90.4918 113.027 81.4551 118.944" stroke="#27314A" stroke-linecap="round" stroke-linejoin="round"/>
<path d="M93.2627 113.166C93.2627 113.166 89.1621 118.964 85.5488 120.897" stroke="#27314A" stroke-linecap="round" stroke-linejoin="round"/>
<path d="M64.8571 176.947L63.6875 173.305" stroke="#27314A" stroke-linecap="round" stroke-linejoin="round"/>
<path d="M71.2422 196.8L66.0625 180.682" stroke="#27314A" stroke-linecap="round" stroke-linejoin="round"/>
<path d="M72.8301 197.197L77.9959 189.033" stroke="#27314A" stroke-linecap="round" stroke-linejoin="round"/>
<path d="M84.5469 192.418L97.0645 178.281" stroke="#27314A" stroke-linecap="round" stroke-linejoin="round"/>
<path d="M52.25 236.514L79.186 244.377" stroke="#27314A" stroke-linecap="round" stroke-linejoin="round"/>
<path d="M44.4238 234.227L49.0466 235.58" stroke="#27314A" stroke-linecap="round" stroke-linejoin="round"/>
<path d="M55.2712 15.6855C55.2712 15.6855 41.2359 12.4549 38.5833 16.0623C35.9308 19.6766 41.2359 23.0956 40.477 23.8561C39.7181 24.6166 23.4062 32.9826 24.7359 41.1533C26.0657 49.3239 37.0656 57.6899 37.4416 59.9715C37.8175 62.2531 24.7359 63.0137 23.0302 66.4326C21.3245 69.8516 18.86 86.0114 33.0834 91.3352C47.3067 96.659 65.1364 87.7209 70.0655 87.7209C74.9946 87.7209 79.9306 97.4126 85.6186 96.8474C91.3065 96.2753 94.5299 92.0958 94.5299 92.0958C94.5299 92.0958 100.413 100.266 108.941 96.8474C117.477 93.4285 127.342 81.4482 123.165 77.8408C118.994 74.2265 114.253 73.0892 117.282 69.8586C120.317 66.628 126.576 58.0736 125.629 50.6566C124.682 43.2465 115.959 42.6743 112.541 40.3927C109.129 38.1111 116.335 34.3084 116.147 28.0356C115.959 21.7629 111.406 11.3106 88.2641 4.27732C65.1225 -2.75597 53.7466 0.662988 52.6048 6.55895C51.47 12.4549 55.2573 15.6855 55.2573 15.6855H55.2712Z" fill="#27314A" stroke="#27314A" stroke-linecap="round" stroke-linejoin="round"/>
<path d="M57.7915 76.6758C57.7915 76.6758 53.0504 106.33 52.8624 107.279C52.6744 108.228 61.2099 116.782 72.7807 115.261C84.3515 113.74 90.2275 105.946 90.2275 105.946L86.6211 76.4805C86.6211 76.4805 76.756 81.2321 70.6921 81.0437C64.6212 80.8553 57.7915 76.6689 57.7915 76.6689V76.6758Z" fill="#FFCCB2" stroke="#27314A" stroke-linecap="round" stroke-linejoin="round"/>
<path d="M55.8496 92.5844L75.8166 88.7119L57.792 76.6758L55.8496 92.5844Z" fill="#27314A" stroke="#27314A" stroke-linecap="round" stroke-linejoin="round"/>
<path d="M47.2504 50.5311C47.2504 50.5311 43.9087 46.2888 42.3492 51.6475C40.7897 57.0062 47.4732 63.4813 47.4732 63.4813L47.2504 50.5311Z" fill="#FFCCB2" stroke="#27314A" stroke-linecap="round" stroke-linejoin="round"/>
<path d="M95.129 50.5311C95.129 50.5311 98.4708 46.2888 100.03 51.6475C101.59 57.0062 94.9062 63.4813 94.9062 63.4813L95.129 50.5311Z" fill="#FFCCB2" stroke="#27314A" stroke-linecap="round" stroke-linejoin="round"/>
<path d="M57.7497 23.723C57.7497 23.723 48.1839 33.031 46.7985 35.808C45.4131 38.585 45.97 70.4023 47.4947 73.4585C49.0194 76.5146 64.2661 88.46 66.7655 89.4369C69.2579 90.4067 74.9458 91.3836 79.3806 89.1578C83.8154 86.932 94.4882 75.5447 95.6021 72.6281C96.7091 69.7116 95.3236 36.3662 94.6344 33.1705C93.9382 29.9748 77.1667 18.5806 70.1003 18.0294C63.0339 17.4712 57.7636 23.723 57.7636 23.723H57.7497Z" fill="#FFCCB2" stroke="#27314A" stroke-linecap="round" stroke-linejoin="round"/>
<path d="M65.2689 18.0303C65.2689 18.0303 79.5967 31.1271 89.9005 31.6364L100.204 32.1388C100.204 32.1388 77.5847 29.1175 70.5461 13.7462C70.5461 13.7462 62.7556 7.19433 65.2689 18.0303Z" fill="#27314A" stroke="#27314A" stroke-linecap="round" stroke-linejoin="round"/>
<path d="M73.2734 44.0078L74.3804 58.0395" stroke="#27314A" stroke-linecap="round" stroke-linejoin="round"/>
<path d="M75.4956 60.9551C75.4956 60.9551 73.0032 64.709 71.2001 64.709C69.3969 64.709 67.5938 62.6227 67.5938 62.6227" stroke="#27314A" stroke-linecap="round" stroke-linejoin="round"/>
<path d="M60.3809 65.5391C60.3809 65.5391 63.5695 70.821 67.7258 71.0931C71.8821 71.3722 76.3169 70.1233 76.3169 70.1233" stroke="#27314A" stroke-linecap="round" stroke-linejoin="round"/>
<path d="M74.9378 41.781C74.9378 41.781 79.7903 38.1667 81.7327 36.9177C83.6751 35.6687 89.913 38.0271 89.913 38.0271C89.913 38.0271 85.1997 35.3896 82.7074 34.971C80.215 34.5523 75.084 38.1667 74.6662 39.8343C74.2485 41.5019 73.0023 41.0832 74.9447 41.781H74.9378Z" fill="#27314A" stroke="#27314A" stroke-linecap="round" stroke-linejoin="round"/>
<path d="M64.9555 42.4507C64.9555 42.4507 64.2593 40.504 61.9061 40.3645C59.553 40.2249 49.1518 43.0019 50.9549 43.0019C52.7581 43.0019 60.2422 42.8624 62.1846 42.8624C64.127 42.8624 64.9555 42.4438 64.9555 42.4438V42.4507Z" fill="#27314A" stroke="#27314A" stroke-linecap="round" stroke-linejoin="round"/>
<path d="M88.799 50.3984C88.799 50.3984 85.1927 51.2288 82.4218 51.0962C79.6509 50.9566 77.1515 50.1263 78.2655 51.3753C79.3724 52.6242 81.5933 53.7337 85.0604 53.0429C88.5275 52.3451 89.7736 51.6544 88.8059 50.4054L88.799 50.3984Z" fill="#27314A"/>
<path d="M63.7091 50.3984C63.7091 50.3984 60.1028 51.2288 57.3319 51.0962C54.5611 50.9566 52.0617 50.1263 53.1756 51.3753C54.2826 52.6242 56.5035 53.7337 59.9705 53.0429C63.4376 52.3451 64.6838 51.6544 63.7161 50.4054L63.7091 50.3984Z" fill="#27314A"/>
<path d="M17.5781 130.472C17.5781 130.472 21.7484 107.474 23.649 105.192C25.5496 102.911 46.2198 85.9902 47.3546 84.8529C48.4894 83.7155 56.6489 71.3584 57.0248 72.8795C57.4008 74.4006 56.078 81.0501 53.6134 84.6645C51.1489 88.2788 47.7305 92.6467 47.7305 92.6467C47.7305 92.6467 60.4362 95.8773 61.195 96.6378C61.9539 97.3984 66.2703 106.867 66.507 108.046C66.9108 110.083 66.326 112.267 64.6134 112.421C63.0539 112.56 52.8546 107.285 52.8546 107.285L44.7021 108.423C44.7021 108.423 38.8192 115.644 34.8369 116.977C30.8547 118.31 29.3369 118.498 29.3369 118.498L29.5249 132.565L17.5781 130.472Z" fill="#FFCCB2" stroke="#27314A" stroke-linecap="round" stroke-linejoin="round"/>
<path d="M48.3496 96.9863C48.3496 96.9863 59.4262 98.4725 60.1015 99.0168C60.7768 99.561 66.5135 108.046 66.5135 108.046" stroke="#27314A" stroke-linecap="round" stroke-linejoin="round"/>
<path d="M49.1094 102.039C49.1094 102.039 60.1024 104.565 60.91 105.242C61.7176 105.919 66.041 110.928 66.041 110.928" stroke="#27314A" stroke-linecap="round" stroke-linejoin="round"/>
<path d="M66.2721 198.99C66.2721 198.99 51.3735 196.206 50.7817 196.004C50.183 195.801 39.6564 192.62 38.271 192.02C36.8786 191.419 19.9957 188.433 19.2021 189.633C18.4084 190.826 17.6147 197.797 17.4128 198.39C17.2109 198.99 15.6236 201.774 16.0204 203.365C16.4173 204.956 16.0204 207.747 16.0204 207.747C16.0204 207.747 15.8185 217.104 18.2065 217.306C20.5875 217.508 22.7736 208.549 22.7736 208.549C22.7736 208.549 26.1502 210.538 33.1052 210.935C40.0602 211.333 46.8134 207.949 46.8134 207.949L65.2835 212.331L66.2791 198.99H66.2721Z" fill="#FFCCB2" stroke="#27314A" stroke-linecap="round" stroke-linejoin="round"/>
<path d="M14.7455 126.411L34.7404 130.074L33.9746 142.599C33.9746 142.599 38.3954 144.72 39.7461 157.049C41.0897 169.386 44.9397 198.028 43.9789 200.149C43.0182 202.27 37.0587 211.522 23.2113 212.095C9.3639 212.674 1.86582 199.954 0.522159 195.907C-0.821506 191.86 6.29366 165.332 6.67657 163.022C7.05947 160.713 8.98099 144.909 10.7145 142.208C12.4481 139.508 14.5575 137.778 14.5575 137.778L14.7525 126.404L14.7455 126.411Z" fill="#E14D78" stroke="#27314A" stroke-linecap="round" stroke-linejoin="round"/>
<path d="M27.1719 140.84C28.3067 140.972 29.4345 141.049 30.5136 141.049" stroke="#27314A" stroke-linecap="round" stroke-linejoin="round"/>
<path d="M14.5566 137.777C14.5566 137.777 18.1281 139.075 22.5003 140.031" stroke="#27314A" stroke-linecap="round" stroke-linejoin="round"/>
<path d="M124.675 132.697L122.691 184.058C122.691 184.058 120.505 184.26 119.711 185.251C118.918 186.249 118.319 187.442 118.319 187.442C118.319 187.442 98.2545 188.237 88.7235 191.028C79.1856 193.812 72.8293 197.196 72.8293 197.196L64.092 196.994L62.3027 220.089L74.0198 220.487C74.0198 220.487 79.7773 223.871 106.003 226.258C132.222 228.644 144.343 229.244 147.121 226.055C149.899 222.867 151.096 217.892 151.493 215.303C151.89 212.714 156.659 196.792 156.659 173.696C156.659 150.601 135.007 117.158 130.238 109.594C125.469 102.031 120.505 102.624 117.128 103.426" fill="#E14D78"/>
<path d="M124.675 132.697L122.691 184.058C122.691 184.058 120.505 184.26 119.711 185.251C118.918 186.249 118.319 187.442 118.319 187.442C118.319 187.442 98.2545 188.237 88.7235 191.028C79.1856 193.812 72.8293 197.196 72.8293 197.196L64.092 196.994L62.3027 220.089L74.0198 220.487C74.0198 220.487 79.7773 223.871 106.003 226.258C132.222 228.644 144.343 229.244 147.121 226.055C149.899 222.866 151.096 217.892 151.493 215.303C151.89 212.714 156.659 196.792 156.659 173.696C156.659 150.601 135.007 117.158 130.238 109.594C125.469 102.031 120.505 102.624 117.128 103.426" stroke="#27314A" stroke-linecap="round" stroke-linejoin="round"/>
<path d="M134.874 180.512L122.684 184.057L134.206 173.305" stroke="#27314A" stroke-linecap="round" stroke-linejoin="round"/>
<path d="M142.547 178.281L138.697 179.405" stroke="#27314A" stroke-linecap="round" stroke-linejoin="round"/>
<path d="M118.318 187.441C118.318 187.441 131.031 188.439 136.197 190.428" stroke="#27314A" stroke-linecap="round" stroke-linejoin="round"/>
<path d="M138.043 198.787C138.642 199.408 139.22 200.078 139.77 200.783" stroke="#27314A" stroke-linecap="round" stroke-linejoin="round"/>
<path d="M123.479 190.227C123.479 190.227 129.821 191.755 135.613 196.527" stroke="#27314A" stroke-linecap="round" stroke-linejoin="round"/>
<path d="M72.627 199.387L72.8289 218.693" stroke="#27314A" stroke-linecap="round" stroke-linejoin="round"/>
<path d="M63.0957 213.922H71.4362" stroke="#27314A" stroke-linecap="round" stroke-linejoin="round"/>
<path d="M65.0801 202.568L68.4566 202.373" stroke="#27314A" stroke-linecap="round" stroke-linejoin="round"/>
</g>
<defs>
<clipPath id="clip0_256_12747">
<rect width="157" height="245" fill="white"/>
</clipPath>
</defs>
</svg>
